<svg xmlns="http://www.w3.org/2000/svg" viewBox="0 0 280 280"><rect width="280" height="280" fill="#0B0B0B"/><path d="M140.677,126.882 L141.851,126.559 L143.085,126.353 L144.369,126.266 L145.692,126.304 L147.039,126.473 L148.399,126.777 L149.758,127.218 L151.101,127.8 L152.415,128.522 L153.684,129.383 L154.895,130.38 L156.033,131.51 L157.085,132.767 L158.036,134.144 L158.873,135.634 L159.585,137.225 L160.159,138.909 L160.585,140.671 L160.854,142.5 L160.957,144.38 L160.888,146.296 L160.641,148.233 L160.212,150.174 L159.598,152.101 L158.8,153.996 L157.817,155.843 L156.653,157.622 L155.312,159.317 L153.8,160.909 L152.126,162.383 L150.297,163.72 L148.327,164.906 L146.227,165.926 L144.012,166.766 L141.697,167.414 L139.3,167.859 L136.838,168.092 L134.33,168.104 L131.797,167.889 L129.259,167.444 L126.738,166.765 L124.254,165.853 L121.83,164.708 L119.488,163.336 L117.249,161.74 L115.134,159.93 L113.164,157.914 L111.359,155.705 L109.738,153.316 L108.318,150.762 L107.116,148.061 L106.146,145.232 L105.423,142.295 L104.958,139.271 L104.759,136.183 L104.835,133.056 L105.192,129.913 L105.831,126.781 L106.755,123.685 L107.961,120.65 L109.446,117.703 L111.203,114.869 L113.225,112.174 L115.499,109.643 L118.012,107.298 L120.75,105.164 L123.694,103.26 L126.824,101.607 L130.12,100.224 L133.557,99.125 L137.111,98.327 L140.755,97.839 L144.463,97.673 L148.204,97.836 L151.951,98.332 L155.673,99.162 L159.34,100.328 L162.922,101.825 L166.388,103.647 L169.71,105.785 L172.857,108.228 L175.803,110.961 L178.52,113.968 L180.982,117.229 L183.167,120.723 L185.052,124.426 L186.616,128.311 L187.844,132.352 L188.718,136.518 L189.228,140.778 L189.362,145.101 L189.115,149.453 L188.482,153.8 L187.461,158.108 L186.056,162.342 L184.271,166.467 L182.115,170.45 L179.599,174.257 L176.738,177.854 L173.549,181.212 L170.052,184.299 L166.271,187.088 L162.231,189.552 L157.96,191.668 L153.488,193.413 L148.848,194.769 L144.074,195.72 L139.201,196.252 L134.266,196.356 L129.308,196.025 L124.364,195.255 L119.473,194.047 L114.676,192.404 L110.01,190.334 L105.513,187.846 L101.224,184.955 L97.178,181.678 L93.411,178.036 L89.954,174.053 L86.84,169.754 L84.098,165.171 L81.752,160.335 L79.826,155.28 L78.342,150.044 L77.315,144.664 L76.76,139.182 L76.686,133.639 L77.1,128.077 L78.005,122.539 L79.4,117.069 L81.279,111.71 L83.633,106.506 L86.451,101.498 L89.715,96.728 L93.405,92.236 L97.498,88.06 L101.965,84.237 L106.778,80.799 L111.902,77.778 L117.3,75.203 L122.935,73.098 L128.765,71.486 L134.746,70.383 L140.835,69.804 L146.984,69.76 L153.147,70.257 L159.276,71.296 L165.323,72.875 L171.241,74.989 L176.981,77.626 L182.499,80.772 L187.747,84.407 L192.683,88.508 L197.266,93.049 L201.456,97.999 L205.216,103.324 L208.513,108.985 L211.317,114.944 L213.601,121.156 L215.342,127.577 L216.521,134.158 L217.123,140.85 L217.138,147.603 L216.559,154.365 L215.387,161.083 L213.623,167.705 L211.275,174.179 L208.357,180.453 L204.885,186.478 L200.88,192.203 L196.37,197.582 L191.382,202.57 L185.953,207.125 L180.118,211.207 L173.921,214.78 L167.404,217.812 L160.617,220.274 L153.608,222.143 L146.429,223.398 L139.123,224.024 L140.877,255.976 L150.92,254.9 L160.794,252.959 L170.414,250.174 L179.708,246.577 L188.607,242.202 L197.048,237.091 L204.971,231.29 L212.319,224.851 L219.041,217.829 L225.094,210.284 L230.435,202.279 L235.033,193.88 L238.859,185.156 L241.891,176.177 L244.115,167.015 L245.521,157.741 L246.107,148.429 L245.877,139.15 L244.842,129.975 L243.018,120.973 L240.427,112.213 L237.097,103.758 L233.061,95.671 L228.359,88.01 L223.034,80.828 L217.132,74.177 L210.707,68.101 L203.812,62.642 L196.507,57.833 L188.852,53.706 L180.909,50.284 L172.744,47.586 L164.421,45.624 L156.006,44.405 L147.566,43.931 L139.165,44.196 L130.868,45.19 L122.738,46.897 L114.834,49.295 L107.216,52.358 L99.939,56.054 L93.055,60.348 L86.613,65.2 L80.656,70.564 L75.226,76.395 L70.357,82.64 L66.08,89.247 L62.421,96.161 L59.402,103.324 L57.036,110.678 L55.335,118.164 L54.303,125.722 L53.94,133.293 L54.24,140.818 L55.193,148.24 L56.782,155.502 L58.987,162.551 L61.784,169.334 L65.142,175.804 L69.029,181.912 L73.408,187.618 L78.237,192.883 L83.473,197.67 L89.071,201.951 L94.983,205.698 L101.157,208.889 L107.543,211.508 L114.088,213.542 L120.739,214.984 L127.443,215.83 L134.147,216.082 L140.799,215.748 L147.349,214.837 L153.746,213.365 L159.943,211.352 L165.895,208.821 L171.559,205.8 L176.895,202.32 L181.868,198.413 L186.442,194.118 L190.589,189.473 L194.284,184.521 L197.503,179.303 L200.229,173.866 L202.449,168.255 L204.153,162.516 L205.337,156.697 L205.998,150.844 L206.141,145.004 L205.772,139.222 L204.903,133.541 L203.549,128.007 L201.728,122.658 L199.463,117.534 L196.779,112.672 L193.703,108.104 L190.267,103.863 L186.504,99.975 L182.45,96.465 L178.14,93.355 L173.614,90.661 L168.911,88.397 L164.072,86.574 L159.137,85.198 L154.146,84.271 L149.141,83.793 L144.161,83.759 L139.245,84.161 L134.43,84.987 L129.754,86.224 L125.249,87.852 L120.95,89.853 L116.885,92.202 L113.084,94.873 L109.569,97.84 L106.365,101.073 L103.489,104.54 L100.959,108.208 L98.787,112.045 L96.983,116.017 L95.554,120.088 L94.504,124.223 L93.832,128.389 L93.535,132.551 L93.608,136.675 L94.042,140.729 L94.826,144.683 L95.944,148.505 L97.381,152.17 L99.117,155.65 L101.131,158.921 L103.4,161.962 L105.9,164.754 L108.604,167.28 L111.486,169.525 L114.517,171.479 L117.669,173.133 L120.913,174.48 L124.219,175.518 L127.56,176.247 L130.905,176.667 L134.228,176.784 L137.502,176.606 L140.7,176.141 L143.798,175.401 L146.773,174.401 L149.604,173.156 L152.27,171.684 L154.754,170.004 L157.041,168.136 L159.116,166.101 L160.97,163.922 L162.591,161.622 L163.975,159.225 L165.116,156.754 L166.013,154.233 L166.665,151.685 L167.075,149.134 L167.247,146.601 L167.189,144.11 L166.908,141.679 L166.415,139.329 L165.721,137.077 L164.841,134.941 L163.788,132.935 L162.58,131.073 L161.232,129.366 L159.762,127.823 L158.189,126.454 L156.532,125.263 L154.809,124.255 L153.039,123.431 L151.242,122.791 L149.434,122.335 L147.635,122.058 L145.861,121.956 L144.129,122.02 L142.453,122.243 L140.846,122.614 L139.323,123.118 Z" fill="#F44352"/><circle cx="140" cy="240" r="11" fill="#FF5E63"/></svg>