<svg xmlns="http://www.w3.org/2000/svg" viewBox="0 0 280 280"><rect width="280" height="280" fill="#0B0B0B"/><path d="M165.2,123.469 L166.551,125.013 L167.797,126.665 L168.936,128.42 L169.961,130.27 L170.865,132.207 L171.641,134.223 L172.283,136.309 L172.784,138.455 L173.141,140.653 L173.348,142.892 L173.401,145.162 L173.297,147.451 L173.035,149.75 L172.612,152.047 L172.027,154.331 L171.281,156.59 L170.374,158.813 L169.308,160.988 L168.085,163.103 L166.709,165.148 L165.183,167.111 L163.513,168.982 L161.704,170.749 L159.762,172.403 L157.695,173.933 L155.511,175.33 L153.218,176.586 L150.826,177.691 L148.344,178.639 L145.784,179.421 L143.155,180.033 L140.47,180.467 L137.741,180.72 L134.98,180.788 L132.2,180.666 L129.414,180.354 L126.634,179.849 L123.875,179.152 L121.15,178.262 L118.473,177.181 L115.856,175.912 L113.313,174.458 L110.857,172.823 L108.502,171.013 L106.259,169.033 L104.141,166.891 L102.16,164.594 L100.327,162.152 L98.652,159.573 L97.146,156.869 L95.818,154.05 L94.676,151.128 L93.729,148.116 L92.984,145.027 L92.446,141.874 L92.121,138.671 L92.013,135.433 L92.126,132.174 L92.461,128.91 L93.02,125.656 L93.802,122.428 L94.808,119.24 L96.035,116.109 L97.48,113.049 L99.139,110.076 L101.006,107.206 L103.076,104.452 L105.341,101.829 L107.792,99.35 L110.421,97.03 L113.217,94.88 L116.169,92.914 L119.265,91.141 L122.492,89.573 L125.837,88.22 L129.285,87.089 L132.821,86.189 L136.43,85.527 L140.096,85.108 L143.802,84.937 L147.531,85.018 L151.267,85.352 L154.991,85.942 L158.687,86.786 L162.337,87.884 L165.923,89.234 L169.427,90.831 L172.834,92.671 L176.126,94.748 L179.286,97.054 L182.298,99.582 L185.148,102.322 L187.819,105.263 L190.298,108.393 L192.571,111.701 L194.625,115.171 L196.45,118.791 L198.033,122.544 L199.366,126.415 L200.44,130.386 L201.247,134.44 L201.78,138.56 L202.036,142.726 L202.009,146.92 L201.698,151.122 L201.1,155.314 L200.217,159.476 L199.049,163.587 L197.6,167.63 L195.873,171.583 L193.873,175.429 L191.608,179.148 L189.086,182.721 L186.315,186.132 L183.307,189.363 L180.073,192.397 L176.627,195.218 L172.981,197.811 L169.152,200.163 L165.155,202.261 L161.007,204.092 L156.726,205.645 L152.331,206.912 L147.842,207.883 L143.277,208.552 L138.658,208.913 L134.005,208.962 L129.339,208.695 L124.683,208.111 L120.057,207.211 L115.483,205.996 L110.982,204.468 L106.577,202.633 L102.288,200.495 L98.136,198.063 L94.14,195.346 L90.322,192.353 L86.7,189.095 L83.292,185.587 L80.109,181.833 L46.178,209.846 L51.459,215.676 L57.105,221.121 L63.081,226.15 L69.356,230.745 L75.9,234.888 L82.679,238.563 L89.662,241.758 L96.813,244.462 L104.1,246.667 L111.487,248.368 L118.939,249.56 L126.422,250.242 L133.901,250.417 L141.342,250.087 L148.711,249.258 L155.975,247.94 L163.101,246.141 L170.058,243.874 L176.816,241.155 L183.344,238 L189.616,234.426 L195.604,230.455 L201.284,226.108 L206.632,221.408 L211.628,216.381 L216.25,211.052 L220.482,205.449 L224.307,199.6 L227.711,193.535 L230.684,187.282 L233.214,180.873 L235.296,174.339 L236.923,167.711 L238.092,161.02 L238.802,154.298 L239.054,147.576 L238.852,140.885 L238.201,134.256 L237.109,127.717 L235.583,121.3 L233.637,115.032 L231.283,108.94 L228.535,103.052 L225.411,97.391 L221.929,91.982 L218.107,86.847 L213.969,82.008 L209.534,77.484 L204.828,73.291 L199.875,69.447 L194.699,65.965 L189.328,62.859 L183.788,60.137 L178.106,57.809 L172.311,55.882 L166.43,54.36 L160.491,53.246 L154.522,52.54 L148.552,52.242 L142.607,52.349 L136.716,52.856 L130.905,53.756 L125.2,55.04 L119.626,56.699 L114.207,58.721 L108.968,61.093 L103.93,63.798 L99.114,66.822 L94.541,70.147 L90.228,73.753 L86.193,77.621 L82.452,81.73 L79.018,86.058 L75.904,90.583 L73.12,95.28 L70.676,100.127 L68.579,105.099 L66.835,110.172 L65.448,115.32 L64.419,120.519 L63.75,125.744 L63.439,130.97 L63.484,136.173 L63.879,141.329 L64.619,146.415 L65.695,151.407 L67.1,156.284 L68.822,161.024 L70.849,165.607 L73.168,170.013 L75.764,174.225 L78.622,178.224 L81.724,181.995 L85.055,185.523 L88.594,188.795 L92.322,191.799 L96.22,194.524 L100.267,196.961 L104.443,199.102 L108.725,200.942 L113.092,202.476 L117.524,203.7 L121.997,204.614 L126.491,205.217 L130.983,205.51 L135.454,205.497 L139.882,205.182 L144.247,204.57 L148.529,203.668 L152.71,202.486 L156.771,201.032 L160.694,199.317 L164.463,197.353 L168.063,195.153 L171.479,192.73 L174.698,190.101 L177.707,187.279 L180.495,184.281 L183.052,181.124 L185.371,177.826 L187.442,174.404 L189.261,170.875 L190.822,167.26 L192.123,163.575 L193.16,159.84 L193.934,156.073 L194.445,152.293 L194.694,148.517 L194.685,144.763 L194.421,141.05 L193.909,137.393 L193.154,133.81 L192.165,130.316 L190.949,126.926 L189.518,123.655 L187.88,120.516 L186.048,117.52 L184.035,114.681 L181.852,112.007 L179.521,109.508 Z" fill="#F44352"/><circle cx="63.143" cy="195.84" r="9" fill="#FF5E63"/></svg>