<svg xmlns="http://www.w3.org/2000/svg" viewBox="0 0 280 280"><rect width="280" height="280" fill="#0B0B0B"/><path d="M142.217,147.877 L141.496,147.884 L140.775,147.817 L140.081,147.679 L139.421,147.479 L138.799,147.22 L138.222,146.91 L137.694,146.555 L137.217,146.16 L136.795,145.734 L136.429,145.283 L136.121,144.813 L135.869,144.332 L135.674,143.846 L135.535,143.362 L135.448,142.887 L135.412,142.424 L135.423,141.981 L135.476,141.562 L135.569,141.17 L135.694,140.81 L135.849,140.484 L136.026,140.195 L136.221,139.944 L136.429,139.732 L136.642,139.558 L136.857,139.422 L137.067,139.323 L137.267,139.258 L137.454,139.226 L137.622,139.222 L137.768,139.243 L137.889,139.284 L137.982,139.342 L138.045,139.411 L138.077,139.485 L138.078,139.561 L138.047,139.632 L137.985,139.693 L137.894,139.739 L137.776,139.765 L137.635,139.767 L137.473,139.739 L137.296,139.679 L137.107,139.583 L136.913,139.448 L136.717,139.272 L136.528,139.055 L136.35,138.795 L136.191,138.493 L136.056,138.15 L135.951,137.768 L135.884,137.35 L135.86,136.899 L135.884,136.419 L135.962,135.917 L136.098,135.397 L136.297,134.866 L136.561,134.332 L136.893,133.801 L137.295,133.283 L137.767,132.785 L138.309,132.316 L138.919,131.885 L139.597,131.501 L140.337,131.172 L141.136,130.907 L141.988,130.715 L142.887,130.602 L143.825,130.576 L144.794,130.643 L145.784,130.809 L146.786,131.079 L147.789,131.456 L148.781,131.943 L149.751,132.541 L150.687,133.25 L151.575,134.07 L152.405,134.997 L153.163,136.028 L153.837,137.158 L154.415,138.38 L154.886,139.686 L155.239,141.066 L155.464,142.511 L155.553,144.008 L155.497,145.544 L155.29,147.105 L154.926,148.677 L154.402,150.244 L153.715,151.79 L152.865,153.298 L151.852,154.751 L150.68,156.131 L149.353,157.422 L147.877,158.606 L146.261,159.668 L144.515,160.59 L142.65,161.359 L140.68,161.96 L138.621,162.379 L136.488,162.606 L134.299,162.629 L132.075,162.442 L129.834,162.036 L127.6,161.408 L125.393,160.554 L123.236,159.475 L121.152,158.172 L119.164,156.65 L117.295,154.914 L115.567,152.974 L114.003,150.84 L112.624,148.528 L111.448,146.051 L110.496,143.428 L109.784,140.679 L109.327,137.826 L109.139,134.892 L109.23,131.903 L109.611,128.886 L110.286,125.867 L111.26,122.877 L112.533,119.944 L114.103,117.098 L115.966,114.369 L118.112,111.787 L120.531,109.381 L123.21,107.179 L126.13,105.209 L129.273,103.498 L132.615,102.068 L136.132,100.944 L139.795,100.144 L143.575,99.687 L147.44,99.587 L151.356,99.857 L155.288,100.505 L159.199,101.537 L163.053,102.955 L166.81,104.757 L170.434,106.937 L173.887,109.487 L177.13,112.393 L180.127,115.64 L182.844,119.206 L185.246,123.067 L187.302,127.197 L188.983,131.564 L190.263,136.134 L191.117,140.871 L191.526,145.735 L191.474,150.684 L190.948,155.676 L189.939,160.664 L188.444,165.602 L186.463,170.443 L184.001,175.139 L181.066,179.643 L177.675,183.907 L173.845,187.886 L169.6,191.534 L164.969,194.81 L159.983,197.671 L154.68,200.082 L149.1,202.007 L143.287,203.416 L137.288,204.281 L131.156,204.581 L124.941,204.298 L118.701,203.418 L112.491,201.936 L106.371,199.847 L100.398,197.156 L94.633,193.873 L89.132,190.011 L83.955,185.592 L79.157,180.642 L74.792,175.194 L70.911,169.284 L67.563,162.956 L64.792,156.256 L62.638,149.238 L61.136,141.958 L60.317,134.477 L60.206,126.857 L60.82,119.167 L62.174,111.474 L64.272,103.85 L67.114,96.367 L70.692,89.096 L74.991,82.109 L79.991,75.479 L85.661,69.275 L91.967,63.564 L98.866,58.41 L106.309,53.876 L114.241,50.016 L122.601,46.884 L131.323,44.526 L140.338,42.981 L139.662,37.019 L130.054,38.462 L120.709,40.78 L111.708,43.937 L103.123,47.89 L95.024,52.588 L87.472,57.977 L80.525,63.997 L74.233,70.582 L68.639,77.664 L63.78,85.172 L59.687,93.031 L56.38,101.166 L53.876,109.5 L52.182,117.956 L51.299,126.456 L51.219,134.924 L51.93,143.288 L53.41,151.474 L55.633,159.413 L58.567,167.04 L62.172,174.292 L66.406,181.113 L71.22,187.45 L76.56,193.254 L82.372,198.485 L88.595,203.105 L95.167,207.085 L102.025,210.401 L109.102,213.035 L116.333,214.974 L123.65,216.215 L130.989,216.757 L138.284,216.609 L145.471,215.782 L152.489,214.296 L159.278,212.175 L165.783,209.448 L171.95,206.15 L177.732,202.318 L183.083,197.996 L187.963,193.23 L192.338,188.07 L196.176,182.566 L199.453,176.773 L202.148,170.748 L204.248,164.547 L205.744,158.227 L206.632,151.846 L206.914,145.461 L206.596,139.129 L205.692,132.905 L204.219,126.842 L202.199,120.99 L199.657,115.399 L196.625,110.113 L193.136,105.173 L189.23,100.619 L184.945,96.485 L180.327,92.8 L175.42,89.59 L170.273,86.877 L164.934,84.676 L159.453,82.999 L153.88,81.854 L148.267,81.242 L142.663,81.161 L137.117,81.604 L131.678,82.559 L126.391,84.011 L121.302,85.94 L116.451,88.32 L111.878,91.127 L107.621,94.327 L103.711,97.888 L100.178,101.774 L97.048,105.945 L94.343,110.361 L92.08,114.979 L90.275,119.756 L88.936,124.648 L88.068,129.611 L87.674,134.599 L87.75,139.568 L88.289,144.476 L89.281,149.278 L90.71,153.936 L92.558,158.409 L94.804,162.66 L97.423,166.656 L100.386,170.363 L103.664,173.754 L107.224,176.802 L111.03,179.485 L115.046,181.784 L119.235,183.683 L123.556,185.171 L127.972,186.239 L132.44,186.884 L136.923,187.104 L141.379,186.903 L145.771,186.288 L150.059,185.268 L154.209,183.858 L158.184,182.075 L161.952,179.938 L165.482,177.47 L168.746,174.697 L171.718,171.647 L174.375,168.35 L176.697,164.837 L178.668,161.141 L180.274,157.298 L181.504,153.342 L182.353,149.31 L182.816,145.237 L182.893,141.161 L182.589,137.116 L181.909,133.139 L180.864,129.264 L179.466,125.523 L177.731,121.948 L175.678,118.569 L173.327,115.414 L170.704,112.509 L167.833,109.875 L164.742,107.535 L161.46,105.506 L158.019,103.802 L154.449,102.436 L150.783,101.416 L147.055,100.749 L143.299,100.437 L139.546,100.48 L135.83,100.873 L132.185,101.611 L128.64,102.684 L125.227,104.08 L121.974,105.783 L118.909,107.776 L116.057,110.039 L113.441,112.55 L111.083,115.284 L109.001,118.216 L107.211,121.319 L105.727,124.563 L104.56,127.919 L103.717,131.357 L103.203,134.845 L103.02,138.353 L103.167,141.85 L103.641,145.304 L104.435,148.685 L105.54,151.965 L106.943,155.116 L108.631,158.109 L110.585,160.92 L112.788,163.526 L115.218,165.905 L117.853,168.037 L120.666,169.906 L123.634,171.496 L126.727,172.796 L129.919,173.795 L133.18,174.487 L136.482,174.868 L139.794,174.937 L143.088,174.694 L146.334,174.143 L149.504,173.292 L152.571,172.15 L155.509,170.728 L158.291,169.041 L160.894,167.105 L163.297,164.939 L165.479,162.563 L167.422,159.999 L169.11,157.271 L170.529,154.404 L171.67,151.424 L172.522,148.358 L173.08,145.233 L173.34,142.079 L173.303,138.922 L172.968,135.79 L172.342,132.712 L171.431,129.714 L170.243,126.823 L168.793,124.063 L167.092,121.459 L165.158,119.033 L163.01,116.806 L160.666,114.796 L158.149,113.021 L155.482,111.495 L152.69,110.231 L149.797,109.24 L146.831,108.529 L143.818,108.103 L140.787,107.967 L137.783,108.123 Z" fill="#F44352"/><circle cx="140" cy="128" r="6" fill="#FF5E63"/></svg>