<svg xmlns="http://www.w3.org/2000/svg" viewBox="0 0 280 280"><rect width="280" height="280" fill="#0B0B0B"/><path d="M79.188,79.189 L81.293,77.155 L83.466,75.194 L85.704,73.307 L88.004,71.498 L90.366,69.769 L92.784,68.121 L95.257,66.556 L97.782,65.076 L100.356,63.682 L102.976,62.378 L105.639,61.163 L108.341,60.039 L111.08,59.008 L113.853,58.071 L116.656,57.229 L119.486,56.482 L122.34,55.833 L125.214,55.281 L128.105,54.827 L131.011,54.471 L133.926,54.215 L136.849,54.058 L139.775,54 L142.701,54.042 L145.625,54.184 L148.541,54.425 L151.448,54.765 L154.342,55.204 L157.219,55.741 L160.076,56.376 L162.91,57.108 L165.718,57.935 L168.495,58.858 L171.24,59.875 L173.948,60.984 L176.617,62.185 L179.244,63.476 L181.825,64.856 L184.358,66.322 L186.839,67.874 L189.266,69.51 L191.636,71.227 L193.946,73.024 L196.194,74.898 L198.377,76.848 L200.492,78.871 L202.537,80.965 L204.51,83.127 L206.407,85.355 L208.228,87.647 L209.97,89.998 L211.631,92.408 L213.209,94.873 L214.702,97.391 L216.109,99.957 L217.427,102.57 L218.656,105.226 L219.794,107.923 L220.839,110.657 L221.791,113.425 L222.648,116.223 L223.409,119.049 L224.074,121.899 L224.641,124.771 L225.11,127.66 L225.481,130.563 L225.752,133.477 L225.925,136.399 L225.997,139.325 L225.971,142.251 L225.844,145.175 L225.618,148.093 L225.293,151.002 L224.87,153.898 L224.348,156.778 L223.728,159.638 L223.011,162.476 L222.198,165.287 L221.29,168.07 L220.288,170.82 L219.193,173.534 L218.006,176.209 L216.729,178.842 L215.362,181.431 L213.909,183.971 L212.37,186.461 L210.747,188.896 L209.042,191.275 L207.258,193.595 L205.395,195.853 L203.457,198.045 L201.445,200.171 L199.362,202.227 L197.21,204.211 L194.992,206.12 L192.71,207.953 L190.367,209.708 L187.966,211.381 L185.509,212.972 L183,214.478 L180.441,215.898 L177.835,217.23 L175.185,218.473 L172.494,219.625 L169.766,220.684 L167.003,221.651 L164.209,222.522 L161.387,223.298 L158.541,223.978 L155.672,224.56 L152.786,225.044 L149.885,225.43 L146.972,225.717 L144.051,225.905 L141.126,225.993 L138.199,225.981 L135.274,225.87 L132.355,225.66 L129.445,225.35 L126.546,224.941 L125.296,232.843 L128.463,233.289 L131.644,233.628 L134.835,233.858 L138.031,233.979 L141.23,233.992 L144.428,233.896 L147.62,233.691 L150.804,233.377 L153.975,232.955 L157.13,232.426 L160.265,231.79 L163.377,231.047 L166.461,230.199 L169.515,229.246 L172.535,228.19 L175.517,227.032 L178.458,225.773 L181.354,224.415 L184.203,222.959 L187,221.406 L189.743,219.76 L192.428,218.021 L195.053,216.192 L197.613,214.275 L200.107,212.271 L202.532,210.184 L204.884,208.016 L207.16,205.768 L209.359,203.445 L211.478,201.048 L213.514,198.581 L215.465,196.045 L217.328,193.445 L219.102,190.783 L220.784,188.062 L222.373,185.285 L223.866,182.456 L225.262,179.577 L226.559,176.653 L227.757,173.687 L228.852,170.681 L229.845,167.64 L230.733,164.567 L231.516,161.465 L232.194,158.338 L232.764,155.191 L233.228,152.025 L233.583,148.846 L233.83,145.657 L233.968,142.461 L233.997,139.262 L233.918,136.064 L233.729,132.87 L233.432,129.685 L233.027,126.512 L232.514,123.354 L231.894,120.216 L231.168,117.1 L230.336,114.011 L229.399,110.952 L228.359,107.927 L227.217,104.939 L225.973,101.992 L224.63,99.088 L223.189,96.232 L221.651,93.427 L220.019,90.675 L218.295,87.981 L216.479,85.347 L214.575,82.776 L212.585,80.272 L210.51,77.837 L208.354,75.473 L206.119,73.185 L203.807,70.974 L201.422,68.842 L198.965,66.794 L196.44,64.83 L193.849,62.953 L191.196,61.165 L188.484,59.469 L185.716,57.865 L182.894,56.357 L180.023,54.946 L177.106,53.634 L174.146,52.421 L171.146,51.31 L168.11,50.301 L165.041,49.397 L161.944,48.597 L158.821,47.903 L155.676,47.316 L152.513,46.837 L149.336,46.465 L146.148,46.201 L142.953,46.046 L139.754,46 L136.555,46.063 L133.361,46.235 L130.174,46.515 L126.999,46.903 L123.839,47.4 L120.697,48.003 L117.578,48.713 L114.485,49.529 L111.421,50.45 L108.39,51.474 L105.396,52.601 L102.442,53.829 L99.532,55.157 L96.668,56.583 L93.855,58.106 L91.095,59.724 L88.392,61.434 L85.748,63.236 L83.168,65.126 L80.653,67.103 L78.207,69.165 L75.832,71.309 L73.533,73.531 Z" fill="#F44352"/><circle cx="125.921" cy="228.892" r="12" fill="#FF5E63"/></svg>