<svg xmlns="http://www.w3.org/2000/svg" viewBox="0 0 280 280"><rect width="280" height="280" fill="#0B0B0B"/><path d="M58.919,181.314 L60.31,184.043 L61.784,186.732 L63.344,189.374 L64.991,191.966 L66.723,194.505 L68.54,196.987 L70.439,199.411 L72.419,201.771 L74.479,204.067 L76.615,206.296 L78.826,208.453 L81.11,210.538 L83.465,212.548 L85.887,214.48 L88.375,216.331 L90.926,218.1 L93.537,219.785 L96.206,221.383 L98.929,222.892 L101.704,224.311 L104.528,225.637 L107.397,226.869 L110.309,228.006 L113.261,229.046 L116.248,229.987 L119.269,230.828 L122.319,231.569 L125.396,232.207 L128.495,232.743 L131.614,233.175 L134.749,233.502 L137.896,233.724 L141.053,233.841 L144.215,233.851 L147.379,233.756 L150.541,233.554 L153.698,233.246 L156.846,232.832 L159.983,232.312 L163.103,231.686 L166.204,230.954 L169.281,230.119 L172.333,229.179 L175.354,228.137 L178.342,226.992 L181.293,225.746 L184.204,224.4 L187.071,222.956 L189.891,221.414 L192.661,219.777 L195.377,218.046 L198.036,216.223 L200.636,214.309 L203.172,212.306 L205.643,210.218 L208.045,208.045 L210.374,205.789 L212.63,203.455 L214.808,201.043 L216.906,198.556 L218.922,195.998 L220.853,193.37 L222.696,190.676 L224.45,187.918 L226.112,185.1 L227.68,182.224 L229.152,179.294 L230.526,176.313 L231.801,173.283 L232.975,170.209 L234.046,167.094 L235.012,163.941 L235.873,160.754 L236.627,157.535 L237.274,154.29 L237.811,151.021 L238.239,147.732 L238.556,144.426 L238.762,141.108 L238.856,137.781 L238.839,134.449 L238.709,131.116 L238.467,127.785 L238.113,124.46 L237.647,121.146 L237.069,117.845 L236.379,114.561 L235.578,111.299 L234.667,108.062 L233.646,104.854 L232.517,101.678 L231.28,98.538 L229.937,95.439 L228.489,92.382 L226.936,89.373 L225.282,86.414 L223.527,83.509 L221.673,80.661 L219.722,77.875 L217.676,75.152 L215.537,72.496 L213.307,69.911 L210.989,67.4 L208.585,64.965 L206.097,62.61 L203.529,60.337 L200.883,58.149 L198.161,56.049 L195.367,54.04 L192.504,52.123 L189.574,50.302 L186.582,48.578 L183.529,46.954 L180.42,45.432 L177.258,44.014 L174.046,42.702 L170.788,41.497 L167.488,40.401 L164.148,39.415 L160.774,38.542 L157.368,37.781 L153.934,37.135 L150.477,36.604 L146.999,36.19 L143.506,35.892 L140,35.712 L136.486,35.649 L132.968,35.706 L129.45,35.88 L125.936,36.174 L122.429,36.586 L118.934,37.116 L115.455,37.764 L111.996,38.53 L108.561,39.413 L105.153,40.413 L101.777,41.527 L98.436,42.756 L95.135,44.099 L91.881,45.551 L108.217,77.631 L110.285,76.484 L112.391,75.407 L114.536,74.4 L116.718,73.464 L118.934,72.601 L121.181,71.812 L123.458,71.099 L125.762,70.461 L128.09,69.901 L130.439,69.419 L132.808,69.016 L135.192,68.693 L137.591,68.45 L140,68.288 L142.417,68.208 L144.84,68.209 L147.266,68.292 L149.691,68.458 L152.113,68.705 L154.53,69.036 L156.938,69.448 L159.335,69.942 L161.717,70.518 L164.083,71.175 L166.429,71.913 L168.752,72.731 L171.05,73.628 L173.321,74.605 L175.56,75.659 L177.766,76.79 L179.936,77.997 L182.068,79.278 L184.158,80.634 L186.205,82.061 L188.205,83.559 L190.157,85.126 L192.058,86.761 L193.905,88.462 L195.696,90.227 L197.43,92.054 L199.103,93.942 L200.714,95.888 L202.261,97.891 L203.742,99.949 L205.154,102.058 L206.496,104.217 L207.767,106.423 L208.964,108.675 L210.086,110.97 L211.131,113.304 L212.098,115.676 L212.986,118.083 L213.793,120.523 L214.519,122.992 L215.161,125.487 L215.72,128.007 L216.194,130.548 L216.582,133.107 L216.884,135.682 L217.099,138.27 L217.227,140.867 L217.267,143.47 L217.219,146.077 L217.082,148.685 L216.858,151.291 L216.544,153.891 L216.143,156.483 L215.653,159.063 L215.076,161.629 L214.411,164.178 L213.66,166.706 L212.822,169.211 L211.899,171.69 L210.891,174.139 L209.799,176.557 L208.625,178.939 L207.369,181.284 L206.032,183.588 L204.617,185.848 L203.124,188.063 L201.555,190.228 L199.911,192.342 L198.194,194.403 L196.406,196.406 L194.549,198.351 L192.625,200.234 L190.636,202.054 L188.583,203.807 L186.469,205.493 L184.297,207.108 L182.069,208.65 L179.787,210.119 L177.453,211.511 L175.07,212.825 L172.642,214.059 L170.17,215.212 L167.657,216.282 L165.106,217.267 L162.52,218.167 L159.901,218.98 L157.253,219.704 L154.58,220.34 L151.882,220.885 L149.165,221.339 L146.43,221.701 L143.681,221.971 L140.922,222.148 L138.154,222.232 L135.383,222.221 L132.609,222.117 L129.838,221.919 L127.072,221.626 L124.314,221.239 L121.567,220.759 L118.836,220.185 L116.122,219.518 L113.429,218.759 L110.761,217.908 L108.12,216.966 L105.509,215.933 L102.933,214.812 L100.393,213.602 L97.893,212.305 L95.436,210.923 L93.025,209.457 L90.662,207.907 L88.352,206.277 L86.096,204.567 L83.897,202.78 L81.758,200.916 L79.682,198.979 L77.672,196.971 L75.729,194.892 L73.858,192.747 L72.059,190.536 L70.336,188.263 L68.692,185.93 L67.129,183.538 L65.651,181.091 L64.264,178.589 Z" fill="#F44352"/><circle cx="100.049" cy="61.591" r="11" fill="#FF5E63"/></svg>