<svg xmlns="http://www.w3.org/2000/svg" viewBox="0 0 280 280"><rect width="280" height="280" fill="#0B0B0B"/><path d="M55.356,112.498 L56.309,109.721 L57.353,106.977 L58.487,104.269 L59.71,101.6 L61.02,98.973 L62.416,96.391 L63.897,93.856 L65.46,91.371 L67.104,88.939 L68.828,86.563 L70.629,84.244 L72.506,81.987 L74.456,79.792 L76.477,77.663 L78.568,75.602 L80.725,73.611 L82.947,71.692 L85.231,69.848 L87.574,68.08 L89.975,66.39 L92.43,64.78 L94.936,63.252 L97.492,61.808 L100.094,60.448 L102.739,59.175 L105.425,57.99 L108.149,56.895 L110.907,55.889 L113.697,54.976 L116.515,54.154 L119.359,53.427 L122.226,52.793 L125.112,52.254 L128.014,51.811 L130.929,51.463 L133.854,51.212 L136.785,51.058 L139.72,51 L142.656,51.04 L145.588,51.176 L148.515,51.408 L151.432,51.737 L154.337,52.162 L157.226,52.683 L160.096,53.299 L162.945,54.009 L165.768,54.812 L168.564,55.708 L171.328,56.696 L174.059,57.775 L176.752,58.943 L179.405,60.199 L182.016,61.542 L184.581,62.97 L187.097,64.483 L189.562,66.077 L191.973,67.752 L194.328,69.505 L196.623,71.335 L198.857,73.24 L201.027,75.218 L203.13,77.266 L205.165,79.382 L207.128,81.564 L209.019,83.81 L210.835,86.116 L212.573,88.482 L214.233,90.904 L215.812,93.378 L217.308,95.904 L218.72,98.478 L220.047,101.097 L221.287,103.758 L222.438,106.458 L223.499,109.196 L224.47,111.966 L225.348,114.767 L226.134,117.596 L226.826,120.449 L227.424,123.323 L227.926,126.215 L228.333,129.123 L228.644,132.042 L228.858,134.97 L228.975,137.903 L228.996,140.839 L228.92,143.773 L228.747,146.704 L228.478,149.627 L228.112,152.54 L227.651,155.439 L227.094,158.322 L226.442,161.184 L225.696,164.024 L224.857,166.837 L223.926,169.621 L222.904,172.373 L221.791,175.089 L220.589,177.768 L219.299,180.406 L229.992,185.852 L231.455,182.86 L232.819,179.821 L234.082,176.738 L235.242,173.615 L236.299,170.455 L237.251,167.263 L238.097,164.041 L238.837,160.792 L239.469,157.521 L239.992,154.231 L240.407,150.925 L240.713,147.608 L240.909,144.282 L240.996,140.952 L240.972,137.62 L240.839,134.292 L240.595,130.969 L240.243,127.656 L239.781,124.357 L239.211,121.074 L238.533,117.813 L237.748,114.575 L236.856,111.365 L235.859,108.186 L234.757,105.042 L233.553,101.936 L232.247,98.871 L230.84,95.851 L229.334,92.879 L227.732,89.959 L226.034,87.092 L224.242,84.284 L222.359,81.536 L220.386,78.851 L218.325,76.233 L216.179,73.685 L213.951,71.208 L211.642,68.807 L209.255,66.483 L206.792,64.239 L204.258,62.077 L201.653,60 L198.981,58.01 L196.244,56.11 L193.447,54.3 L190.592,52.584 L187.681,50.963 L184.719,49.439 L181.707,48.014 L178.651,46.688 L175.553,45.464 L172.415,44.343 L169.243,43.326 L166.039,42.414 L162.806,41.608 L159.548,40.91 L156.27,40.319 L152.973,39.837 L149.663,39.463 L146.342,39.199 L143.014,39.045 L139.683,39 L136.352,39.066 L133.025,39.241 L129.706,39.526 L126.398,39.92 L123.104,40.423 L119.829,41.035 L116.576,41.754 L113.349,42.58 L110.15,43.512 L106.984,44.549 L103.854,45.689 L100.763,46.933 L97.715,48.278 L94.713,49.722 L91.76,51.265 L88.86,52.904 L86.016,54.638 L83.23,56.465 L80.505,58.383 L77.846,60.389 L75.254,62.482 L72.733,64.66 L70.285,66.919 L67.912,69.258 L65.618,71.674 L63.405,74.165 L61.276,76.727 L59.232,79.358 L57.276,82.054 L55.41,84.814 L53.636,87.634 L51.956,90.511 L50.371,93.442 L48.884,96.423 L47.497,99.452 L46.21,102.525 L45.025,105.638 L43.944,108.788 Z" fill="#F44352"/><path d="M198.274,149.229 L197.955,151.055 L197.579,152.87 L197.146,154.673 L196.657,156.46 L196.112,158.232 L195.512,159.986 L194.857,161.719 L194.148,163.432 L193.385,165.121 L192.569,166.785 L191.702,168.423 L190.784,170.033 L189.815,171.614 L188.798,173.163 L187.732,174.679 L186.619,176.162 L185.46,177.608 L184.257,179.017 L183.009,180.388 L181.719,181.719 L180.388,183.009 L179.017,184.257 L177.608,185.46 L176.162,186.619 L174.679,187.732 L173.163,188.798 L171.614,189.815 L170.033,190.784 L168.423,191.702 L166.785,192.569 L165.121,193.385 L163.432,194.148 L161.719,194.857 L159.986,195.512 L158.232,196.112 L156.46,196.657 L154.673,197.146 L152.87,197.579 L151.055,197.955 L149.23,198.274 L147.395,198.535 L145.552,198.738 L143.705,198.884 L141.853,198.971 L140,199 L138.147,198.971 L136.295,198.884 L134.448,198.738 L132.605,198.535 L130.77,198.274 L128.945,197.955 L127.13,197.579 L125.327,197.146 L123.54,196.657 L121.768,196.112 L120.014,195.512 L118.281,194.857 L116.568,194.148 L114.879,193.385 L113.215,192.569 L111.577,191.702 L109.967,190.784 L108.386,189.815 L106.837,188.798 L105.321,187.732 L103.838,186.619 L102.392,185.46 L100.983,184.257 L99.612,183.009 L98.281,181.719 L96.991,180.388 L95.743,179.017 L94.54,177.608 L93.381,176.162 L92.268,174.679 L91.202,173.163 L90.185,171.614 L89.216,170.033 L88.298,168.423 L87.431,166.785 L86.615,165.121 L85.852,163.432 L85.143,161.719 L84.488,159.986 L83.888,158.232 L83.343,156.46 L82.854,154.673 L82.421,152.87 L82.045,151.055 L81.726,149.23 L81.465,147.395 L81.262,145.552 L81.116,143.705 L81.029,141.853 L81,140 L81.029,138.147 L81.116,136.295 L81.262,134.448 L81.465,132.605 L81.727,130.769 L69.874,128.894 L69.56,131.101 L69.315,133.318 L69.14,135.542 L69.035,137.77 L69,140 L69.035,142.23 L69.14,144.458 L69.315,146.682 L69.56,148.899 L69.874,151.107 L70.258,153.304 L70.71,155.488 L71.231,157.657 L71.819,159.808 L72.475,161.94 L73.197,164.05 L73.986,166.137 L74.839,168.198 L75.757,170.23 L76.739,172.233 L77.782,174.205 L78.887,176.142 L80.053,178.044 L81.277,179.908 L82.56,181.733 L83.899,183.516 L85.294,185.257 L86.742,186.953 L88.243,188.603 L89.795,190.205 L91.397,191.757 L93.047,193.258 L94.743,194.706 L96.484,196.101 L98.267,197.44 L100.092,198.723 L101.956,199.947 L103.858,201.113 L105.795,202.218 L107.767,203.261 L109.77,204.243 L111.802,205.161 L113.863,206.014 L115.95,206.803 L118.06,207.525 L120.192,208.181 L122.343,208.769 L124.512,209.29 L126.696,209.742 L128.893,210.126 L131.101,210.44 L133.318,210.685 L135.542,210.86 L137.77,210.965 L140,211 L142.23,210.965 L144.458,210.86 L146.682,210.685 L148.899,210.44 L151.107,210.126 L153.304,209.742 L155.488,209.29 L157.657,208.769 L159.808,208.181 L161.94,207.525 L164.05,206.803 L166.137,206.014 L168.198,205.161 L170.23,204.243 L172.233,203.261 L174.205,202.218 L176.142,201.113 L178.044,199.947 L179.908,198.723 L181.733,197.44 L183.516,196.101 L185.257,194.706 L186.953,193.258 L188.603,191.757 L190.205,190.205 L191.757,188.603 L193.258,186.953 L194.706,185.257 L196.101,183.516 L197.44,181.733 L198.723,179.908 L199.947,178.044 L201.113,176.142 L202.218,174.205 L203.261,172.233 L204.243,170.23 L205.161,168.198 L206.014,166.137 L206.803,164.05 L207.525,161.94 L208.181,159.808 L208.769,157.657 L209.29,155.488 L209.742,153.304 L210.126,151.108 Z" fill="#F44352"/><circle cx="130" cy="148" r="10" fill="#FF5E63"/></svg>