<svg xmlns="http://www.w3.org/2000/svg" viewBox="0 0 280 280"><rect width="280" height="280" fill="#0B0B0B"/><path d="M140.008,216 L138.181,215.914 L136.377,215.658 L134.606,215.234 L132.883,214.648 L131.221,213.906 L129.633,213.016 L128.132,211.989 L126.728,210.835 L125.429,209.566 L124.242,208.193 L123.172,206.728 L122.222,205.185 L121.395,203.575 L120.692,201.91 L120.111,200.2 L119.651,198.456 L119.309,196.688 L119.082,194.904 L118.966,193.112 L118.957,191.319 L119.048,189.531 L119.236,187.753 L119.516,185.989 L119.881,184.243 L120.327,182.519 L120.848,180.818 L121.441,179.141 L122.099,177.491 L122.818,175.868 L123.595,174.272 L124.424,172.703 L125.302,171.161 L126.226,169.645 L127.192,168.154 L128.196,166.687 L129.237,165.243 L130.311,163.819 L131.415,162.415 L132.548,161.029 L133.708,159.659 L134.891,158.303 L136.097,156.959 L137.324,155.624 L138.57,154.297 L139.833,152.975 L141.113,151.657 L142.407,150.339 L143.714,149.019 L145.034,147.695 L146.364,146.364 L147.704,145.024 L149.051,143.671 L150.406,142.304 L151.766,140.919 L153.129,139.514 L154.495,138.085 L155.861,136.63 L157.225,135.146 L158.586,133.629 L159.941,132.076 L161.288,130.484 L162.623,128.851 L163.944,127.172 L165.248,125.444 L166.53,123.664 L167.786,121.829 L169.012,119.936 L170.203,117.982 L171.353,115.963 L172.455,113.877 L173.503,111.723 L174.489,109.497 L175.406,107.198 L176.244,104.826 L176.994,102.38 L177.645,99.861 L178.187,97.27 L178.608,94.61 L178.896,91.886 L179.039,89.102 L179.023,86.265 L178.836,83.386 L178.466,80.475 L177.9,77.546 L177.126,74.613 L176.134,71.695 L174.916,68.812 L173.464,65.987 L171.776,63.243 L169.848,60.606 L167.685,58.105 L165.292,55.767 L162.68,53.62 L159.862,51.692 L156.86,50.01 L153.694,48.597 L150.394,47.474 L146.989,46.66 L143.513,46.166 L140,46 L136.487,46.166 L133.011,46.66 L129.606,47.474 L126.306,48.597 L123.14,50.01 L120.138,51.692 L117.32,53.62 L114.708,55.767 L112.315,58.105 L110.152,60.606 L108.224,63.243 L106.536,65.987 L105.084,68.812 L103.866,71.695 L102.874,74.613 L102.1,77.546 L101.534,80.475 L101.164,83.386 L100.977,86.265 L100.961,89.102 L101.104,91.886 L101.392,94.61 L101.813,97.27 L102.355,99.861 L103.006,102.38 L103.756,104.826 L104.594,107.198 L105.511,109.497 L106.497,111.723 L107.545,113.877 L108.647,115.963 L109.797,117.982 L110.988,119.936 L112.214,121.829 L113.47,123.664 L114.752,125.444 L116.056,127.172 L117.377,128.851 L118.712,130.484 L120.059,132.076 L121.414,133.629 L122.775,135.146 L124.139,136.63 L125.505,138.085 L126.871,139.514 L128.234,140.919 L129.594,142.304 L130.949,143.671 L132.296,145.024 L133.636,146.364 L134.966,147.695 L136.286,149.019 L137.593,150.339 L138.887,151.657 L140.167,152.975 L141.43,154.297 L142.676,155.624 L143.903,156.959 L145.109,158.303 L146.292,159.659 L147.452,161.029 L148.585,162.415 L149.689,163.819 L150.763,165.243 L151.804,166.687 L152.808,168.154 L153.774,169.645 L154.698,171.161 L155.576,172.703 L156.405,174.272 L157.182,175.868 L157.901,177.491 L158.559,179.141 L159.152,180.818 L159.673,182.519 L160.119,184.243 L160.484,185.989 L160.764,187.753 L160.952,189.531 L161.043,191.319 L161.034,193.112 L160.918,194.904 L160.691,196.688 L160.349,198.456 L159.889,200.2 L159.308,201.91 L158.605,203.575 L157.778,205.185 L156.828,206.728 L155.758,208.193 L154.571,209.566 L153.272,210.835 L151.868,211.989 L150.367,213.016 L148.779,213.906 L147.117,214.648 L145.394,215.234 L143.623,215.658 L141.819,215.914 L139.992,216 L140.008,234 L143.513,233.834 L146.989,233.34 L150.394,232.526 L153.694,231.403 L156.86,229.99 L159.862,228.308 L162.68,226.38 L165.292,224.233 L167.685,221.895 L169.848,219.394 L171.776,216.757 L173.464,214.013 L174.916,211.188 L176.134,208.305 L177.126,205.387 L177.9,202.454 L178.466,199.525 L178.836,196.614 L179.023,193.735 L179.039,190.898 L178.896,188.114 L178.608,185.39 L178.187,182.73 L177.645,180.139 L176.994,177.62 L176.244,175.174 L175.406,172.802 L174.489,170.503 L173.503,168.277 L172.455,166.123 L171.353,164.037 L170.203,162.018 L169.012,160.064 L167.786,158.171 L166.53,156.336 L165.248,154.556 L163.944,152.828 L162.623,151.149 L161.288,149.516 L159.941,147.924 L158.586,146.371 L157.225,144.854 L155.861,143.37 L154.495,141.915 L153.129,140.486 L151.766,139.081 L150.406,137.696 L149.051,136.329 L147.704,134.976 L146.364,133.636 L145.034,132.305 L143.714,130.981 L142.407,129.661 L141.113,128.343 L139.833,127.025 L138.57,125.703 L137.324,124.376 L136.097,123.041 L134.891,121.697 L133.708,120.341 L132.548,118.971 L131.415,117.585 L130.311,116.181 L129.237,114.757 L128.196,113.313 L127.192,111.846 L126.226,110.355 L125.302,108.839 L124.424,107.297 L123.595,105.728 L122.818,104.132 L122.099,102.509 L121.441,100.859 L120.848,99.182 L120.327,97.481 L119.881,95.757 L119.516,94.011 L119.236,92.247 L119.048,90.469 L118.957,88.681 L118.966,86.888 L119.082,85.096 L119.309,83.312 L119.651,81.544 L120.111,79.8 L120.692,78.09 L121.395,76.425 L122.222,74.815 L123.172,73.272 L124.242,71.807 L125.429,70.434 L126.728,69.165 L128.132,68.011 L129.633,66.984 L131.221,66.094 L132.883,65.352 L134.606,64.766 L136.377,64.342 L138.181,64.086 L140,64 L141.819,64.086 L143.623,64.342 L145.394,64.766 L147.117,65.352 L148.779,66.094 L150.367,66.984 L151.868,68.011 L153.272,69.165 L154.571,70.434 L155.758,71.807 L156.828,73.272 L157.778,74.815 L158.605,76.425 L159.308,78.09 L159.889,79.8 L160.349,81.544 L160.691,83.312 L160.918,85.096 L161.034,86.888 L161.043,88.681 L160.952,90.469 L160.764,92.247 L160.484,94.011 L160.119,95.757 L159.673,97.481 L159.152,99.182 L158.559,100.859 L157.901,102.509 L157.182,104.132 L156.405,105.728 L155.576,107.297 L154.698,108.839 L153.774,110.355 L152.808,111.846 L151.804,113.313 L150.763,114.757 L149.689,116.181 L148.585,117.585 L147.452,118.971 L146.292,120.341 L145.109,121.697 L143.903,123.041 L142.676,124.376 L141.43,125.703 L140.167,127.025 L138.887,128.343 L137.593,129.661 L136.286,130.981 L134.966,132.305 L133.636,133.636 L132.296,134.976 L130.949,136.329 L129.594,137.696 L128.234,139.081 L126.871,140.486 L125.505,141.915 L124.139,143.37 L122.775,144.854 L121.414,146.371 L120.059,147.924 L118.712,149.516 L117.377,151.149 L116.056,152.828 L114.752,154.556 L113.47,156.336 L112.214,158.171 L110.988,160.064 L109.797,162.018 L108.647,164.037 L107.545,166.123 L106.497,168.277 L105.511,170.503 L104.594,172.802 L103.756,175.174 L103.006,177.62 L102.355,180.139 L101.813,182.73 L101.392,185.39 L101.104,188.114 L100.961,190.898 L100.977,193.735 L101.164,196.614 L101.534,199.525 L102.1,202.454 L102.874,205.387 L103.866,208.305 L105.084,211.188 L106.536,214.013 L108.224,216.757 L110.152,219.394 L112.315,221.895 L114.708,224.233 L117.32,226.38 L120.138,228.308 L123.14,229.99 L126.306,231.403 L129.606,232.526 L133.011,233.34 L136.487,233.834 L139.992,234 Z" fill="#F44352"/><circle cx="140" cy="140" r="7" fill="#FF5E63"/></svg>