<svg xmlns="http://www.w3.org/2000/svg" viewBox="0 0 280 280"><rect width="280" height="280" fill="#0B0B0B"/><path d="M140.004,224 L137.64,223.637 L135.349,223.058 L133.148,222.274 L131.056,221.297 L129.087,220.144 L127.256,218.832 L125.574,217.378 L124.048,215.801 L122.683,214.119 L121.482,212.351 L120.446,210.514 L119.573,208.623 L118.86,206.696 L118.302,204.744 L117.893,202.781 L117.627,200.817 L117.497,198.862 L117.494,196.923 L117.611,195.008 L117.841,193.122 L118.174,191.268 L118.605,189.452 L119.125,187.673 L119.728,185.935 L120.407,184.239 L121.157,182.583 L121.971,180.969 L122.845,179.395 L123.773,177.86 L124.751,176.363 L125.775,174.902 L126.842,173.475 L127.949,172.08 L129.092,170.716 L130.269,169.378 L131.477,168.066 L132.714,166.777 L133.979,165.507 L135.27,164.255 L136.584,163.018 L137.922,161.792 L139.282,160.576 L140.662,159.366 L142.062,158.159 L143.481,156.954 L144.918,155.745 L146.371,154.532 L147.842,153.31 L149.328,152.077 L150.828,150.828 L152.343,149.562 L153.871,148.275 L155.412,146.962 L156.963,145.621 L158.524,144.249 L160.095,142.84 L161.672,141.392 L163.254,139.9 L164.841,138.36 L166.428,136.768 L168.014,135.12 L169.595,133.411 L171.169,131.637 L172.731,129.793 L174.277,127.875 L175.802,125.877 L177.3,123.795 L178.766,121.625 L180.192,119.362 L181.57,117.002 L182.892,114.541 L184.148,111.976 L185.327,109.304 L186.417,106.521 L187.406,103.628 L188.28,100.624 L189.024,97.509 L189.623,94.286 L190.058,90.96 L190.313,87.536 L190.369,84.024 L190.209,80.434 L189.813,76.781 L189.163,73.081 L188.242,69.355 L187.035,65.626 L185.527,61.923 L183.708,58.274 L181.57,54.714 L179.11,51.279 L176.329,48.006 L173.234,44.936 L169.839,42.108 L166.161,39.561 L162.228,37.332 L158.069,35.456 L153.723,33.964 L149.232,32.879 L144.641,32.221 L140,32 L135.359,32.221 L130.768,32.879 L126.277,33.964 L121.931,35.456 L117.772,37.332 L113.839,39.561 L110.161,42.108 L106.766,44.936 L103.671,48.006 L100.89,51.279 L98.43,54.714 L96.292,58.274 L94.473,61.923 L92.965,65.626 L91.758,69.355 L90.837,73.081 L90.187,76.781 L89.791,80.434 L89.631,84.024 L89.687,87.536 L89.942,90.96 L90.377,94.286 L90.976,97.509 L91.72,100.624 L92.594,103.628 L93.583,106.521 L94.673,109.304 L95.852,111.976 L97.108,114.541 L98.43,117.002 L99.808,119.362 L101.234,121.625 L102.7,123.795 L104.198,125.877 L105.723,127.875 L107.269,129.793 L108.831,131.637 L110.405,133.411 L111.986,135.12 L113.572,136.768 L115.159,138.36 L116.746,139.9 L118.328,141.392 L119.905,142.84 L121.476,144.249 L123.037,145.621 L124.588,146.962 L126.129,148.275 L127.657,149.562 L129.172,150.828 L130.672,152.077 L132.158,153.31 L133.629,154.532 L135.082,155.745 L136.519,156.954 L137.938,158.159 L139.338,159.366 L140.718,160.576 L142.078,161.792 L143.416,163.018 L144.73,164.255 L146.021,165.507 L147.286,166.777 L148.523,168.066 L149.731,169.378 L150.908,170.716 L152.051,172.08 L153.158,173.475 L154.225,174.902 L155.249,176.363 L156.227,177.86 L157.155,179.395 L158.029,180.969 L158.843,182.583 L159.593,184.239 L160.272,185.935 L160.875,187.673 L161.395,189.452 L161.826,191.268 L162.159,193.122 L162.389,195.008 L162.506,196.923 L162.503,198.862 L162.373,200.817 L162.107,202.781 L161.698,204.744 L161.14,206.696 L160.427,208.623 L159.554,210.514 L158.518,212.351 L157.317,214.119 L155.952,215.801 L154.426,217.378 L152.744,218.832 L150.913,220.144 L148.944,221.297 L146.852,222.274 L144.651,223.058 L142.36,223.637 L139.996,224 L140.004,232 L143.16,232.102 L146.335,231.905 L149.493,231.407 L152.602,230.614 L155.631,229.536 L158.553,228.186 L161.341,226.581 L163.973,224.741 L166.431,222.687 L168.699,220.444 L170.766,218.036 L172.624,215.488 L174.27,212.823 L175.701,210.066 L176.921,207.238 L177.932,204.361 L178.742,201.453 L179.357,198.531 L179.788,195.61 L180.043,192.704 L180.134,189.823 L180.072,186.978 L179.867,184.177 L179.531,181.425 L179.074,178.728 L178.508,176.09 L177.841,173.513 L177.084,170.999 L176.246,168.549 L175.336,166.163 L174.36,163.841 L173.328,161.581 L172.246,159.383 L171.119,157.244 L169.955,155.163 L168.759,153.137 L167.535,151.164 L166.288,149.242 L165.023,147.368 L163.744,145.539 L162.453,143.753 L161.155,142.007 L159.853,140.299 L158.549,138.625 L157.246,136.983 L155.947,135.371 L154.653,133.786 L153.367,132.226 L152.092,130.689 L150.828,129.172 L149.579,127.672 L148.346,126.189 L147.13,124.719 L145.934,123.262 L144.759,121.815 L143.608,120.376 L142.481,118.944 L141.381,117.517 L140.309,116.094 L139.269,114.675 L138.26,113.256 L137.286,111.839 L136.348,110.422 L135.449,109.003 L134.59,107.584 L133.774,106.163 L133.004,104.741 L132.28,103.318 L131.607,101.895 L130.985,100.471 L130.418,99.049 L129.908,97.63 L129.457,96.214 L129.067,94.805 L128.74,93.405 L128.478,92.015 L128.283,90.641 L128.156,89.284 L128.098,87.948 L128.11,86.638 L128.193,85.358 L128.346,84.112 L128.568,82.905 L128.858,81.741 L129.215,80.626 L129.635,79.563 L130.117,78.558 L130.657,77.614 L131.25,76.736 L131.893,75.926 L132.581,75.187 L133.309,74.522 L134.072,73.933 L134.865,73.421 L135.684,72.987 L136.523,72.632 L137.379,72.355 L138.246,72.158 L139.121,72.039 L140,72 L140.879,72.039 L141.754,72.158 L142.621,72.355 L143.477,72.632 L144.316,72.987 L145.135,73.421 L145.928,73.933 L146.691,74.522 L147.419,75.187 L148.107,75.926 L148.75,76.736 L149.343,77.614 L149.883,78.558 L150.365,79.563 L150.785,80.626 L151.142,81.741 L151.432,82.905 L151.654,84.112 L151.807,85.358 L151.89,86.638 L151.902,87.948 L151.844,89.284 L151.717,90.641 L151.522,92.015 L151.26,93.405 L150.933,94.805 L150.543,96.214 L150.092,97.63 L149.582,99.049 L149.015,100.471 L148.393,101.895 L147.72,103.318 L146.996,104.741 L146.226,106.163 L145.41,107.584 L144.551,109.003 L143.652,110.422 L142.714,111.839 L141.74,113.256 L140.731,114.675 L139.691,116.094 L138.619,117.517 L137.519,118.944 L136.392,120.376 L135.241,121.815 L134.066,123.262 L132.87,124.719 L131.654,126.189 L130.421,127.672 L129.172,129.172 L127.908,130.689 L126.633,132.226 L125.347,133.786 L124.053,135.371 L122.754,136.983 L121.451,138.625 L120.147,140.299 L118.845,142.007 L117.547,143.753 L116.256,145.539 L114.977,147.368 L113.712,149.242 L112.465,151.164 L111.241,153.137 L110.045,155.163 L108.881,157.244 L107.754,159.383 L106.672,161.581 L105.64,163.841 L104.664,166.163 L103.754,168.549 L102.916,170.999 L102.159,173.513 L101.492,176.09 L100.926,178.728 L100.469,181.425 L100.133,184.177 L99.928,186.978 L99.866,189.823 L99.957,192.704 L100.212,195.61 L100.643,198.531 L101.258,201.453 L102.068,204.361 L103.079,207.238 L104.299,210.066 L105.73,212.823 L107.376,215.488 L109.234,218.036 L111.301,220.444 L113.569,222.687 L116.027,224.741 L118.659,226.581 L121.447,228.186 L124.369,229.536 L127.398,230.614 L130.507,231.407 L133.665,231.905 L136.84,232.102 L139.996,232 Z" fill="#F44352"/><circle cx="140" cy="140" r="9" fill="#FF5E63"/></svg>