<svg xmlns="http://www.w3.org/2000/svg" viewBox="0 0 280 280"><rect width="280" height="280" fill="#0B0B0B"/><path d="M227.122,137.88 L177.665,93.111 L180.316,93.38 L182.945,93.802 L185.542,94.375 L188.1,95.095 L190.609,95.959 L193.063,96.965 L195.451,98.108 L197.768,99.385 L200.006,100.79 L202.157,102.318 L204.214,103.965 L206.172,105.724 L208.024,107.59 L209.765,109.555 L211.388,111.614 L212.89,113.759 L214.265,115.984 L215.509,118.28 L216.619,120.64 L217.592,123.056 L218.424,125.52 L219.114,128.024 L219.659,130.56 L220.058,133.119 L220.311,135.693 L220.417,138.273 L220.375,140.851 L220.187,143.42 L219.854,145.969 L219.377,148.492 L218.758,150.98 L218,153.425 L217.105,155.819 L216.077,158.155 L214.92,160.425 L213.637,162.622 L212.233,164.739 L210.714,166.77 L209.084,168.708 L207.349,170.548 L205.515,172.283 L203.589,173.908 L201.576,175.419 L199.484,176.811 L197.32,178.079 L195.091,179.22 L192.804,180.231 L190.467,181.109 L188.088,181.852 L185.675,182.456 L183.235,182.922 L180.777,183.248 L178.308,183.433 L175.837,183.477 L173.124,183.412 L170.285,183.338 L167.447,183.264 L164.608,183.19 L161.77,183.116 L158.931,183.041 L156.093,182.966 L153.254,182.891 L150.416,182.816 L147.577,182.741 L144.739,182.666 L141.9,182.59 L139.062,182.514 L136.223,182.438 L133.385,182.362 L130.546,182.286 L127.708,182.21 L124.869,182.133 L122.031,182.056 L119.192,181.979 L116.354,181.902 L113.515,181.825 L110.677,181.748 L107.838,181.67 L105.002,181.592 L102.644,181.448 L100.305,181.17 L97.99,180.76 L95.706,180.221 L93.461,179.553 L91.262,178.761 L89.115,177.846 L87.028,176.813 L85.007,175.665 L83.058,174.407 L81.187,173.042 L79.401,171.576 L77.704,170.014 L76.102,168.361 L74.599,166.623 L73.2,164.807 L71.91,162.917 L70.731,160.961 L69.668,158.944 L68.722,156.875 L67.898,154.76 L67.197,152.606 L66.62,150.419 L66.17,148.208 L65.847,145.979 L65.651,143.741 L65.583,141.499 L65.643,139.262 L65.83,137.036 L66.142,134.829 L66.578,132.648 L67.136,130.499 L67.814,128.391 L68.61,126.328 L69.519,124.319 L70.539,122.368 L71.666,120.483 L72.896,118.669 L74.224,116.931 L75.645,115.275 L77.156,113.706 L78.749,112.228 L80.421,110.847 L82.164,109.566 L83.974,108.388 L85.843,107.318 L87.766,106.358 L89.737,105.51 L91.748,104.778 L93.792,104.163 L95.864,103.666 L97.956,103.288 L100.062,103.031 L102.174,102.894 L104.285,102.877 L103.61,177.02 L101.52,176.797 L99.45,176.457 L97.408,176.001 L95.4,175.431 L93.432,174.749 L91.51,173.958 L89.641,173.061 L87.83,172.061 L86.083,170.963 L84.405,169.77 L82.801,168.486 L81.277,167.116 L79.836,165.666 L78.483,164.139 L77.223,162.542 L76.058,160.879 L74.992,159.157 L74.028,157.382 L73.169,155.559 L72.417,153.695 L71.773,151.795 L71.24,149.867 L70.818,147.916 L70.508,145.942 L40.947,151.055 L41.76,154.645 L42.775,158.185 L43.988,161.658 L45.395,165.052 L46.989,168.355 L48.767,171.559 L50.72,174.653 L52.843,177.627 L55.129,180.472 L57.568,183.179 L60.155,185.739 L62.878,188.146 L65.73,190.391 L68.701,192.468 L71.781,194.371 L74.959,196.093 L78.226,197.63 L81.571,198.978 L84.981,200.132 L88.448,201.089 L91.958,201.847 L95.501,202.404 L99.065,202.759 L102.638,202.91 L103.79,77.141 L100.232,77.395 L96.698,77.85 L93.201,78.503 L89.751,79.353 L86.36,80.396 L83.037,81.628 L79.794,83.044 L76.641,84.64 L73.588,86.41 L70.644,88.348 L67.819,90.447 L65.12,92.7 L62.558,95.099 L60.139,97.636 L57.871,100.303 L55.76,103.091 L53.814,105.99 L52.038,108.991 L50.437,112.083 L49.016,115.257 L47.779,118.502 L46.73,121.808 L45.871,125.163 L45.204,128.558 L44.732,131.98 L44.455,135.418 L44.374,138.862 L44.489,142.301 L44.798,145.723 L45.299,149.117 L45.992,152.473 L46.873,155.78 L47.938,159.027 L49.185,162.205 L50.607,165.302 L52.201,168.309 L53.961,171.218 L55.881,174.018 L57.953,176.701 L60.171,179.258 L62.528,181.683 L65.015,183.967 L67.624,186.103 L70.346,188.085 L73.173,189.907 L76.095,191.564 L79.101,193.05 L82.184,194.361 L85.331,195.494 L88.533,196.445 L91.78,197.212 L95.061,197.793 L98.365,198.186 L101.682,198.391 L104.998,198.408 L107.838,198.33 L110.677,198.252 L113.515,198.175 L116.354,198.098 L119.192,198.021 L122.031,197.944 L124.869,197.867 L127.708,197.79 L130.546,197.714 L133.385,197.638 L136.223,197.562 L139.062,197.486 L141.9,197.41 L144.739,197.334 L147.577,197.259 L150.416,197.184 L153.254,197.109 L156.093,197.034 L158.931,196.959 L161.77,196.884 L164.608,196.81 L167.447,196.736 L170.285,196.662 L173.124,196.588 L176.088,196.504 L179.286,196.278 L182.463,195.872 L185.607,195.287 L188.709,194.525 L191.759,193.59 L194.748,192.485 L197.665,191.214 L200.501,189.782 L203.248,188.193 L205.898,186.453 L208.441,184.568 L210.87,182.545 L213.178,180.389 L215.357,178.11 L217.4,175.713 L219.302,173.208 L221.057,170.602 L222.66,167.905 L224.105,165.124 L225.388,162.27 L226.506,159.351 L227.456,156.377 L228.235,153.358 L228.841,150.303 L229.272,147.222 L229.528,144.126 L229.607,141.025 L229.511,137.927 L229.24,134.844 L228.796,131.784 L228.179,128.759 L227.393,125.776 L226.441,122.847 L225.325,119.979 L224.051,117.183 L222.622,114.466 L221.043,111.838 L219.32,109.306 L217.459,106.879 L215.465,104.563 L213.347,102.366 L211.109,100.295 L208.761,98.356 L206.31,96.555 L203.764,94.896 L201.131,93.386 L198.419,92.029 L195.639,90.827 L192.798,89.786 L189.905,88.907 L186.971,88.193 L184.004,87.645 L181.013,87.264 L178.009,87.05 L222.878,142.12 Z" fill="#F44352"/><circle cx="55.728" cy="148.498" r="10" fill="#FF5E63"/></svg>