<svg xmlns="http://www.w3.org/2000/svg" viewBox="0 0 280 280"><rect width="280" height="280" fill="#0B0B0B"/><path d="M141.126,127.653 L141.996,127.172 L142.94,126.765 L143.949,126.433 L145.018,126.182 L146.138,126.018 L147.303,125.947 L148.505,125.973 L149.736,126.101 L150.987,126.335 L152.25,126.677 L153.514,127.131 L154.771,127.697 L156.012,128.377 L157.226,129.171 L158.403,130.078 L159.534,131.097 L160.609,132.225 L161.618,133.459 L162.552,134.795 L163.401,136.229 L164.156,137.755 L164.809,139.366 L165.352,141.056 L165.776,142.817 L166.076,144.64 L166.244,146.517 L166.275,148.437 L166.163,150.391 L165.904,152.367 L165.495,154.355 L164.933,156.344 L164.216,158.321 L163.343,160.274 L162.314,162.191 L161.131,164.061 L159.794,165.87 L158.308,167.606 L156.676,169.258 L154.902,170.813 L152.992,172.26 L150.954,173.587 L148.795,174.783 L146.522,175.839 L144.147,176.743 L141.678,177.488 L139.127,178.064 L136.505,178.464 L133.825,178.681 L131.1,178.709 L128.343,178.542 L125.568,178.177 L122.79,177.61 L120.024,176.84 L117.283,175.865 L114.585,174.686 L111.943,173.303 L109.373,171.72 L106.891,169.939 L104.511,167.965 L102.248,165.805 L100.117,163.465 L98.132,160.953 L96.306,158.278 L94.653,155.451 L93.185,152.483 L91.913,149.386 L90.848,146.174 L90,142.859 L89.378,139.458 L88.99,135.985 L88.842,132.457 L88.941,128.891 L89.291,125.304 L89.895,121.713 L90.755,118.138 L91.871,114.596 L93.244,111.106 L94.871,107.687 L96.749,104.356 L98.873,101.133 L101.237,98.036 L103.834,95.082 L106.654,92.289 L109.689,89.674 L112.926,87.253 L116.354,85.042 L119.958,83.056 L123.724,81.307 L127.635,79.81 L131.675,78.575 L135.827,77.614 L140.07,76.936 L144.387,76.548 L148.757,76.459 L153.158,76.673 L157.571,77.193 L161.973,78.024 L166.343,79.164 L170.658,80.615 L174.896,82.373 L179.036,84.435 L183.056,86.795 L186.934,89.447 L190.649,92.382 L194.18,95.59 L197.507,99.06 L200.611,102.778 L203.473,106.73 L206.076,110.9 L208.403,115.271 L210.44,119.825 L212.171,124.542 L213.584,129.402 L214.668,134.383 L215.412,139.462 L215.809,144.617 L215.851,149.823 L215.533,155.056 L214.852,160.29 L213.806,165.507 L241.189,171.352 L242.343,164.218 L243,157.068 L243.162,149.94 L242.835,142.871 L242.027,135.891 L240.75,129.035 L239.017,122.334 L236.842,115.816 L234.243,109.512 L231.239,103.448 L227.849,97.65 L224.097,92.143 L220.006,86.948 L215.6,82.086 L210.907,77.575 L205.953,73.433 L200.767,69.672 L195.377,66.306 L189.812,63.344 L184.104,60.795 L178.281,58.664 L172.374,56.955 L166.413,55.67 L160.429,54.807 L154.45,54.364 L148.507,54.336 L142.627,54.717 L136.838,55.497 L131.168,56.665 L125.642,58.21 L120.284,60.117 L115.118,62.371 L110.167,64.953 L105.45,67.846 L100.987,71.03 L96.795,74.484 L92.891,78.185 L89.288,82.111 L85.998,86.238 L83.032,90.542 L80.398,94.997 L78.104,99.58 L76.155,104.264 L74.552,109.024 L73.298,113.835 L72.392,118.672 L71.832,123.51 L71.613,128.324 L71.729,133.091 L72.173,137.787 L72.937,142.391 L74.008,146.881 L75.377,151.237 L77.028,155.438 L78.948,159.468 L81.121,163.31 L83.531,166.947 L86.159,170.366 L88.987,173.554 L91.996,176.5 L95.167,179.195 L98.479,181.629 L101.913,183.797 L105.446,185.693 L109.058,187.315 L112.729,188.66 L116.437,189.728 L120.163,190.52 L123.886,191.039 L127.587,191.289 L131.246,191.276 L134.845,191.006 L138.366,190.488 L141.793,189.731 L145.109,188.745 L148.3,187.543 L151.351,186.136 L154.25,184.537 L156.985,182.762 L159.547,180.824 L161.924,178.739 L164.111,176.524 L166.099,174.193 L167.885,171.765 L169.463,169.254 L170.832,166.679 L171.99,164.056 L172.936,161.401 L173.673,158.731 L174.203,156.062 L174.528,153.409 L174.655,150.788 L174.589,148.213 L174.337,145.699 L173.906,143.257 L173.307,140.9 L172.548,138.641 L171.639,136.489 L170.592,134.453 L169.419,132.544 L168.132,130.767 L166.743,129.13 L165.266,127.638 L163.712,126.295 L162.097,125.103 L160.433,124.066 L158.733,123.184 L157.012,122.457 L155.28,121.883 L153.553,121.46 L151.841,121.185 L150.156,121.053 L148.511,121.059 L146.915,121.197 L145.378,121.46 L143.91,121.841 L142.52,122.33 L141.213,122.918 L139.997,123.595 L138.874,124.347 Z" fill="#F44352"/><path d="M138.874,152.347 L138.004,152.828 L137.06,153.235 L136.051,153.567 L134.982,153.818 L133.862,153.982 L132.697,154.053 L131.495,154.027 L130.264,153.899 L129.013,153.665 L127.75,153.323 L126.486,152.869 L125.229,152.303 L123.988,151.623 L122.774,150.829 L121.597,149.922 L120.466,148.903 L119.391,147.775 L118.382,146.541 L117.448,145.205 L116.599,143.771 L115.844,142.245 L115.191,140.634 L114.648,138.944 L114.224,137.183 L113.924,135.36 L113.756,133.483 L113.725,131.563 L113.837,129.609 L114.096,127.633 L114.505,125.645 L115.067,123.656 L115.784,121.679 L116.657,119.726 L117.686,117.809 L118.869,115.939 L120.206,114.13 L121.692,112.394 L123.324,110.742 L125.098,109.187 L127.008,107.74 L129.046,106.413 L131.205,105.217 L133.478,104.161 L135.853,103.257 L138.322,102.512 L140.873,101.936 L143.495,101.536 L146.175,101.319 L148.9,101.291 L151.657,101.458 L154.432,101.823 L157.21,102.39 L159.976,103.16 L162.717,104.135 L165.415,105.314 L168.057,106.697 L170.627,108.28 L173.109,110.061 L175.489,112.035 L177.752,114.195 L179.883,116.535 L181.868,119.047 L183.694,121.722 L185.347,124.549 L186.815,127.517 L188.087,130.614 L189.152,133.826 L190,137.141 L190.622,140.542 L191.01,144.015 L191.158,147.543 L191.059,151.109 L190.709,154.696 L190.105,158.287 L189.245,161.862 L188.129,165.404 L186.756,168.894 L185.129,172.313 L183.251,175.644 L181.127,178.867 L178.763,181.964 L176.166,184.918 L173.346,187.711 L170.311,190.326 L167.074,192.747 L163.646,194.958 L160.042,196.944 L156.276,198.693 L152.365,200.19 L148.325,201.425 L144.173,202.386 L139.93,203.064 L135.613,203.452 L131.243,203.541 L126.842,203.327 L122.429,202.807 L118.027,201.976 L113.657,200.836 L109.342,199.385 L105.104,197.627 L100.964,195.565 L96.944,193.205 L93.066,190.553 L89.351,187.618 L85.82,184.41 L82.493,180.94 L79.389,177.222 L76.527,173.27 L73.924,169.1 L71.597,164.729 L69.56,160.175 L67.829,155.458 L66.416,150.598 L65.332,145.617 L64.588,140.538 L64.191,135.383 L64.149,130.177 L64.467,124.944 L65.148,119.71 L66.194,114.493 L38.811,108.648 L37.657,115.782 L37,122.932 L36.838,130.06 L37.165,137.129 L37.973,144.109 L39.25,150.965 L40.983,157.666 L43.158,164.184 L45.757,170.488 L48.761,176.552 L52.151,182.35 L55.903,187.857 L59.994,193.052 L64.4,197.914 L69.093,202.425 L74.047,206.567 L79.233,210.328 L84.623,213.694 L90.188,216.656 L95.896,219.205 L101.719,221.336 L107.626,223.045 L113.587,224.33 L119.571,225.193 L125.55,225.636 L131.493,225.664 L137.373,225.283 L143.162,224.503 L148.832,223.335 L154.358,221.79 L159.716,219.883 L164.882,217.629 L169.833,215.047 L174.55,212.154 L179.013,208.97 L183.205,205.516 L187.109,201.815 L190.712,197.889 L194.002,193.762 L196.968,189.458 L199.602,185.003 L201.896,180.42 L203.845,175.736 L205.448,170.976 L206.702,166.165 L207.608,161.328 L208.168,156.49 L208.387,151.676 L208.271,146.909 L207.827,142.213 L207.063,137.609 L205.992,133.119 L204.623,128.763 L202.972,124.562 L201.052,120.532 L198.879,116.69 L196.469,113.053 L193.841,109.634 L191.013,106.446 L188.004,103.5 L184.833,100.805 L181.521,98.371 L178.087,96.203 L174.554,94.307 L170.942,92.685 L167.271,91.34 L163.563,90.272 L159.837,89.48 L156.114,88.961 L152.413,88.711 L148.754,88.724 L145.155,88.994 L141.634,89.512 L138.207,90.269 L134.891,91.255 L131.7,92.457 L128.649,93.864 L125.75,95.463 L123.015,97.238 L120.453,99.176 L118.076,101.261 L115.889,103.476 L113.901,105.807 L112.115,108.235 L110.537,110.746 L109.168,113.321 L108.01,115.944 L107.064,118.599 L106.327,121.269 L105.797,123.938 L105.472,126.591 L105.345,129.212 L105.411,131.787 L105.663,134.301 L106.094,136.743 L106.693,139.1 L107.452,141.359 L108.361,143.511 L109.408,145.547 L110.581,147.456 L111.868,149.233 L113.257,150.87 L114.734,152.362 L116.288,153.705 L117.903,154.897 L119.567,155.934 L121.267,156.816 L122.988,157.543 L124.72,158.117 L126.447,158.54 L128.159,158.815 L129.844,158.947 L131.489,158.941 L133.085,158.803 L134.622,158.54 L136.09,158.159 L137.48,157.67 L138.787,157.082 L140.003,156.405 L141.126,155.653 Z" fill="#F44352"/><circle cx="227.497" cy="168.43" r="10" fill="#FF5E63"/><circle cx="52.503" cy="111.57" r="6" fill="#FF5E63"/></svg>