<svg xmlns="http://www.w3.org/2000/svg" viewBox="0 0 280 280"><rect width="280" height="280" fill="#0B0B0B"/><path d="M170.871,79.411 L172.045,80.387 L173.19,81.384 L174.307,82.403 L175.396,83.443 L176.455,84.502 L177.485,85.581 L178.485,86.678 L179.456,87.792 L180.396,88.924 L181.305,90.071 L182.184,91.233 L183.031,92.41 L183.847,93.6 L184.632,94.803 L185.386,96.018 L186.107,97.245 L186.797,98.481 L187.454,99.727 L188.08,100.982 L188.674,102.245 L189.235,103.515 L189.764,104.791 L190.261,106.073 L190.726,107.36 L191.158,108.65 L191.559,109.944 L191.927,111.24 L192.264,112.537 L192.569,113.836 L192.842,115.134 L193.083,116.432 L193.294,117.729 L193.473,119.023 L193.62,120.314 L193.738,121.601 L193.824,122.885 L193.881,124.163 L193.907,125.435 L193.903,126.7 L193.871,127.958 L193.809,129.209 L193.718,130.451 L193.599,131.683 L193.451,132.906 L193.276,134.118 L193.074,135.319 L192.845,136.509 L192.589,137.686 L192.307,138.85 L192,140 L191.668,141.136 L191.31,142.258 L190.929,143.365 L190.524,144.456 L190.096,145.531 L189.645,146.589 L189.172,147.63 L188.677,148.653 L188.161,149.658 L187.625,150.645 L187.068,151.613 L186.493,152.562 L185.898,153.491 L185.286,154.4 L184.655,155.289 L184.008,156.157 L183.344,157.004 L182.664,157.829 L181.97,158.633 L181.26,159.416 L180.537,160.176 L179.8,160.913 L179.051,161.628 L178.289,162.321 L177.516,162.99 L176.732,163.636 L175.939,164.259 L175.135,164.859 L174.323,165.435 L173.503,165.987 L172.675,166.516 L171.84,167.021 L170.998,167.502 L170.151,167.96 L169.3,168.393 L168.443,168.803 L167.583,169.189 L166.72,169.551 L165.854,169.889 L164.987,170.204 L164.118,170.495 L163.249,170.763 L162.38,171.007 L161.511,171.228 L160.643,171.426 L159.777,171.601 L158.914,171.754 L158.054,171.884 L157.197,171.991 L156.34,172.078 L187.218,232.663 L189.09,231.322 L190.928,229.942 L192.73,228.526 L194.494,227.073 L196.22,225.587 L197.907,224.066 L199.554,222.513 L201.161,220.928 L202.727,219.313 L204.252,217.668 L205.735,215.994 L207.176,214.293 L208.573,212.565 L209.928,210.812 L211.238,209.035 L212.504,207.234 L213.726,205.411 L214.902,203.567 L216.034,201.703 L217.119,199.82 L218.159,197.919 L219.152,196.001 L220.099,194.068 L221,192.121 L221.853,190.16 L222.66,188.187 L223.42,186.202 L224.132,184.208 L224.798,182.205 L225.416,180.194 L225.986,178.176 L226.51,176.152 L226.986,174.124 L227.415,172.093 L227.797,170.06 L228.132,168.025 L228.419,165.99 L228.661,163.956 L228.855,161.924 L229.004,159.895 L229.106,157.87 L229.162,155.85 L229.173,153.837 L229.138,151.83 L229.059,149.832 L228.935,147.843 L228.766,145.865 L228.554,143.897 L228.299,141.942 L228,140 L227.659,138.072 L227.276,136.159 L226.851,134.262 L226.385,132.382 L225.878,130.519 L225.332,128.675 L224.746,126.85 L224.121,125.046 L223.458,123.263 L222.758,121.501 L222.02,119.763 L221.247,118.048 L220.437,116.357 L219.593,114.69 L218.714,113.05 L217.802,111.436 L216.857,109.849 L215.881,108.29 L214.872,106.759 L213.834,105.256 L212.766,103.784 L211.668,102.341 L210.543,100.93 L209.39,99.549 L208.211,98.2 L207.006,96.883 L205.777,95.599 L204.523,94.349 L203.247,93.131 L201.948,91.948 L200.628,90.799 L199.288,89.685 L197.927,88.606 L196.549,87.562 L195.152,86.554 L193.739,85.582 L192.309,84.646 L190.865,83.746 L189.406,82.883 L187.934,82.057 L186.45,81.268 L184.954,80.516 L183.448,79.802 L181.933,79.124 L180.408,78.485 L178.876,77.882 L177.337,77.317 L175.792,76.79 L174.242,76.3 L172.688,75.848 Z" fill="#F44352"/><circle cx="171.779" cy="202.37" r="10" fill="#FF5E63"/></svg>