<svg xmlns="http://www.w3.org/2000/svg" viewBox="0 0 280 280"><rect width="280" height="280" fill="#0B0B0B"/><path d="M114.768,218.542 L112.534,217.988 L110.316,217.349 L108.116,216.638 L105.934,215.857 L103.774,215.009 L101.635,214.096 L99.521,213.118 L97.434,212.076 L95.374,210.973 L93.344,209.808 L91.346,208.583 L89.382,207.299 L87.452,205.957 L85.559,204.558 L83.705,203.103 L81.89,201.594 L80.117,200.031 L78.387,198.416 L76.702,196.751 L75.063,195.036 L73.472,193.272 L71.929,191.462 L70.437,189.607 L68.997,187.707 L67.609,185.766 L66.275,183.783 L64.997,181.761 L63.775,179.701 L62.611,177.605 L61.505,175.475 L60.459,173.312 L59.474,171.118 L58.55,168.894 L57.688,166.643 L56.889,164.367 L56.154,162.066 L55.484,159.743 L54.879,157.399 L54.34,155.037 L53.867,152.659 L36.497,157.377 L37.493,160.123 L38.56,162.827 L39.698,165.489 L40.904,168.105 L42.177,170.674 L43.516,173.195 L44.917,175.666 L46.38,178.085 L47.904,180.45 L49.485,182.762 L51.122,185.017 L52.814,187.215 L54.558,189.355 L56.353,191.435 L58.196,193.454 L60.085,195.412 L62.019,197.307 L63.996,199.139 L66.012,200.906 L68.068,202.607 L70.159,204.243 L72.285,205.813 L74.443,207.315 L76.631,208.75 L78.846,210.117 L81.088,211.415 L83.354,212.645 L85.641,213.806 L87.948,214.899 L90.272,215.922 L92.612,216.877 L94.965,217.763 L97.33,218.581 L99.704,219.331 L102.085,220.013 L104.472,220.629 L106.862,221.18 L109.254,221.667 L111.645,222.094 L114.031,222.473 Z" fill="#F44352" opacity="1"/><path d="M101.152,217.097 L99.505,216.365 L97.879,215.58 L96.271,214.753 L94.683,213.886 L93.114,212.982 L91.564,212.041 L90.035,211.064 L88.528,210.052 L87.042,209.006 L85.579,207.927 L84.138,206.815 L82.722,205.671 L81.331,204.496 L79.964,203.289 L78.624,202.053 L77.31,200.787 L76.023,199.492 L74.763,198.169 L73.532,196.819 L72.33,195.441 L71.158,194.038 L70.015,192.609 L68.903,191.155 L67.821,189.677 L66.772,188.175 L65.754,186.651 L64.769,185.105 L63.817,183.537 L62.899,181.949 L62.014,180.342 L61.163,178.715 L60.347,177.07 L59.567,175.407 L58.821,173.728 L58.112,172.032 L57.438,170.322 L56.801,168.597 L56.2,166.858 L55.637,165.107 L55.111,163.343 L40.213,169.178 L41.182,171.119 L42.188,173.033 L43.231,174.92 L44.308,176.777 L45.421,178.605 L46.567,180.403 L47.747,182.171 L48.958,183.907 L50.201,185.612 L51.475,187.284 L52.779,188.924 L54.112,190.531 L55.473,192.104 L56.862,193.643 L58.277,195.147 L59.718,196.616 L61.184,198.05 L62.673,199.448 L64.186,200.811 L65.722,202.137 L67.278,203.426 L68.856,204.678 L70.453,205.894 L72.068,207.072 L73.702,208.212 L75.353,209.315 L77.02,210.38 L78.702,211.408 L80.398,212.397 L82.108,213.348 L83.831,214.262 L85.565,215.137 L87.31,215.975 L89.065,216.776 L90.829,217.539 L92.601,218.266 L94.38,218.957 L96.165,219.614 L97.954,220.238 L99.743,220.84 Z" fill="#F44352" opacity="0.85"/><path d="M90.478,214.248 L89.361,213.548 L88.262,212.818 L87.177,212.066 L86.106,211.293 L85.048,210.501 L84.003,209.69 L82.972,208.862 L81.955,208.017 L80.951,207.155 L79.962,206.276 L78.986,205.382 L78.025,204.472 L77.079,203.547 L76.147,202.607 L75.23,201.652 L74.329,200.683 L73.442,199.7 L72.571,198.703 L71.716,197.693 L70.877,196.669 L70.054,195.633 L69.247,194.584 L68.456,193.523 L67.682,192.45 L66.925,191.365 L66.184,190.269 L65.461,189.161 L64.755,188.043 L64.066,186.914 L63.395,185.775 L62.741,184.626 L62.105,183.468 L61.487,182.3 L60.887,181.122 L60.306,179.937 L59.742,178.742 L59.197,177.539 L58.671,176.329 L58.163,175.111 L57.674,173.885 L45.265,180.366 L46.103,181.638 L46.958,182.894 L47.829,184.134 L48.716,185.358 L49.619,186.566 L50.536,187.758 L51.469,188.933 L52.416,190.091 L53.377,191.232 L54.353,192.357 L55.342,193.464 L56.345,194.554 L57.361,195.626 L58.389,196.681 L59.43,197.718 L60.484,198.737 L61.549,199.739 L62.626,200.722 L63.714,201.687 L64.813,202.634 L65.922,203.563 L67.042,204.473 L68.172,205.366 L69.311,206.239 L70.46,207.094 L71.618,207.931 L72.785,208.749 L73.96,209.549 L75.142,210.33 L76.333,211.093 L77.531,211.837 L78.736,212.563 L79.947,213.271 L81.165,213.962 L82.388,214.634 L83.617,215.289 L84.851,215.928 L86.089,216.551 L87.329,217.16 L88.568,217.763 Z" fill="#F44352" opacity="0.7"/><path d="M80.305,209.485 L79.702,208.966 L79.112,208.431 L78.529,207.888 L77.954,207.336 L77.385,206.776 L76.824,206.21 L76.268,205.638 L75.72,205.06 L75.177,204.475 L74.641,203.886 L74.111,203.29 L73.588,202.689 L73.07,202.083 L72.559,201.472 L72.055,200.856 L71.556,200.236 L71.064,199.61 L70.579,198.98 L70.099,198.345 L69.626,197.706 L69.16,197.063 L68.699,196.415 L68.246,195.763 L67.798,195.107 L67.358,194.447 L66.923,193.783 L66.496,193.116 L66.074,192.444 L65.66,191.769 L65.252,191.09 L64.85,190.408 L64.455,189.723 L64.067,189.033 L63.686,188.341 L63.311,187.646 L62.943,186.947 L62.582,186.245 L62.227,185.54 L61.879,184.833 L61.538,184.122 L51.562,190.792 L52.151,191.459 L52.745,192.121 L53.343,192.776 L53.946,193.425 L54.552,194.068 L55.164,194.705 L55.779,195.336 L56.398,195.96 L57.022,196.578 L57.649,197.19 L58.281,197.795 L58.916,198.394 L59.555,198.987 L60.198,199.574 L60.845,200.154 L61.495,200.729 L62.148,201.296 L62.806,201.858 L63.466,202.413 L64.13,202.962 L64.796,203.505 L65.466,204.041 L66.139,204.571 L66.815,205.095 L67.494,205.613 L68.176,206.125 L68.86,206.63 L69.547,207.13 L70.237,207.623 L70.928,208.111 L71.622,208.592 L72.319,209.068 L73.017,209.539 L73.717,210.004 L74.419,210.463 L75.122,210.918 L75.827,211.368 L76.531,211.815 L77.236,212.259 L77.935,212.707 Z" fill="#F44352" opacity="0.55"/><circle cx="236" cy="140" r="12" fill="#FF5E63"/></svg>