<svg xmlns="http://www.w3.org/2000/svg" viewBox="0 0 280 280"><rect width="280" height="280" fill="#0B0B0B"/><path d="M220.19,99.14 L222.219,176.606 L163.294,226.933 L87.099,212.812 L50.123,144.71 L79.778,73.117 L154.08,51.108 L155.642,41.231 L73.087,65.686 L40.137,145.234 L81.221,220.902 L165.882,236.593 L231.355,180.674 L229.101,94.602 Z" fill="#F44352" opacity="1"/><path d="M204.049,128.922 L188.915,182.805 L137.518,204.953 L87.96,178.947 L76.983,124.067 L112.724,81 L168.688,81.673 L173.099,72.699 L108.528,71.923 L67.288,121.616 L79.954,184.939 L137.136,214.945 L196.441,189.391 L213.903,127.221 Z" fill="#F44352" opacity="0.78"/><path d="M180.661,145.263 L161.497,174.912 L126.397,178.677 L101.381,153.769 L104.996,118.652 L134.562,99.362 L168.16,110.2 L175.026,102.93 L133.235,89.451 L96.458,113.446 L91.962,157.127 L123.079,188.111 L166.74,183.428 L190.578,146.55 Z" fill="#F44352" opacity="0.56"/><circle cx="140" cy="140" r="9" fill="#FF5E63"/></svg>