<svg xmlns="http://www.w3.org/2000/svg" viewBox="0 0 280 280"><rect width="280" height="280" fill="#0B0B0B"/><path d="M232,140 L231.818,145.777 L231.275,151.531 L230.37,157.239 L229.11,162.879 L227.497,168.43 L225.539,173.867 L223.244,179.172 L220.62,184.321 L217.678,189.296 L214.43,194.076 L210.887,198.643 L207.065,202.978 L202.978,207.065 L198.643,210.887 L194.076,214.43 L189.296,217.678 L184.321,220.62 L179.172,223.244 L173.867,225.539 L168.43,227.497 L162.879,229.11 L157.239,230.37 L151.531,231.275 L145.777,231.818 L140,232 L134.223,231.818 L128.469,231.275 L122.761,230.37 L117.121,229.11 L111.57,227.497 L106.133,225.539 L100.828,223.244 L95.679,220.62 L90.704,217.678 L85.924,214.43 L81.357,210.887 L77.022,207.065 L72.935,202.978 L69.113,198.643 L65.57,194.076 L62.322,189.296 L59.38,184.321 L56.756,179.172 L54.461,173.867 L52.503,168.43 L50.89,162.879 L49.63,157.239 L48.725,151.531 L48.182,145.777 L48,140 L48.182,134.223 L48.725,128.469 L49.63,122.761 L50.89,117.121 L52.503,111.57 L54.461,106.133 L56.756,100.828 L59.38,95.679 L62.322,90.704 L65.57,85.924 L69.113,81.357 L72.935,77.022 L77.022,72.935 L81.357,69.113 L85.924,65.57 L90.704,62.322 L95.679,59.38 L100.828,56.756 L106.133,54.461 L111.57,52.503 L117.121,50.89 L122.761,49.63 L128.469,48.725 L134.223,48.182 L140,48 L145.777,48.182 L151.531,48.725 L157.239,49.63 L162.879,50.89 L168.43,52.503 L173.867,54.461 L179.172,56.756 L184.321,59.38 L189.296,62.322 L194.076,65.57 L198.643,69.113 L202.978,72.935 L207.065,77.022 L210.887,81.357 L214.43,85.924 L217.678,90.704 L220.62,95.679 L223.244,100.828 L225.539,106.133 L227.497,111.57 L229.11,117.121 L230.37,122.761 L231.275,128.469 L231.818,134.223 L232,140 Z M248,126 L247.846,130.898 L247.385,135.776 L246.618,140.616 L245.549,145.398 L244.182,150.103 L242.523,154.714 L240.577,159.211 L238.352,163.577 L235.858,167.794 L233.103,171.847 L230.1,175.719 L226.86,179.395 L223.395,182.86 L219.719,186.1 L215.847,189.103 L211.794,191.858 L207.577,194.352 L203.211,196.577 L198.714,198.523 L194.103,200.182 L189.398,201.549 L184.616,202.618 L179.776,203.385 L174.898,203.846 L170,204 L165.102,203.846 L160.224,203.385 L155.384,202.618 L150.602,201.549 L145.897,200.182 L141.286,198.523 L136.789,196.577 L132.423,194.352 L128.206,191.858 L124.153,189.103 L120.281,186.1 L116.605,182.86 L113.14,179.395 L109.9,175.719 L106.897,171.847 L104.142,167.794 L101.648,163.577 L99.423,159.211 L97.477,154.714 L95.818,150.103 L94.451,145.398 L93.382,140.616 L92.615,135.776 L92.154,130.898 L92,126 L92.154,121.102 L92.615,116.224 L93.382,111.384 L94.451,106.602 L95.818,101.897 L97.477,97.286 L99.423,92.789 L101.648,88.423 L104.142,84.206 L106.897,80.153 L109.9,76.281 L113.14,72.605 L116.605,69.14 L120.281,65.9 L124.153,62.897 L128.206,60.142 L132.423,57.648 L136.789,55.423 L141.286,53.477 L145.897,51.818 L150.602,50.451 L155.384,49.382 L160.224,48.615 L165.102,48.154 L170,48 L174.898,48.154 L179.776,48.615 L184.616,49.382 L189.398,50.451 L194.103,51.818 L198.714,53.477 L203.211,55.423 L207.577,57.648 L211.794,60.142 L215.847,62.897 L219.719,65.9 L223.395,69.14 L226.86,72.605 L230.1,76.281 L233.103,80.153 L235.858,84.206 L238.352,88.423 L240.577,92.789 L242.523,97.286 L244.182,101.897 L245.549,106.602 L246.618,111.384 L247.385,116.224 L247.846,121.102 L248,126 Z" fill="#F44352" fill-rule="evenodd"/><circle cx="102" cy="160" r="11" fill="#FF5E63"/></svg>