<svg xmlns="http://www.w3.org/2000/svg" viewBox="0 0 280 280"><rect width="280" height="280" fill="#0B0B0B"/><path d="M84,60 L84.054,62.833 L84.12,65.667 L84.191,68.5 L84.266,71.333 L84.344,74.167 L84.425,77 L84.507,79.833 L84.591,82.667 L84.677,85.5 L84.764,88.333 L84.853,91.167 L84.943,94 L85.034,96.833 L85.125,99.667 L85.218,102.5 L85.312,105.333 L85.407,108.167 L85.503,111 L85.599,113.833 L85.696,116.667 L85.794,119.5 L85.893,122.333 L85.992,125.167 L86.092,128 L86.192,130.833 L86.293,133.667 L86.395,136.5 L86.498,139.333 L86.6,142.167 L86.704,145 L86.808,147.833 L86.912,150.667 L87.017,153.5 L87.122,156.333 L87.228,159.167 L87.334,162 L87.441,164.833 L87.548,167.667 L87.656,170.5 L87.764,173.333 L87.872,176.167 L87.981,179 L88.09,181.833 L88.2,184.667 L88.31,187.5 L88.42,190.333 L88.531,193.167 L88.642,196 L88.753,198.833 L88.865,201.667 L88.977,204.5 L89.09,207.333 L89.202,210.167 L89.315,213 L89.429,215.833 L89.542,218.667 L89.656,221.5 L89.771,224.333 L89.885,227.167 L90,230 L110,230 L110.115,227.167 L110.229,224.333 L110.344,221.5 L110.458,218.667 L110.571,215.833 L110.685,213 L110.798,210.167 L110.91,207.333 L111.023,204.5 L111.135,201.667 L111.247,198.833 L111.358,196 L111.469,193.167 L111.58,190.333 L111.69,187.5 L111.8,184.667 L111.91,181.833 L112.019,179 L112.128,176.167 L112.236,173.333 L112.344,170.5 L112.452,167.667 L112.559,164.833 L112.666,162 L112.772,159.167 L112.878,156.333 L112.983,153.5 L113.088,150.667 L113.192,147.833 L113.296,145 L113.4,142.167 L113.502,139.333 L113.605,136.5 L113.707,133.667 L113.808,130.833 L113.908,128 L114.008,125.167 L114.107,122.333 L114.206,119.5 L114.304,116.667 L114.401,113.833 L114.497,111 L114.593,108.167 L114.688,105.333 L114.782,102.5 L114.875,99.667 L114.966,96.833 L115.057,94 L115.147,91.167 L115.236,88.333 L115.323,85.5 L115.409,82.667 L115.493,79.833 L115.575,77 L115.656,74.167 L115.734,71.333 L115.809,68.5 L115.88,65.667 L115.946,62.833 L116,60 Z" fill="#F44352"/><path d="M148.196,101.343 L148.453,101.241 L148.734,101.161 L149.036,101.101 L149.358,101.062 L149.697,101.046 L150.051,101.055 L150.418,101.09 L150.796,101.153 L151.184,101.245 L151.578,101.368 L151.976,101.522 L152.376,101.709 L152.775,101.929 L153.171,102.183 L153.56,102.471 L153.94,102.793 L154.308,103.149 L154.662,103.539 L154.998,103.962 L155.314,104.417 L155.607,104.904 L155.874,105.421 L156.113,105.967 L156.321,106.541 L156.496,107.139 L156.635,107.761 L156.736,108.404 L156.797,109.066 L156.817,109.744 L156.793,110.436 L156.723,111.139 L156.608,111.849 L156.444,112.563 L156.232,113.279 L155.971,113.993 L155.66,114.702 L155.299,115.401 L154.887,116.088 L154.426,116.76 L153.915,117.411 L153.356,118.04 L152.749,118.642 L152.096,119.213 L151.397,119.751 L150.655,120.252 L149.872,120.713 L149.05,121.13 L148.192,121.501 L147.299,121.822 L146.376,122.091 L145.424,122.305 L144.448,122.462 L143.451,122.56 L142.437,122.596 L141.408,122.57 L140.371,122.478 L139.328,122.321 L138.283,122.097 L137.242,121.806 L136.208,121.446 L135.186,121.019 L134.18,120.524 L133.195,119.961 L132.236,119.331 L131.307,118.636 L130.412,117.877 L129.556,117.055 L128.743,116.173 L127.977,115.232 L127.263,114.235 L126.604,113.185 L126.005,112.086 L125.469,110.94 L124.999,109.751 L124.598,108.523 L124.27,107.261 L124.018,105.967 L123.843,104.648 L123.748,103.308 L123.735,101.952 L123.806,100.584 L123.962,99.21 L124.203,97.836 L124.531,96.466 L124.945,95.106 L125.447,93.763 L126.034,92.44 L126.707,91.144 L127.465,89.881 L128.305,88.655 L129.226,87.473 L130.227,86.339 L131.303,85.259 L132.453,84.238 L133.673,83.282 L134.959,82.394 L136.309,81.579 L137.716,80.842 L139.178,80.186 L140.688,79.616 L142.243,79.136 L143.837,78.747 L145.464,78.454 L147.118,78.259 L148.794,78.164 L150.485,78.172 L152.186,78.282 L153.889,78.498 L155.589,78.819 L157.278,79.245 L158.951,79.778 L160.599,80.415 L162.218,81.157 L163.8,82.001 L165.339,82.947 L166.828,83.991 L168.26,85.132 L169.63,86.366 L170.932,87.69 L172.163,89.104 L194.266,68.82 L191.619,66.255 L188.836,63.87 L185.931,61.674 L182.919,59.675 L179.812,57.875 L176.624,56.281 L173.366,54.894 L170.054,53.718 L166.7,52.753 L163.318,52.002 L159.921,51.462 L156.522,51.135 L153.135,51.017 L149.771,51.106 L146.445,51.399 L143.167,51.892 L139.951,52.58 L136.807,53.457 L133.746,54.517 L130.779,55.754 L127.916,57.159 L125.166,58.725 L122.539,60.444 L120.042,62.306 L117.684,64.302 L115.47,66.422 L113.409,68.656 L111.504,70.994 L109.762,73.424 L108.185,75.935 L106.779,78.518 L105.545,81.159 L104.485,83.849 L103.6,86.575 L102.892,89.327 L102.36,92.093 L102.003,94.862 L101.82,97.624 L101.807,100.366 L101.963,103.08 L102.284,105.754 L102.765,108.379 L103.402,110.945 L104.19,113.443 L105.122,115.865 L106.192,118.202 L107.394,120.446 L108.721,122.591 L110.163,124.628 L111.715,126.554 L113.367,128.36 L115.11,130.044 L116.937,131.599 L118.837,133.023 L120.803,134.312 L122.824,135.464 L124.891,136.477 L126.995,137.348 L129.127,138.079 L131.277,138.668 L133.436,139.116 L135.595,139.424 L137.744,139.595 L139.877,139.629 L141.983,139.53 L144.055,139.301 L146.084,138.945 L148.064,138.468 L149.987,137.874 L151.846,137.168 L153.635,136.355 L155.348,135.441 L156.978,134.433 L158.522,133.337 L159.975,132.16 L161.332,130.909 L162.59,129.59 L163.746,128.212 L164.797,126.781 L165.742,125.305 L166.578,123.793 L167.305,122.25 L167.923,120.686 L168.431,119.107 L168.83,117.521 L169.12,115.935 L169.305,114.357 L169.384,112.793 L169.362,111.25 L169.24,109.734 L169.023,108.253 L168.712,106.811 L168.314,105.415 L167.831,104.069 L167.269,102.779 L166.633,101.549 L165.927,100.384 L165.157,99.286 L164.329,98.261 L163.449,97.309 L162.521,96.435 L161.553,95.64 L160.55,94.925 L159.519,94.292 L158.466,93.742 L157.396,93.275 L156.315,92.89 L155.231,92.588 L154.148,92.367 L153.072,92.226 L152.009,92.164 L150.964,92.178 L149.942,92.265 L148.948,92.423 L147.987,92.649 L147.063,92.94 L146.18,93.29 L145.341,93.698 L144.548,94.156 L143.804,94.657 Z" fill="#F44352"/><circle cx="146" cy="106" r="5" fill="#FF5E63"/></svg>