<svg xmlns="http://www.w3.org/2000/svg" viewBox="0 0 280 280"><rect width="280" height="280" fill="#0B0B0B"/><path d="M237.5,139.999 L237.455,141.585 L237.319,143.169 L237.092,144.752 L236.775,146.334 L236.366,147.912 L235.867,149.487 L235.276,151.057 L234.593,152.62 L233.819,154.177 L232.953,155.724 L231.996,157.261 L230.949,158.786 L229.811,160.297 L228.583,161.793 L227.267,163.27 L225.863,164.729 L224.372,166.167 L222.795,167.581 L221.135,168.971 L219.393,170.335 L217.569,171.671 L215.667,172.976 L213.688,174.251 L211.633,175.493 L209.506,176.7 L207.307,177.872 L205.04,179.007 L202.707,180.103 L200.31,181.159 L197.851,182.174 L195.333,183.148 L192.759,184.078 L190.131,184.963 L187.452,185.804 L184.724,186.598 L181.952,187.345 L179.136,188.044 L176.281,188.695 L173.388,189.296 L170.462,189.847 L167.505,190.347 L164.519,190.797 L161.509,191.194 L158.477,191.539 L155.426,191.832 L152.36,192.072 L149.281,192.259 L146.193,192.393 L143.098,192.473 L140,192.5 L136.902,192.473 L133.807,192.393 L130.719,192.259 L127.64,192.072 L124.574,191.832 L121.523,191.539 L118.491,191.194 L115.481,190.797 L112.495,190.347 L109.538,189.847 L106.612,189.296 L103.719,188.695 L100.864,188.044 L98.048,187.345 L95.276,186.598 L92.548,185.804 L89.869,184.963 L87.241,184.078 L84.667,183.148 L82.149,182.174 L79.69,181.159 L77.293,180.103 L74.96,179.007 L72.693,177.872 L70.494,176.7 L68.367,175.493 L66.312,174.251 L64.333,172.976 L62.431,171.671 L60.607,170.335 L58.865,168.971 L57.205,167.581 L55.628,166.167 L54.137,164.729 L52.733,163.27 L51.417,161.793 L50.189,160.297 L49.051,158.786 L48.004,157.261 L47.047,155.724 L46.181,154.177 L45.407,152.62 L44.724,151.057 L44.133,149.487 L43.634,147.912 L43.225,146.334 L42.908,144.752 L42.681,143.169 L42.545,141.585 L42.5,140 L42.545,138.415 L42.681,136.831 L42.908,135.248 L43.225,133.666 L43.634,132.088 L44.133,130.513 L44.724,128.943 L45.407,127.38 L46.181,125.823 L47.047,124.276 L48.004,122.739 L49.051,121.214 L50.189,119.703 L51.417,118.207 L52.733,116.73 L54.137,115.271 L55.628,113.833 L57.205,112.419 L58.865,111.029 L60.607,109.665 L62.431,108.329 L64.333,107.024 L66.312,105.749 L68.367,104.507 L70.494,103.3 L72.693,102.128 L74.96,100.993 L77.293,99.897 L79.69,98.841 L82.149,97.826 L84.667,96.852 L87.241,95.922 L89.869,95.037 L92.548,94.196 L95.276,93.402 L98.048,92.655 L100.864,91.956 L103.719,91.305 L106.612,90.704 L109.538,90.153 L112.495,89.653 L115.481,89.203 L118.491,88.806 L121.523,88.461 L124.574,88.168 L127.64,87.928 L130.719,87.741 L133.807,87.607 L136.902,87.527 L140,87.5 L143.098,87.527 L146.193,87.607 L149.281,87.741 L152.36,87.928 L155.426,88.168 L158.477,88.461 L161.509,88.806 L164.519,89.203 L167.505,89.653 L170.462,90.153 L173.388,90.704 L176.281,91.305 L179.136,91.956 L181.952,92.655 L184.724,93.402 L187.452,94.196 L190.131,95.037 L192.759,95.922 L195.333,96.852 L197.851,97.826 L200.31,98.841 L202.707,99.897 L205.04,100.993 L207.307,102.128 L209.506,103.3 L211.633,104.507 L213.688,105.749 L215.667,107.024 L217.569,108.329 L219.393,109.665 L221.135,111.029 L222.795,112.419 L224.372,113.833 L225.863,115.271 L227.267,116.73 L228.583,118.207 L229.811,119.703 L230.949,121.214 L231.996,122.739 L232.953,124.276 L233.819,125.823 L234.593,127.38 L235.276,128.943 L235.867,130.513 L236.366,132.088 L236.775,133.666 L237.092,135.248 L237.319,136.831 L237.455,138.415 L237.5,140.001 L242.5,139.999 L242.447,138.13 L242.286,136.262 L242.02,134.401 L241.648,132.547 L241.171,130.704 L240.591,128.875 L239.908,127.061 L239.124,125.265 L238.24,123.488 L237.258,121.732 L236.18,120 L235.007,118.293 L233.74,116.611 L232.382,114.957 L230.935,113.332 L229.399,111.736 L227.777,110.172 L226.07,108.64 L224.281,107.142 L222.411,105.679 L220.462,104.251 L218.435,102.86 L216.334,101.507 L214.16,100.193 L211.915,98.919 L209.602,97.685 L207.222,96.494 L204.778,95.346 L202.272,94.242 L199.706,93.183 L197.084,92.169 L194.407,91.202 L191.677,90.282 L188.899,89.41 L186.074,88.587 L183.204,87.814 L180.294,87.091 L177.344,86.42 L174.359,85.799 L171.341,85.231 L168.294,84.715 L165.219,84.252 L162.119,83.843 L158.999,83.488 L155.86,83.187 L152.707,82.94 L149.541,82.747 L146.366,82.61 L143.184,82.528 L140,82.5 L136.816,82.528 L133.634,82.61 L130.459,82.747 L127.293,82.94 L124.14,83.187 L121.001,83.488 L117.881,83.843 L114.781,84.252 L111.706,84.715 L108.659,85.231 L105.641,85.799 L102.656,86.42 L99.706,87.091 L96.796,87.814 L93.926,88.587 L91.101,89.41 L88.323,90.282 L85.593,91.202 L82.916,92.169 L80.294,93.183 L77.728,94.242 L75.222,95.346 L72.778,96.494 L70.398,97.685 L68.085,98.919 L65.84,100.193 L63.666,101.507 L61.565,102.86 L59.538,104.251 L57.589,105.679 L55.719,107.142 L53.93,108.64 L52.223,110.172 L50.601,111.736 L49.065,113.332 L47.618,114.957 L46.26,116.611 L44.993,118.293 L43.82,120 L42.742,121.732 L41.76,123.488 L40.876,125.265 L40.092,127.061 L39.409,128.875 L38.829,130.704 L38.352,132.547 L37.98,134.401 L37.714,136.262 L37.553,138.13 L37.5,140 L37.553,141.87 L37.714,143.738 L37.98,145.599 L38.352,147.453 L38.829,149.296 L39.409,151.125 L40.092,152.939 L40.876,154.735 L41.76,156.512 L42.742,158.268 L43.82,160 L44.993,161.707 L46.26,163.389 L47.618,165.043 L49.065,166.668 L50.601,168.264 L52.223,169.828 L53.93,171.36 L55.719,172.858 L57.589,174.321 L59.538,175.749 L61.565,177.14 L63.666,178.493 L65.84,179.807 L68.085,181.081 L70.398,182.315 L72.778,183.506 L75.222,184.654 L77.728,185.758 L80.294,186.817 L82.916,187.831 L85.593,188.798 L88.323,189.718 L91.101,190.59 L93.926,191.413 L96.796,192.186 L99.706,192.909 L102.656,193.58 L105.641,194.201 L108.659,194.769 L111.706,195.285 L114.781,195.748 L117.881,196.157 L121.001,196.512 L124.14,196.813 L127.293,197.06 L130.459,197.253 L133.634,197.39 L136.816,197.472 L140,197.5 L143.184,197.472 L146.366,197.39 L149.541,197.253 L152.707,197.06 L155.86,196.813 L158.999,196.512 L162.119,196.157 L165.219,195.748 L168.294,195.285 L171.341,194.769 L174.359,194.201 L177.344,193.58 L180.294,192.909 L183.204,192.186 L186.074,191.413 L188.899,190.59 L191.677,189.718 L194.407,188.798 L197.084,187.831 L199.706,186.817 L202.272,185.758 L204.778,184.654 L207.222,183.506 L209.602,182.315 L211.915,181.081 L214.16,179.807 L216.334,178.493 L218.435,177.14 L220.462,175.749 L222.411,174.321 L224.281,172.858 L226.07,171.36 L227.777,169.828 L229.399,168.264 L230.935,166.668 L232.382,165.043 L233.74,163.389 L235.007,161.707 L236.18,160 L237.258,158.268 L238.24,156.512 L239.124,154.735 L239.908,152.939 L240.591,151.125 L241.171,149.296 L241.648,147.453 L242.02,145.599 L242.286,143.738 L242.447,141.87 L242.5,140.001 Z" fill="#F44352" opacity="0.35"/><path d="M158.529,87.963 L160.751,88.302 L162.956,88.688 L165.145,89.11 L167.315,89.566 L169.467,90.053 L171.598,90.572 L173.708,91.12 L175.795,91.697 L177.858,92.302 L179.895,92.935 L181.906,93.595 L183.889,94.281 L185.842,94.993 L187.766,95.73 L189.657,96.492 L191.516,97.278 L193.341,98.087 L195.131,98.918 L196.884,99.771 L198.6,100.645 L200.278,101.54 L201.915,102.454 L203.511,103.386 L205.066,104.337 L206.577,105.304 L208.044,106.287 L209.465,107.286 L210.841,108.298 L212.169,109.323 L213.449,110.36 L214.68,111.407 L215.861,112.464 L216.992,113.529 L218.071,114.6 L219.097,115.677 L220.071,116.757 L220.992,117.84 L221.859,118.924 L222.671,120.007 L223.429,121.088 L224.133,122.165 L224.782,123.236 L225.377,124.3 L225.918,125.355 L226.405,126.399 L226.838,127.431 L227.22,128.449 L227.55,129.451 L227.829,130.438 L228.06,131.406 L228.242,132.356 L228.379,133.285 L228.47,134.195 L228.519,135.084 L228.526,135.953 L228.494,136.801 L228.424,137.629 L228.317,138.437 L228.175,139.227 L228,140.002 L252,139.998 L251.772,138.239 L251.471,136.496 L251.099,134.775 L250.658,133.077 L250.148,131.404 L249.573,129.759 L248.935,128.142 L248.234,126.555 L247.474,125 L246.656,123.475 L245.783,121.983 L244.856,120.524 L243.877,119.097 L242.849,117.702 L241.772,116.34 L240.648,115.01 L239.479,113.711 L238.266,112.444 L237.01,111.208 L235.713,110.002 L234.375,108.826 L232.998,107.68 L231.582,106.562 L230.128,105.473 L228.637,104.413 L227.11,103.38 L225.547,102.376 L223.95,101.398 L222.318,100.447 L220.653,99.524 L218.956,98.627 L217.226,97.756 L215.465,96.912 L213.674,96.094 L211.852,95.302 L210.001,94.537 L208.122,93.797 L206.214,93.084 L204.28,92.397 L202.319,91.737 L200.333,91.102 L198.323,90.494 L196.288,89.911 L194.231,89.356 L192.151,88.826 L190.05,88.323 L187.929,87.847 L185.788,87.396 L183.629,86.973 L181.452,86.575 L179.259,86.204 L177.051,85.859 L174.827,85.54 L172.591,85.247 L170.341,84.98 L168.081,84.738 L165.81,84.52 L163.529,84.325 L161.241,84.15 L158.947,83.985 Z" fill="#F44352"/><circle cx="240" cy="140" r="11" fill="#FF5E63"/></svg>