<svg xmlns="http://www.w3.org/2000/svg" viewBox="0 0 280 280"><rect width="280" height="280" fill="#0B0B0B"/><path d="M192.348,131.221 L188.629,136.46 L184.388,141.286 L179.67,145.647 L174.526,149.497 L169.012,152.793 L163.185,155.502 L157.11,157.592 L150.851,159.043 L144.476,159.838 L138.053,159.969 L131.65,159.435 L125.337,158.241 L119.182,156.4 L113.25,153.932 L107.605,150.864 L102.308,147.227 L97.416,143.062 L92.982,138.414 L89.052,133.331 L85.669,127.869 L82.87,122.086 L80.684,116.044 L79.135,109.809 L78.24,103.447 L78.008,97.026 L78.441,90.616 L79.536,84.285 L81.28,78.101 L83.654,72.132 L86.634,66.439 L90.187,61.086 L94.274,56.129 L98.853,51.622 L103.873,47.613 L109.282,44.145 L115.02,41.255 L121.026,38.975 L127.237,37.328 L133.584,36.333 L140,36 L146.416,36.333 L152.763,37.328 L158.974,38.975 L164.98,41.255 L170.718,44.145 L176.127,47.613 L181.147,51.622 L185.726,56.129 L189.813,61.086 L193.366,66.439 L196.346,72.132 L198.72,78.101 L200.464,84.285 L201.559,90.616 L201.992,97.026 L201.76,103.447 L200.865,109.809 L199.316,116.044 L197.13,122.086 L194.331,127.869 L190.948,133.331 L187.018,138.414 L182.584,143.062 L177.692,147.227 L172.395,150.864 L166.75,153.932 L160.818,156.4 L154.663,158.241 L148.35,159.435 L141.947,159.969 L135.524,159.838 L129.149,159.043 L122.89,157.592 L116.815,155.502 L110.988,152.793 L105.474,149.497 L100.33,145.647 L95.612,141.286 L91.371,136.46 L87.652,131.221 L140,236 Z M162,92 L161.879,94.3 L161.519,96.574 L160.923,98.798 L160.098,100.948 L159.053,103 L157.798,104.931 L156.349,106.721 L154.721,108.349 L152.931,109.798 L151,111.053 L148.948,112.098 L146.798,112.923 L144.574,113.519 L142.3,113.879 L140,114 L137.7,113.879 L135.426,113.519 L133.202,112.923 L131.052,112.098 L129,111.053 L127.069,109.798 L125.279,108.349 L123.651,106.721 L122.202,104.931 L120.947,103 L119.902,100.948 L119.077,98.798 L118.481,96.574 L118.121,94.3 L118,92 L118.121,89.7 L118.481,87.426 L119.077,85.202 L119.902,83.052 L120.947,81 L122.202,79.069 L123.651,77.279 L125.279,75.651 L127.069,74.202 L129,72.947 L131.052,71.902 L133.202,71.077 L135.426,70.481 L137.7,70.121 L140,70 L142.3,70.121 L144.574,70.481 L146.798,71.077 L148.948,71.902 L151,72.947 L152.931,74.202 L154.721,75.651 L156.349,77.279 L157.798,79.069 L159.053,81 L160.098,83.052 L160.923,85.202 L161.519,87.426 L161.879,89.7 L162,92 Z" fill="#F44352" fill-rule="evenodd"/><path d="M133.728,247.546 L134.298,247.145 L134.869,246.872 L135.412,246.711 L135.909,246.646 L136.348,246.658 L136.721,246.731 L137.023,246.846 L137.25,246.987 L137.405,247.14 L137.491,247.288 L137.511,247.419 L137.472,247.52 L137.384,247.582 L137.254,247.595 L137.095,247.552 L136.915,247.449 L136.729,247.281 L136.546,247.047 L136.38,246.747 L136.242,246.382 L136.143,245.956 L136.095,245.475 L136.107,244.944 L136.189,244.372 L136.349,243.768 L136.594,243.142 L136.929,242.506 L137.359,241.872 L137.885,241.253 L138.509,240.662 L139.23,240.113 L140.044,239.618 L140.948,239.192 L141.936,238.847 L143,238.595 L144.13,238.448 L145.316,238.417 L146.546,238.51 L147.805,238.736 L149.081,239.101 L150.356,239.611 L151.615,240.267 L152.841,241.073 L154.017,242.026 L155.125,243.125 L156.148,244.364 L157.069,245.738 L157.871,247.238 L158.54,248.853 L159.059,250.57 L159.415,252.377 L159.597,254.257 L159.593,256.192 L159.394,258.164 L158.995,260.154 L158.388,262.14 L157.573,264.1 L156.549,266.014 L155.316,267.857 L153.88,269.609 L156.685,272.46 L158.587,270.599 L160.289,268.579 L161.776,266.422 L163.04,264.152 L164.071,261.789 L164.863,259.358 L165.413,256.883 L165.72,254.388 L165.783,251.895 L165.608,249.43 L165.199,247.013 L164.563,244.667 L163.712,242.414 L162.655,240.273 L161.406,238.262 L159.981,236.398 L158.396,234.697 L156.669,233.172 L154.818,231.835 L152.863,230.696 L150.825,229.761 L148.726,229.037 L146.585,228.527 L144.425,228.233 L142.267,228.153 L140.132,228.285 L138.04,228.624 L136.012,229.163 L134.066,229.894 L132.22,230.806 L130.492,231.887 L128.895,233.124 L127.445,234.501 L126.153,236.003 L125.03,237.612 L124.086,239.31 L123.326,241.079 L122.757,242.899 L122.382,244.751 L122.201,246.614 L122.215,248.469 L122.421,250.296 L122.815,252.076 L123.39,253.79 L124.139,255.42 L125.053,256.948 L126.12,258.358 L127.327,259.633 L128.66,260.76 L130.105,261.725 L131.643,262.515 L133.257,263.121 L134.928,263.532 L136.635,263.739 L138.355,263.737 L140.066,263.52 L141.742,263.084 L143.357,262.427 L144.88,261.55 L146.272,260.454 Z" fill="#F44352" opacity="0.7"/></svg>