<svg xmlns="http://www.w3.org/2000/svg" viewBox="0 0 280 280"><rect width="280" height="280" fill="#0B0B0B"/><path d="M123.512,151.789 L122.906,151.331 L122.317,150.842 L121.742,150.323 L121.183,149.775 L120.64,149.199 L120.115,148.596 L119.609,147.965 L119.124,147.308 L118.66,146.626 L118.218,145.919 L117.801,145.188 L117.408,144.435 L117.042,143.658 L116.703,142.861 L116.392,142.044 L116.11,141.207 L115.859,140.352 L115.638,139.48 L115.45,138.592 L115.295,137.69 L115.174,136.774 L115.087,135.846 L115.035,134.908 L115.019,133.96 L115.04,133.004 L115.098,132.041 L115.193,131.074 L115.326,130.102 L115.498,129.129 L115.708,128.155 L115.958,127.182 L116.246,126.211 L116.574,125.245 L116.942,124.284 L117.348,123.33 L117.795,122.386 L118.28,121.452 L118.804,120.53 L119.367,119.621 L119.969,118.729 L120.609,117.853 L121.286,116.996 L122.001,116.159 L122.752,115.343 L123.539,114.552 L124.361,113.785 L125.217,113.044 L126.107,112.331 L127.03,111.648 L127.984,110.996 L128.969,110.375 L129.984,109.789 L131.026,109.237 L132.096,108.722 L133.192,108.244 L134.313,107.805 L135.456,107.405 L136.621,107.047 L137.807,106.731 L139.011,106.457 L140.233,106.228 L141.47,106.043 L142.721,105.905 L143.984,105.812 L145.257,105.767 L146.539,105.77 L147.828,105.821 L149.122,105.921 L150.419,106.07 L151.717,106.269 L153.015,106.518 L154.309,106.817 L155.6,107.167 L156.884,107.567 L158.159,108.017 L159.424,108.517 L160.676,109.068 L161.914,109.668 L163.136,110.318 L164.339,111.017 L165.522,111.764 L166.682,112.56 L167.818,113.403 L168.928,114.293 L170.01,115.229 L171.062,116.209 L172.082,117.234 L173.068,118.302 L174.019,119.412 L174.933,120.562 L175.808,121.752 L176.642,122.98 L177.433,124.245 L178.181,125.546 L178.884,126.88 L179.54,128.246 L180.147,129.643 L180.705,131.069 L181.212,132.522 L181.667,134 L182.069,135.502 L182.416,137.025 L182.707,138.567 L182.942,140.127 L183.12,141.702 L183.24,143.29 L183.301,144.89 L183.302,146.498 L183.243,148.113 L183.124,149.732 L182.944,151.353 L182.702,152.975 L182.4,154.593 L182.035,156.207 L181.609,157.813 L181.121,159.41 L180.572,160.995 L179.961,162.566 L179.29,164.12 L178.558,165.655 L177.766,167.168 L176.914,168.658 L176.004,170.121 L175.036,171.556 L174.011,172.961 L172.929,174.332 L171.793,175.668 L170.602,176.967 L169.359,178.226 L168.065,179.443 L166.72,180.617 L165.327,181.745 L163.887,182.825 L162.402,183.855 L160.873,184.833 L159.303,185.758 L157.692,186.628 L156.044,187.441 L154.359,188.196 L152.641,188.89 L150.891,189.523 L149.111,190.093 L147.304,190.599 L145.473,191.039 L143.619,191.413 L141.745,191.719 L139.853,191.956 L137.946,192.124 L136.027,192.222 L134.097,192.248 L132.161,192.203 L130.22,192.086 L128.277,191.896 L126.335,191.634 L124.396,191.299 L122.464,190.89 L120.54,190.409 L118.629,189.855 L116.732,189.228 L114.853,188.528 L112.994,187.757 L111.157,186.914 L109.347,186.001 L107.564,185.017 L105.813,183.965 L104.096,182.844 L102.415,181.657 L100.773,180.403 L99.172,179.085 L97.616,177.703 L96.107,176.26 L94.646,174.757 L93.237,173.195 L91.882,171.576 L90.583,169.902 L89.342,168.175 L88.162,166.398 L87.044,164.571 L85.991,162.698 L85.004,160.781 L84.086,158.821 L83.237,156.823 L82.46,154.787 L81.757,152.716 L81.128,150.614 L80.575,148.483 L80.1,146.326 L79.704,144.145 L79.387,141.944 L79.151,139.724 L78.996,137.491 L78.924,135.245 L78.935,132.991 L79.029,130.731 L79.207,128.469 L79.469,126.207 L79.816,123.949 L80.247,121.699 L80.763,119.458 L81.362,117.231 L82.046,115.02 L82.814,112.828 L83.664,110.66 L84.597,108.517 L85.612,106.404 L86.707,104.323 L87.882,102.277 L89.135,100.27 L90.466,98.304 L91.873,96.382 L93.355,94.508 L94.909,92.684 L96.535,90.913 L98.23,89.197 L99.993,87.541 L101.821,85.945 L103.713,84.414 L105.666,82.948 L107.677,81.551 L109.745,80.226 L111.867,78.974 L114.04,77.797 L116.262,76.698 L118.53,75.678 L120.84,74.74 L123.191,73.885 L125.578,73.115 L127.999,72.431 L130.452,71.836 L132.931,71.33 L135.436,70.914 L137.961,70.589 L140.503,70.358 L143.06,70.22 L145.628,70.176 L148.203,70.226 L150.782,70.372 L153.362,70.614 L155.937,70.951 L158.514,71.386 L164.064,37.842 L160.248,37.337 L156.419,36.972 L152.592,36.751 L148.77,36.67 L144.959,36.731 L141.164,36.932 L137.391,37.272 L133.644,37.749 L129.928,38.363 L126.249,39.111 L122.611,39.991 L119.02,41.002 L115.478,42.142 L111.992,43.408 L108.566,44.797 L105.204,46.308 L101.91,47.936 L98.689,49.679 L95.544,51.535 L92.479,53.499 L89.498,55.569 L86.605,57.74 L83.803,60.01 L81.095,62.374 L78.485,64.829 L75.976,67.37 L73.569,69.994 L71.269,72.697 L69.077,75.474 L66.996,78.32 L65.028,81.233 L63.175,84.206 L61.438,87.236 L59.821,90.318 L58.323,93.447 L56.946,96.619 L55.692,99.83 L54.561,103.073 L53.554,106.346 L52.672,109.642 L51.915,112.958 L51.283,116.289 L50.776,119.629 L50.395,122.974 L50.138,126.32 L50.006,129.662 L49.997,132.995 L50.112,136.315 L50.348,139.617 L50.705,142.896 L51.182,146.149 L51.777,149.371 L52.488,152.558 L53.313,155.705 L54.251,158.809 L55.3,161.865 L56.457,164.87 L57.72,167.819 L59.087,170.709 L60.554,173.537 L62.12,176.299 L63.781,178.991 L65.534,181.61 L67.376,184.154 L69.304,186.618 L71.315,189.001 L73.405,191.3 L75.571,193.511 L77.809,195.633 L80.116,197.663 L82.488,199.599 L84.921,201.439 L87.411,203.181 L89.954,204.823 L92.547,206.364 L95.186,207.803 L97.866,209.138 L100.583,210.368 L103.333,211.492 L106.113,212.509 L108.918,213.42 L111.744,214.222 L114.587,214.917 L117.442,215.503 L120.306,215.981 L123.175,216.351 L126.045,216.613 L128.91,216.768 L131.769,216.817 L134.616,216.759 L137.448,216.597 L140.26,216.33 L143.05,215.961 L145.813,215.49 L148.546,214.919 L151.244,214.25 L153.906,213.485 L156.526,212.624 L159.102,211.671 L161.63,210.627 L164.108,209.494 L166.532,208.275 L168.899,206.972 L171.206,205.588 L173.451,204.125 L175.631,202.586 L177.744,200.974 L179.786,199.291 L181.756,197.542 L183.651,195.727 L185.47,193.852 L187.211,191.919 L188.871,189.93 L190.449,187.89 L191.944,185.802 L193.353,183.669 L194.677,181.494 L195.913,179.282 L197.061,177.035 L198.12,174.756 L199.089,172.45 L199.967,170.12 L200.754,167.77 L201.451,165.402 L202.055,163.021 L202.568,160.63 L202.99,158.232 L203.321,155.831 L203.56,153.431 L203.71,151.034 L203.769,148.645 L203.74,146.266 L203.622,143.901 L203.417,141.553 L203.126,139.225 L202.75,136.921 L202.29,134.643 L201.748,132.395 L201.126,130.179 L200.425,127.998 L199.646,125.856 L198.792,123.754 L197.865,121.696 L196.866,119.684 L195.798,117.72 L194.663,115.807 L193.463,113.947 L192.2,112.142 L190.878,110.395 L189.498,108.707 L188.063,107.079 L186.576,105.515 L185.039,104.015 L183.455,102.581 L181.827,101.215 L180.158,99.917 L178.45,98.689 L176.706,97.533 L174.929,96.448 L173.123,95.435 L171.289,94.497 L169.432,93.632 L167.553,92.842 L165.657,92.127 L163.745,91.487 L161.821,90.922 L159.887,90.433 L157.947,90.019 L156.004,89.68 L154.06,89.416 L152.119,89.227 L150.182,89.111 L148.254,89.068 L146.336,89.098 L144.431,89.199 L142.543,89.372 L140.673,89.613 L138.824,89.924 L136.998,90.301 L135.199,90.745 L133.428,91.253 L131.688,91.824 L129.98,92.457 L128.308,93.15 L126.673,93.901 L125.077,94.708 L123.522,95.57 L122.01,96.485 L120.543,97.45 L119.122,98.463 L117.749,99.524 L116.425,100.628 L115.152,101.775 L113.931,102.962 L112.764,104.186 L111.65,105.446 L110.592,106.739 L109.59,108.063 L108.646,109.415 L107.759,110.793 L106.931,112.194 L106.161,113.617 L105.451,115.059 L104.801,116.516 L104.21,117.988 L103.68,119.471 L103.209,120.963 L102.799,122.462 L102.448,123.966 L102.157,125.471 L101.926,126.976 L101.753,128.478 L101.639,129.975 L101.582,131.465 L101.582,132.946 L101.639,134.415 L101.751,135.87 L101.917,137.31 L102.137,138.732 L102.41,140.135 L102.733,141.516 L103.107,142.873 L103.529,144.206 L103.999,145.511 L104.515,146.788 L105.075,148.035 L105.678,149.25 L106.323,150.432 L107.007,151.58 L107.73,152.692 L108.489,153.768 L109.282,154.805 L110.109,155.803 L110.966,156.761 L111.853,157.679 L112.767,158.555 L113.707,159.389 L114.67,160.18 L115.654,160.929 L116.653,161.636 L117.226,161.989 L117.835,162.275 L118.472,162.492 L119.129,162.636 L119.798,162.706 L120.471,162.7 L121.139,162.619 L121.794,162.463 L122.427,162.236 L123.031,161.938 L123.597,161.575 L124.12,161.151 L124.591,160.672 L125.006,160.142 L125.359,159.569 L125.646,158.96 L125.863,158.323 L126.007,157.666 L126.076,156.997 L126.07,156.324 L125.989,155.656 L125.834,155.001 L125.606,154.368 L125.309,153.765 L124.946,153.198 L124.522,152.676 L124.042,152.204 Z" fill="#F44352"/><circle cx="161.289" cy="54.614" r="27" fill="none" stroke="#FF5E63" stroke-width="3.5" opacity="0.4"/><circle cx="161.289" cy="54.614" r="20" fill="#FF5E63"/></svg>