<svg xmlns="http://www.w3.org/2000/svg" viewBox="0 0 280 280"><rect width="280" height="280" fill="#0B0B0B"/><path d="M119.04,150.122 L118.499,149.522 L117.982,148.895 L117.483,148.242 L117.006,147.565 L116.549,146.864 L116.115,146.139 L115.704,145.393 L115.317,144.625 L114.955,143.836 L114.619,143.028 L114.309,142.201 L114.028,141.356 L113.775,140.494 L113.551,139.616 L113.357,138.724 L113.194,137.818 L113.062,136.899 L112.963,135.968 L112.896,135.027 L112.863,134.077 L112.863,133.118 L112.898,132.153 L112.968,131.182 L113.073,130.207 L113.214,129.229 L113.39,128.25 L113.603,127.27 L113.852,126.29 L114.138,125.314 L114.46,124.341 L114.819,123.373 L115.215,122.411 L115.647,121.458 L116.116,120.513 L116.622,119.58 L117.164,118.658 L117.742,117.75 L118.355,116.857 L119.004,115.98 L119.688,115.12 L120.407,114.28 L121.159,113.46 L121.945,112.662 L122.764,111.887 L123.614,111.136 L124.497,110.411 L125.409,109.713 L126.352,109.043 L127.324,108.402 L128.323,107.792 L129.35,107.214 L130.402,106.669 L131.48,106.158 L132.581,105.682 L133.705,105.242 L134.85,104.839 L136.016,104.474 L137.201,104.148 L138.403,103.862 L139.621,103.617 L140.855,103.413 L142.102,103.252 L143.361,103.133 L144.63,103.058 L145.908,103.027 L147.194,103.04 L148.486,103.099 L149.782,103.203 L151.081,103.352 L152.381,103.548 L153.68,103.791 L154.977,104.08 L156.27,104.415 L157.558,104.797 L158.838,105.227 L160.109,105.702 L161.369,106.225 L162.617,106.793 L163.851,107.408 L165.069,108.069 L166.27,108.775 L167.451,109.526 L168.612,110.321 L169.75,111.161 L170.863,112.044 L171.951,112.969 L173.011,113.937 L174.042,114.945 L175.043,115.994 L176.011,117.082 L176.946,118.208 L177.845,119.372 L178.708,120.572 L179.532,121.806 L180.317,123.075 L181.062,124.376 L181.764,125.708 L182.422,127.07 L183.036,128.46 L183.604,129.878 L184.126,131.32 L184.599,132.787 L185.023,134.276 L185.397,135.785 L185.721,137.313 L185.992,138.859 L186.211,140.42 L186.377,141.994 L186.489,143.58 L186.546,145.176 L186.548,146.78 L186.495,148.391 L186.385,150.005 L186.22,151.622 L185.997,153.238 L185.718,154.853 L185.382,156.465 L184.989,158.07 L184.538,159.668 L184.031,161.256 L183.467,162.832 L182.847,164.394 L182.17,165.941 L181.438,167.469 L180.649,168.977 L179.806,170.464 L178.909,171.926 L177.958,173.363 L176.954,174.771 L175.898,176.15 L174.791,177.496 L173.633,178.809 L172.426,180.087 L171.171,181.327 L169.869,182.528 L168.521,183.687 L167.129,184.805 L165.693,185.877 L164.216,186.904 L162.698,187.883 L161.142,188.812 L159.548,189.691 L157.92,190.518 L156.257,191.291 L154.562,192.009 L152.838,192.671 L151.085,193.276 L149.305,193.822 L147.501,194.308 L145.675,194.734 L143.829,195.098 L141.964,195.399 L140.084,195.637 L138.189,195.811 L136.282,195.92 L134.367,195.963 L132.443,195.941 L130.515,195.852 L128.584,195.697 L126.653,195.474 L124.724,195.185 L122.799,194.828 L120.881,194.404 L118.972,193.912 L117.074,193.353 L115.19,192.727 L113.323,192.035 L111.473,191.276 L109.645,190.451 L107.84,189.561 L106.06,188.606 L104.309,187.588 L102.587,186.506 L100.898,185.362 L99.244,184.156 L97.627,182.891 L96.048,181.566 L94.511,180.183 L93.018,178.744 L91.57,177.249 L90.169,175.701 L88.818,174.1 L87.519,172.448 L86.273,170.747 L85.082,168.999 L83.948,167.205 L82.873,165.368 L81.858,163.489 L80.905,161.57 L80.016,159.613 L79.192,157.621 L78.434,155.595 L77.744,153.538 L77.122,151.452 L76.571,149.339 L76.092,147.202 L75.684,145.043 L75.35,142.865 L75.089,140.67 L74.904,138.46 L74.794,136.238 L74.76,134.008 L74.803,131.77 L74.922,129.529 L75.119,127.286 L75.394,125.045 L75.746,122.807 L76.176,120.576 L76.683,118.355 L77.268,116.146 L77.931,113.952 L78.67,111.775 L79.486,109.618 L80.377,107.485 L81.345,105.377 L82.386,103.297 L83.502,101.249 L84.691,99.234 L85.951,97.255 L87.282,95.314 L88.683,93.416 L90.153,91.56 L91.689,89.752 L93.291,87.991 L94.957,86.282 L96.686,84.626 L98.475,83.026 L100.323,81.484 L102.228,80.001 L104.188,78.581 L106.201,77.225 L108.265,75.935 L110.378,74.713 L112.538,73.561 L114.741,72.48 L116.987,71.473 L119.272,70.541 L121.593,69.685 L123.949,68.906 L126.345,68.205 L115.4,31.816 L111.817,33.022 L108.281,34.349 L104.803,35.792 L101.386,37.349 L98.033,39.018 L94.75,40.796 L91.539,42.68 L88.403,44.667 L85.347,46.754 L82.372,48.939 L79.482,51.217 L76.681,53.587 L73.971,56.044 L71.354,58.585 L68.833,61.206 L66.411,63.905 L64.09,66.676 L61.872,69.518 L59.759,72.425 L57.753,75.394 L55.856,78.42 L54.069,81.501 L52.395,84.632 L50.833,87.809 L49.386,91.028 L48.054,94.285 L46.839,97.575 L45.74,100.895 L44.759,104.241 L43.897,107.608 L43.152,110.991 L42.527,114.388 L42.02,117.794 L41.631,121.205 L41.361,124.616 L41.208,128.024 L41.173,131.424 L41.254,134.813 L41.451,138.186 L41.763,141.54 L42.188,144.871 L42.726,148.174 L43.375,151.447 L44.134,154.684 L45.001,157.884 L45.973,161.042 L47.051,164.154 L48.231,167.217 L49.511,170.228 L50.89,173.184 L52.364,176.081 L53.932,178.916 L55.591,181.687 L57.339,184.39 L59.172,187.022 L61.089,189.581 L63.085,192.065 L65.159,194.47 L67.307,196.795 L69.527,199.037 L71.814,201.194 L74.167,203.264 L76.58,205.245 L79.052,207.135 L81.58,208.933 L84.158,210.637 L86.785,212.246 L89.456,213.758 L92.168,215.172 L94.917,216.488 L97.701,217.704 L100.515,218.819 L103.355,219.833 L106.219,220.746 L109.102,221.557 L112.001,222.265 L114.913,222.871 L117.833,223.374 L120.758,223.776 L123.685,224.075 L126.609,224.272 L129.528,224.368 L132.439,224.363 L135.336,224.259 L138.218,224.056 L141.08,223.754 L143.92,223.355 L146.734,222.861 L149.519,222.272 L152.272,221.59 L154.989,220.816 L157.668,219.952 L160.306,219 L162.9,217.962 L165.446,216.839 L167.943,215.633 L170.387,214.347 L172.776,212.982 L175.108,211.542 L177.38,210.027 L179.59,208.441 L181.735,206.787 L183.814,205.066 L185.824,203.281 L187.763,201.435 L189.631,199.531 L191.424,197.571 L193.142,195.558 L194.783,193.496 L196.345,191.386 L197.828,189.233 L199.229,187.038 L200.549,184.805 L201.785,182.537 L202.938,180.237 L204.006,177.909 L204.989,175.554 L205.886,173.176 L206.697,170.779 L207.421,168.366 L208.059,165.939 L208.61,163.501 L209.075,161.056 L209.453,158.607 L209.745,156.156 L209.951,153.708 L210.072,151.264 L210.107,148.828 L210.059,146.402 L209.927,143.99 L209.713,141.595 L209.416,139.219 L209.04,136.864 L208.584,134.535 L208.05,132.233 L207.439,129.96 L206.753,127.721 L205.993,125.516 L205.16,123.348 L204.257,121.221 L203.285,119.135 L202.246,117.094 L201.142,115.099 L199.975,113.152 L198.746,111.256 L197.458,109.413 L196.113,107.623 L194.713,105.889 L193.261,104.213 L191.758,102.596 L190.208,101.039 L188.611,99.544 L186.972,98.113 L185.291,96.746 L183.573,95.444 L181.818,94.209 L180.03,93.041 L178.212,91.942 L176.365,90.912 L174.493,89.951 L172.598,89.06 L170.682,88.24 L168.748,87.491 L166.8,86.814 L164.838,86.207 L162.867,85.672 L160.888,85.209 L158.904,84.817 L156.918,84.495 L154.932,84.245 L152.949,84.065 L150.971,83.955 L149,83.915 L147.039,83.943 L145.091,84.039 L143.158,84.202 L141.241,84.431 L139.344,84.726 L137.468,85.085 L135.616,85.508 L133.79,85.992 L131.991,86.537 L130.222,87.141 L128.485,87.803 L126.782,88.522 L125.114,89.296 L123.483,90.123 L121.891,91.002 L120.339,91.931 L118.83,92.908 L117.364,93.932 L115.943,95.001 L114.568,96.113 L113.241,97.266 L111.962,98.457 L110.733,99.686 L109.555,100.95 L108.429,102.247 L107.356,103.576 L106.335,104.933 L105.369,106.317 L104.458,107.726 L103.602,109.157 L102.802,110.609 L102.058,112.079 L101.371,113.566 L100.74,115.067 L100.166,116.58 L99.649,118.103 L99.189,119.634 L98.787,121.17 L98.44,122.71 L98.151,124.252 L97.917,125.793 L97.739,127.332 L97.617,128.867 L97.549,130.395 L97.536,131.914 L97.576,133.424 L97.67,134.921 L97.815,136.404 L98.011,137.872 L98.258,139.322 L98.554,140.753 L98.899,142.163 L99.291,143.551 L99.728,144.915 L100.211,146.253 L100.737,147.565 L101.306,148.848 L101.915,150.102 L102.565,151.325 L103.252,152.516 L103.976,153.674 L104.736,154.798 L105.529,155.886 L106.354,156.939 L107.209,157.956 L108.092,158.936 L108.999,159.878 L109.576,160.409 L110.21,160.873 L110.891,161.262 L111.612,161.573 L112.363,161.801 L113.135,161.944 L113.918,161.999 L114.703,161.967 L115.478,161.846 L116.236,161.64 L116.965,161.35 L117.658,160.98 L118.304,160.535 L118.897,160.021 L119.429,159.443 L119.892,158.809 L120.282,158.128 L120.592,157.407 L120.821,156.656 L120.963,155.884 L121.019,155.101 L120.986,154.317 L120.865,153.541 L120.659,152.784 L120.369,152.054 L119.999,151.362 L119.554,150.715 Z" fill="#F44352"/><circle cx="120.872" cy="50.01" r="31" fill="none" stroke="#FF5E63" stroke-width="4" opacity="0.4"/><circle cx="120.872" cy="50.01" r="24" fill="#FF5E63"/></svg>