<svg xmlns="http://www.w3.org/2000/svg" viewBox="0 0 280 280"><rect width="280" height="280" fill="#0B0B0B"/><path d="M116.558,146.465 L116.132,145.777 L115.731,145.068 L115.354,144.337 L115.001,143.586 L114.672,142.816 L114.367,142.028 L114.089,141.222 L113.836,140.4 L113.611,139.562 L113.414,138.709 L113.244,137.843 L113.104,136.965 L112.994,136.074 L112.914,135.173 L112.864,134.263 L112.846,133.344 L112.86,132.418 L112.906,131.485 L112.984,130.547 L113.095,129.606 L113.24,128.661 L113.418,127.715 L113.631,126.769 L113.877,125.824 L114.157,124.88 L114.472,123.94 L114.82,123.004 L115.204,122.075 L115.621,121.152 L116.073,120.238 L116.56,119.333 L117.08,118.439 L117.634,117.558 L118.221,116.689 L118.842,115.836 L119.496,114.998 L120.182,114.178 L120.9,113.376 L121.65,112.594 L122.431,111.832 L123.242,111.093 L124.083,110.377 L124.954,109.685 L125.853,109.019 L126.779,108.38 L127.733,107.768 L128.713,107.186 L129.717,106.633 L130.746,106.111 L131.799,105.622 L132.873,105.165 L133.969,104.742 L135.085,104.354 L136.221,104.001 L137.374,103.685 L138.543,103.407 L139.728,103.166 L140.928,102.964 L142.14,102.802 L143.364,102.68 L144.599,102.598 L145.842,102.558 L147.093,102.559 L148.35,102.602 L149.612,102.688 L150.877,102.817 L152.144,102.989 L153.411,103.204 L154.677,103.463 L155.94,103.766 L157.2,104.113 L158.453,104.503 L159.699,104.938 L160.936,105.416 L162.163,105.939 L163.378,106.504 L164.58,107.113 L165.766,107.766 L166.936,108.461 L168.088,109.198 L169.221,109.977 L170.332,110.797 L171.42,111.659 L172.485,112.56 L173.524,113.501 L174.536,114.481 L175.519,115.499 L176.472,116.555 L177.394,117.646 L178.284,118.773 L179.139,119.935 L179.96,121.13 L180.743,122.357 L181.489,123.615 L182.196,124.904 L182.863,126.221 L183.488,127.566 L184.071,128.938 L184.61,130.334 L185.105,131.754 L185.554,133.195 L185.958,134.658 L186.313,136.14 L186.621,137.639 L186.88,139.154 L187.089,140.684 L187.249,142.227 L187.357,143.78 L187.414,145.344 L187.419,146.914 L187.371,148.491 L187.271,150.073 L187.118,151.656 L186.912,153.241 L186.652,154.824 L186.338,156.405 L185.971,157.98 L185.549,159.55 L185.074,161.11 L184.546,162.661 L183.964,164.199 L183.328,165.724 L182.64,167.232 L181.899,168.723 L181.106,170.195 L180.261,171.645 L179.366,173.072 L178.419,174.474 L177.423,175.849 L176.378,177.196 L175.284,178.513 L174.143,179.798 L172.956,181.049 L171.722,182.264 L170.445,183.443 L169.124,184.584 L167.761,185.684 L166.357,186.742 L164.913,187.757 L163.431,188.728 L161.912,189.652 L160.358,190.529 L158.769,191.357 L157.148,192.135 L155.496,192.862 L153.815,193.536 L152.106,194.156 L150.371,194.722 L148.612,195.231 L146.831,195.684 L145.029,196.079 L143.209,196.416 L141.372,196.693 L139.52,196.911 L137.656,197.067 L135.781,197.162 L133.897,197.196 L132.006,197.166 L130.111,197.075 L128.214,196.92 L126.316,196.701 L124.419,196.419 L122.527,196.074 L120.64,195.665 L118.762,195.192 L116.894,194.655 L115.038,194.055 L113.197,193.392 L111.373,192.667 L109.568,191.878 L107.784,191.028 L106.023,190.116 L104.287,189.144 L102.579,188.111 L100.9,187.019 L99.253,185.868 L97.639,184.66 L96.062,183.395 L94.521,182.074 L93.021,180.699 L91.561,179.27 L90.145,177.79 L88.775,176.258 L87.451,174.677 L86.177,173.049 L84.952,171.374 L83.78,169.654 L82.662,167.89 L81.6,166.085 L80.594,164.241 L79.647,162.358 L78.759,160.44 L77.933,158.487 L77.169,156.501 L76.469,154.486 L75.834,152.442 L75.264,150.372 L74.762,148.278 L74.328,146.163 L73.963,144.028 L73.667,141.875 L73.442,139.708 L73.287,137.527 L73.205,135.337 L73.194,133.138 L73.257,130.933 L73.392,128.726 L73.6,126.517 L73.882,124.311 L74.238,122.108 L74.667,119.911 L75.17,117.724 L75.746,115.548 L76.395,113.387 L77.118,111.241 L77.913,109.115 L78.779,107.009 L79.718,104.928 L80.727,102.873 L81.807,100.846 L82.955,98.851 L84.173,96.888 L85.458,94.962 L86.809,93.074 L88.226,91.226 L89.707,89.42 L91.25,87.66 L92.856,85.947 L94.521,84.282 L96.245,82.669 L98.026,81.11 L99.862,79.606 L101.752,78.159 L103.694,76.771 L105.686,75.445 L107.726,74.181 L109.812,72.982 L111.942,71.849 L114.114,70.784 L116.333,69.785 L98.683,31.673 L95.291,33.383 L91.959,35.203 L88.698,37.126 L85.512,39.15 L82.402,41.272 L79.373,43.489 L76.427,45.798 L73.567,48.196 L70.796,50.68 L68.116,53.247 L65.529,55.893 L63.039,58.616 L60.646,61.411 L58.354,64.275 L56.164,67.204 L54.077,70.196 L52.097,73.246 L50.224,76.351 L48.459,79.506 L46.805,82.709 L45.261,85.954 L43.83,89.24 L42.512,92.56 L41.308,95.913 L40.219,99.293 L39.245,102.697 L38.386,106.122 L37.643,109.562 L37.017,113.015 L36.506,116.475 L36.11,119.941 L35.831,123.407 L35.666,126.869 L35.616,130.325 L35.681,133.77 L35.858,137.2 L36.148,140.612 L36.549,144.002 L37.06,147.366 L37.68,150.702 L38.408,154.004 L39.242,157.271 L40.181,160.498 L41.222,163.682 L42.365,166.82 L43.607,169.908 L44.946,172.945 L46.38,175.925 L47.906,178.848 L49.524,181.709 L51.23,184.506 L53.021,187.236 L54.896,189.897 L56.851,192.486 L58.884,195.001 L60.993,197.439 L63.174,199.798 L65.424,202.076 L67.741,204.272 L70.121,206.382 L72.562,208.406 L75.06,210.342 L77.612,212.187 L80.215,213.941 L82.866,215.603 L85.561,217.17 L88.298,218.643 L91.072,220.019 L93.881,221.299 L96.721,222.48 L99.588,223.563 L102.48,224.548 L105.393,225.432 L108.324,226.218 L111.268,226.903 L114.224,227.488 L117.187,227.974 L120.154,228.359 L123.121,228.645 L126.086,228.832 L129.046,228.92 L131.996,228.91 L134.933,228.803 L137.855,228.599 L140.758,228.299 L143.639,227.905 L146.496,227.417 L149.324,226.837 L152.121,226.165 L154.885,225.404 L157.611,224.555 L160.298,223.62 L162.943,222.599 L165.543,221.495 L168.096,220.31 L170.598,219.046 L173.048,217.704 L175.443,216.287 L177.781,214.797 L180.059,213.236 L182.276,211.607 L184.43,209.911 L186.517,208.151 L188.538,206.33 L190.49,204.449 L192.37,202.513 L194.179,200.523 L195.913,198.481 L197.572,196.392 L199.155,194.256 L200.66,192.078 L202.086,189.86 L203.432,187.604 L204.697,185.314 L205.881,182.993 L206.983,180.642 L208.001,178.266 L208.936,175.867 L209.788,173.448 L210.555,171.012 L211.238,168.561 L211.837,166.099 L212.351,163.629 L212.781,161.153 L213.127,158.675 L213.389,156.196 L213.567,153.721 L213.663,151.251 L213.676,148.79 L213.608,146.34 L213.458,143.904 L213.228,141.485 L212.919,139.084 L212.532,136.706 L212.068,134.352 L211.528,132.024 L210.913,129.726 L210.224,127.46 L209.464,125.227 L208.633,123.031 L207.734,120.873 L206.767,118.756 L205.735,116.681 L204.638,114.651 L203.48,112.668 L202.261,110.733 L200.985,108.849 L199.652,107.016 L198.264,105.237 L196.825,103.513 L195.336,101.846 L193.798,100.237 L192.215,98.688 L190.589,97.199 L188.921,95.772 L187.215,94.408 L185.472,93.108 L183.695,91.873 L181.886,90.704 L180.047,89.601 L178.182,88.566 L176.291,87.598 L174.379,86.698 L172.447,85.867 L170.498,85.105 L168.533,84.412 L166.556,83.789 L164.57,83.235 L162.575,82.75 L160.575,82.334 L158.572,81.988 L156.569,81.71 L154.568,81.501 L152.571,81.36 L150.58,81.287 L148.598,81.281 L146.627,81.341 L144.669,81.466 L142.726,81.657 L140.801,81.911 L138.896,82.229 L137.012,82.608 L135.151,83.048 L133.316,83.549 L131.509,84.107 L129.731,84.723 L127.984,85.396 L126.27,86.122 L124.59,86.902 L122.947,87.734 L121.341,88.616 L119.774,89.546 L118.249,90.524 L116.765,91.547 L115.325,92.614 L113.929,93.722 L112.579,94.871 L111.276,96.058 L110.021,97.282 L108.815,98.54 L107.659,99.831 L106.554,101.153 L105.5,102.504 L104.498,103.881 L103.549,105.284 L102.653,106.71 L101.812,108.157 L101.024,109.623 L100.291,111.107 L99.613,112.605 L98.989,114.117 L98.421,115.64 L97.908,117.172 L97.451,118.711 L97.048,120.256 L96.7,121.804 L96.407,123.353 L96.168,124.902 L95.984,126.449 L95.853,127.992 L95.775,129.528 L95.749,131.057 L95.776,132.576 L95.854,134.084 L95.982,135.579 L96.16,137.059 L96.387,138.523 L96.663,139.969 L96.985,141.396 L97.353,142.801 L97.766,144.185 L98.223,145.544 L98.723,146.879 L99.264,148.187 L99.846,149.468 L100.466,150.72 L101.124,151.943 L101.817,153.135 L102.545,154.296 L103.301,155.424 L103.845,156.138 L104.464,156.786 L105.153,157.362 L105.901,157.856 L106.7,158.264 L107.54,158.579 L108.41,158.799 L109.299,158.92 L110.196,158.94 L111.089,158.86 L111.968,158.681 L112.822,158.404 L113.639,158.033 L114.409,157.573 L115.123,157.03 L115.772,156.41 L116.347,155.722 L116.841,154.973 L117.249,154.174 L117.565,153.334 L117.784,152.464 L117.905,151.576 L117.925,150.679 L117.845,149.785 L117.666,148.906 L117.389,148.053 L117.018,147.236 Z" fill="#F44352"/><circle cx="107.508" cy="50.729" r="34" fill="none" stroke="#FF5E63" stroke-width="4.5" opacity="0.4"/><circle cx="107.508" cy="50.729" r="26" fill="#FF5E63"/></svg>