<svg xmlns="http://www.w3.org/2000/svg" viewBox="0 0 280 280"><rect width="280" height="280" fill="#0B0B0B"/><path d="M124.575,156.029 L123.863,155.656 L123.162,155.249 L122.471,154.811 L121.792,154.34 L121.125,153.839 L120.471,153.308 L119.832,152.746 L119.208,152.156 L118.602,151.536 L118.015,150.888 L117.447,150.212 L116.901,149.51 L116.376,148.781 L115.875,148.026 L115.398,147.247 L114.946,146.443 L114.522,145.616 L114.125,144.767 L113.757,143.897 L113.418,143.006 L113.111,142.096 L112.835,141.168 L112.592,140.223 L112.382,139.262 L112.206,138.287 L112.065,137.298 L111.96,136.297 L111.892,135.285 L111.86,134.263 L111.866,133.234 L111.911,132.197 L111.993,131.156 L112.115,130.11 L112.276,129.063 L112.477,128.014 L112.718,126.966 L112.999,125.92 L113.321,124.878 L113.682,123.842 L114.084,122.812 L114.527,121.79 L115.009,120.779 L115.532,119.779 L116.095,118.793 L116.697,117.821 L117.338,116.865 L118.018,115.927 L118.736,115.009 L119.492,114.112 L120.285,113.237 L121.115,112.386 L121.981,111.561 L122.881,110.763 L123.816,109.993 L124.784,109.254 L125.784,108.545 L126.815,107.869 L127.877,107.227 L128.968,106.621 L130.086,106.05 L131.232,105.518 L132.402,105.025 L133.597,104.571 L134.814,104.159 L136.053,103.789 L137.312,103.462 L138.588,103.179 L139.881,102.941 L141.19,102.749 L142.512,102.604 L143.845,102.505 L145.189,102.455 L146.541,102.453 L147.9,102.501 L149.263,102.597 L150.629,102.744 L151.997,102.941 L153.363,103.188 L154.727,103.486 L156.087,103.835 L157.44,104.235 L158.785,104.685 L160.12,105.186 L161.443,105.738 L162.751,106.34 L164.044,106.992 L165.319,107.694 L166.574,108.445 L167.807,109.244 L169.017,110.092 L170.201,110.986 L171.358,111.928 L172.486,112.915 L173.584,113.947 L174.648,115.023 L175.678,116.143 L176.673,117.303 L177.629,118.505 L178.546,119.746 L179.422,121.025 L180.255,122.341 L181.044,123.692 L181.788,125.077 L182.485,126.495 L183.133,127.943 L183.732,129.42 L184.28,130.925 L184.776,132.455 L185.219,134.009 L185.607,135.585 L185.941,137.181 L186.218,138.794 L186.438,140.425 L186.6,142.069 L186.704,143.725 L186.749,145.391 L186.733,147.065 L186.658,148.744 L186.522,150.427 L186.325,152.111 L186.066,153.794 L185.747,155.474 L185.365,157.149 L184.923,158.815 L184.418,160.472 L183.853,162.117 L183.226,163.746 L182.539,165.36 L181.792,166.954 L180.984,168.526 L180.118,170.076 L179.192,171.599 L178.209,173.094 L177.169,174.559 L176.073,175.992 L174.922,177.39 L173.717,178.752 L172.459,180.075 L171.15,181.357 L169.79,182.596 L168.381,183.791 L166.925,184.939 L165.423,186.038 L163.877,187.088 L162.288,188.085 L160.659,189.028 L158.99,189.916 L157.285,190.747 L155.544,191.52 L153.77,192.233 L151.965,192.884 L150.131,193.472 L148.271,193.997 L146.386,194.457 L144.479,194.851 L142.552,195.177 L140.607,195.436 L138.647,195.626 L136.675,195.746 L134.692,195.796 L132.702,195.775 L130.707,195.683 L128.709,195.519 L126.711,195.283 L124.716,194.975 L122.726,194.595 L120.744,194.143 L118.772,193.618 L116.814,193.022 L114.871,192.353 L112.947,191.614 L111.044,190.803 L109.164,189.922 L107.311,188.971 L105.486,187.952 L103.693,186.864 L101.934,185.71 L100.211,184.489 L98.527,183.204 L96.885,181.855 L95.286,180.443 L93.734,178.971 L92.23,177.439 L90.776,175.849 L89.376,174.203 L88.03,172.503 L86.742,170.75 L85.513,168.947 L84.346,167.095 L83.241,165.197 L82.201,163.254 L81.228,161.269 L80.323,159.244 L79.489,157.182 L78.725,155.085 L78.035,152.955 L77.419,150.795 L76.879,148.608 L76.415,146.396 L76.029,144.162 L75.722,141.909 L75.494,139.639 L75.347,137.355 L75.281,135.061 L75.297,132.759 L75.395,130.451 L75.576,128.142 L75.839,125.833 L76.185,123.529 L76.615,121.231 L77.127,118.943 L77.722,116.668 L78.4,114.408 L79.159,112.168 L80.001,109.949 L80.924,107.755 L81.927,105.59 L83.009,103.454 L84.17,101.353 L85.409,99.288 L86.724,97.262 L88.114,95.279 L89.578,93.341 L91.115,91.451 L92.722,89.611 L94.399,87.825 L96.143,86.094 L97.952,84.421 L99.826,82.809 L101.76,81.261 L103.754,79.778 L105.806,78.363 L107.912,77.018 L110.071,75.745 L112.279,74.546 L114.535,73.423 L116.836,72.378 L119.18,71.413 L121.562,70.53 L123.988,69.726 L112.466,35.62 L108.89,36.962 L105.368,38.428 L101.911,40.014 L98.522,41.717 L95.205,43.534 L91.966,45.462 L88.806,47.499 L85.73,49.64 L82.741,51.883 L79.843,54.224 L77.038,56.659 L74.33,59.185 L71.722,61.798 L69.215,64.493 L66.814,67.268 L64.521,70.118 L62.336,73.039 L60.264,76.027 L58.306,79.078 L56.463,82.186 L54.737,85.349 L53.131,88.56 L51.644,91.817 L50.279,95.115 L49.035,98.449 L47.916,101.814 L46.919,105.206 L46.047,108.621 L45.3,112.054 L44.678,115.501 L44.18,118.956 L43.808,122.416 L43.559,125.876 L43.435,129.331 L43.433,132.778 L43.555,136.211 L43.798,139.626 L44.161,143.02 L44.643,146.387 L45.244,149.725 L45.96,153.027 L46.792,156.292 L47.736,159.514 L48.791,162.69 L49.954,165.815 L51.225,168.887 L52.599,171.901 L54.075,174.855 L55.651,177.744 L57.322,180.566 L59.088,183.317 L60.944,185.994 L62.888,188.594 L64.916,191.114 L67.026,193.552 L69.214,195.905 L71.477,198.171 L73.811,200.346 L76.213,202.43 L78.679,204.42 L81.206,206.313 L83.79,208.109 L86.427,209.806 L89.114,211.401 L91.846,212.894 L94.62,214.284 L97.431,215.569 L100.277,216.749 L103.152,217.822 L106.054,218.788 L108.977,219.647 L111.919,220.399 L114.875,221.042 L117.841,221.577 L120.813,222.004 L123.788,222.323 L126.762,222.535 L129.73,222.641 L132.689,222.639 L135.635,222.533 L138.564,222.322 L141.473,222.008 L144.358,221.591 L147.215,221.073 L150.041,220.456 L152.833,219.74 L155.586,218.929 L158.299,218.023 L160.967,217.024 L163.587,215.934 L166.157,214.756 L168.673,213.492 L171.132,212.143 L173.533,210.713 L175.871,209.204 L178.144,207.618 L180.351,205.959 L182.488,204.228 L184.554,202.43 L186.546,200.565 L188.462,198.639 L190.3,196.653 L192.059,194.61 L193.736,192.515 L195.331,190.369 L196.842,188.177 L198.267,185.941 L199.605,183.665 L200.856,181.352 L202.018,179.005 L203.091,176.628 L204.074,174.224 L204.966,171.797 L205.767,169.35 L206.476,166.886 L207.094,164.408 L207.62,161.921 L208.055,159.427 L208.398,156.93 L208.651,154.433 L208.813,151.94 L208.885,149.453 L208.867,146.976 L208.761,144.512 L208.567,142.064 L208.287,139.636 L207.921,137.23 L207.471,134.849 L206.938,132.497 L206.324,130.176 L205.629,127.889 L204.857,125.638 L204.007,123.427 L203.083,121.258 L202.086,119.134 L201.018,117.056 L199.881,115.028 L198.678,113.051 L197.41,111.128 L196.08,109.26 L194.69,107.45 L193.242,105.7 L191.74,104.011 L190.185,102.385 L188.58,100.824 L186.928,99.329 L185.231,97.902 L183.493,96.543 L181.715,95.254 L179.901,94.036 L178.053,92.89 L176.174,91.817 L174.267,90.818 L172.336,89.892 L170.381,89.042 L168.408,88.266 L166.417,87.566 L164.413,86.941 L162.398,86.392 L160.375,85.919 L158.346,85.521 L156.315,85.199 L154.284,84.952 L152.257,84.779 L150.235,84.68 L148.221,84.655 L146.218,84.703 L144.23,84.822 L142.257,85.012 L140.303,85.273 L138.37,85.602 L136.461,85.999 L134.578,86.462 L132.723,86.991 L130.899,87.583 L129.107,88.238 L127.35,88.953 L125.63,89.727 L123.949,90.558 L122.308,91.445 L120.71,92.386 L119.156,93.379 L117.647,94.421 L116.187,95.511 L114.774,96.648 L113.413,97.828 L112.103,99.049 L110.845,100.31 L109.642,101.609 L108.493,102.942 L107.401,104.309 L106.365,105.706 L105.387,107.131 L104.467,108.582 L103.606,110.056 L102.805,111.552 L102.063,113.067 L101.381,114.599 L100.76,116.144 L100.199,117.702 L99.699,119.269 L99.26,120.844 L98.88,122.423 L98.561,124.005 L98.302,125.588 L98.102,127.169 L97.962,128.745 L97.88,130.316 L97.855,131.878 L97.888,133.43 L97.978,134.969 L98.123,136.494 L98.322,138.002 L98.576,139.492 L98.881,140.962 L99.239,142.409 L99.646,143.832 L100.103,145.23 L100.607,146.6 L101.158,147.942 L101.754,149.253 L102.393,150.532 L103.074,151.778 L103.795,152.989 L104.555,154.165 L105.353,155.303 L106.186,156.403 L107.052,157.464 L107.951,158.484 L108.88,159.464 L109.838,160.401 L110.822,161.296 L111.831,162.148 L112.863,162.956 L113.916,163.72 L114.988,164.439 L116.078,165.113 L117.183,165.742 L118.302,166.328 L119.429,166.869 L120.052,167.123 L120.699,167.306 L121.363,167.415 L122.035,167.449 L122.707,167.408 L123.37,167.291 L124.015,167.101 L124.635,166.84 L125.222,166.512 L125.769,166.119 L126.268,165.668 L126.714,165.164 L127.1,164.613 L127.422,164.022 L127.676,163.399 L127.859,162.752 L127.968,162.088 L128.002,161.416 L127.96,160.744 L127.844,160.082 L127.654,159.436 L127.393,158.816 L127.064,158.229 L126.672,157.682 L126.221,157.183 L125.717,156.738 L125.166,156.351 Z" fill="#F44352"/><circle cx="118.227" cy="52.673" r="29" fill="none" stroke="#FF5E63" stroke-width="3.5" opacity="0.4"/><circle cx="118.227" cy="52.673" r="22" fill="#FF5E63"/></svg>