<svg xmlns="http://www.w3.org/2000/svg" viewBox="0 0 280 280"><path d="M92.875,72.698 L95.244,71.152 L97.664,69.689 L100.131,68.31 L102.643,67.018 L105.196,65.814 L107.788,64.7 L110.416,63.675 L113.076,62.743 L115.765,61.903 L118.48,61.156 L121.218,60.504 L123.975,59.947 L126.748,59.485 L129.534,59.119 L132.329,58.85 L135.131,58.677 L137.935,58.601 L140.739,58.621 L143.539,58.738 L146.331,58.951 L149.114,59.26 L151.882,59.664 L154.634,60.164 L157.365,60.757 L160.072,61.444 L162.753,62.223 L165.405,63.094 L168.023,64.055 L170.605,65.105 L173.148,66.242 L175.649,67.466 L178.105,68.775 L180.514,70.167 L182.871,71.64 L185.176,73.192 L187.424,74.822 L189.613,76.528 L191.742,78.307 L193.807,80.158 L195.805,82.077 L197.736,84.063 L199.596,86.113 L201.383,88.225 L203.095,90.396 L204.731,92.624 L206.288,94.905 L207.765,97.238 L209.16,99.618 L210.472,102.044 L211.698,104.513 L233.908,95.614 L234.326,97.45 L234.452,99.329 L234.283,101.204 L233.822,103.03 L233.081,104.761 L232.079,106.355 L230.839,107.773 L229.393,108.979 L227.776,109.944 L226.028,110.645 L224.192,111.063 L222.313,111.189 L220.438,111.019 L218.612,110.558 L216.881,109.817 L215.287,108.815 L213.87,107.575 L212.663,106.129 L233.208,93.866 L231.526,90.705 L229.737,87.604 L227.843,84.568 L225.846,81.6 L223.75,78.705 L221.555,75.884 L219.266,73.141 L216.885,70.48 L214.414,67.904 L211.858,65.416 L209.218,63.018 L206.498,60.713 L203.702,58.504 L200.833,56.394 L197.893,54.385 L194.888,52.478 L191.82,50.678 L188.693,48.984 L185.511,47.4 L182.278,45.928 L178.997,44.568 L175.673,43.322 L172.309,42.192 L168.91,41.179 L165.479,40.284 L162.021,39.508 L158.54,38.851 L155.04,38.316 L151.524,37.901 L147.998,37.608 L144.466,37.436 L140.931,37.387 L137.398,37.459 L133.872,37.652 L130.355,37.967 L126.853,38.402 L123.369,38.958 L119.908,39.633 L116.474,40.426 L113.071,41.337 L109.702,42.364 L106.372,43.506 L103.085,44.762 L99.844,46.129 L96.654,47.606 L93.518,49.192 L90.44,50.884 L87.423,52.681 L84.471,54.579 L81.587,56.578 L80.396,57.56 L79.372,58.716 L78.543,60.018 L77.927,61.434 L77.54,62.929 L77.392,64.466 L77.487,66.007 L77.821,67.515 L78.387,68.952 L79.171,70.282 L80.153,71.473 L81.309,72.497 L82.611,73.326 L84.027,73.942 L85.522,74.329 L87.059,74.477 L88.6,74.382 L90.108,74.048 L91.545,73.482 Z" fill="#C62F3B"/><path d="M214.028,116.896 L214.731,119.472 L215.344,122.069 L215.866,124.684 L216.299,127.314 L216.64,129.956 L216.889,132.605 L217.047,135.261 L217.114,137.918 L217.089,140.574 L216.972,143.226 L216.765,145.871 L216.466,148.505 L216.078,151.126 L215.599,153.73 L215.032,156.314 L214.376,158.875 L213.633,161.411 L212.804,163.918 L211.889,166.393 L210.89,168.834 L209.809,171.237 L208.646,173.6 L207.403,175.92 L206.082,178.194 L204.685,180.42 L203.212,182.595 L201.667,184.716 L200.05,186.782 L198.365,188.789 L196.612,190.736 L194.795,192.62 L192.915,194.439 L190.975,196.191 L188.976,197.874 L186.923,199.486 L184.817,201.025 L182.66,202.49 L180.455,203.879 L178.206,205.19 L175.914,206.422 L173.583,207.574 L171.215,208.644 L168.814,209.631 L166.381,210.534 L163.92,211.352 L161.435,212.085 L158.927,212.731 L156.4,213.289 L153.857,213.761 L151.301,214.144 L153.764,247.949 L151.106,247.724 L148.516,247.087 L146.057,246.051 L143.791,244.644 L141.773,242.9 L140.052,240.862 L138.671,238.579 L137.665,236.109 L137.057,233.511 L136.863,230.851 L137.088,228.192 L137.726,225.602 L138.761,223.144 L140.168,220.877 L141.912,218.859 L143.951,217.138 L146.233,215.758 L148.704,214.751 L156.425,247.755 L160.116,247.076 L163.78,246.27 L167.412,245.339 L171.009,244.283 L174.565,243.105 L178.077,241.806 L181.541,240.388 L184.952,238.851 L188.306,237.199 L191.6,235.433 L194.83,233.556 L197.992,231.569 L201.082,229.476 L204.097,227.278 L207.032,224.979 L209.886,222.582 L212.654,220.089 L215.333,217.503 L217.92,214.827 L220.413,212.066 L222.807,209.221 L225.102,206.298 L227.293,203.298 L229.378,200.226 L231.356,197.086 L233.223,193.88 L234.978,190.614 L236.619,187.291 L238.144,183.916 L239.55,180.491 L240.838,177.021 L242.004,173.511 L243.049,169.964 L243.97,166.386 L244.767,162.779 L245.439,159.149 L245.986,155.499 L246.406,151.835 L246.699,148.16 L246.866,144.479 L246.906,140.796 L246.819,137.116 L246.606,133.442 L246.266,129.78 L245.8,126.134 L245.21,122.507 L244.495,118.905 L243.657,115.331 L242.697,111.79 L241.616,108.285 L240.773,106.181 L239.61,104.234 L238.158,102.492 L236.451,101 L234.532,99.793 L232.447,98.901 L230.248,98.346 L227.99,98.141 L225.728,98.293 L223.517,98.797 L221.412,99.64 L219.465,100.802 L217.724,102.255 L216.231,103.961 L215.024,105.881 L214.132,107.966 L213.577,110.164 L213.373,112.422 L213.525,114.685 Z" fill="#F44352"/><path d="M139.579,212.449 L137.502,212.349 L135.43,212.19 L133.366,211.972 L131.31,211.695 L129.265,211.359 L127.231,210.965 L125.212,210.513 L123.208,210.004 L121.221,209.438 L119.253,208.815 L117.304,208.137 L115.378,207.404 L113.475,206.616 L111.597,205.775 L109.746,204.88 L107.922,203.934 L106.128,202.936 L104.364,201.889 L102.633,200.792 L100.936,199.646 L99.273,198.453 L97.646,197.214 L96.058,195.93 L94.507,194.602 L92.997,193.231 L91.528,191.818 L90.102,190.365 L88.719,188.873 L87.38,187.342 L86.087,185.776 L84.84,184.174 L83.641,182.538 L82.491,180.87 L81.389,179.171 L80.338,177.442 L79.338,175.685 L78.389,173.902 L77.493,172.094 L76.649,170.262 L75.86,168.408 L75.124,166.534 L74.443,164.641 L73.817,162.731 L73.247,160.805 L72.733,158.866 L72.275,156.914 L71.874,154.951 L71.529,152.979 L71.242,151 L71.011,149.014 L70.838,147.025 L70.723,145.033 L70.664,143.041 L70.663,141.049 L70.719,139.059 L70.832,137.074 L71.002,135.094 L71.228,133.122 L71.511,131.159 L71.85,129.206 L27.258,118.501 L28.64,115.166 L30.525,112.089 L32.869,109.345 L35.614,107.001 L38.691,105.115 L42.025,103.734 L45.535,102.891 L49.133,102.608 L52.731,102.891 L56.24,103.734 L59.574,105.115 L62.652,107.001 L65.396,109.345 L67.74,112.089 L69.626,115.166 L71.007,118.501 L71.85,122.01 L72.133,125.608 L26.416,122.01 L26.003,125.284 L25.685,128.567 L25.462,131.857 L25.333,135.149 L25.298,138.443 L25.358,141.734 L25.513,145.021 L25.761,148.3 L26.104,151.569 L26.539,154.825 L27.068,158.066 L27.69,161.289 L28.403,164.491 L29.208,167.669 L30.103,170.822 L31.087,173.946 L32.161,177.038 L33.322,180.098 L34.57,183.121 L35.903,186.105 L37.321,189.049 L38.822,191.949 L40.405,194.803 L42.068,197.61 L43.81,200.366 L45.63,203.069 L47.526,205.718 L49.496,208.31 L51.538,210.843 L53.651,213.315 L55.834,215.725 L58.083,218.069 L60.398,220.347 L62.775,222.556 L65.214,224.695 L67.712,226.762 L70.268,228.756 L72.877,230.674 L75.54,232.516 L78.253,234.279 L81.014,235.964 L83.821,237.567 L86.671,239.088 L89.563,240.526 L92.492,241.88 L95.458,243.149 L98.458,244.331 L101.489,245.426 L104.548,246.434 L107.634,247.352 L110.743,248.181 L113.873,248.92 L117.021,249.569 L120.185,250.127 L123.362,250.593 L126.55,250.968 L129.745,251.251 L132.945,251.442 L136.148,251.541 L139.351,251.548 L142.411,251.325 L145.398,250.626 L148.239,249.469 L150.864,247.881 L153.208,245.903 L155.214,243.581 L156.832,240.975 L158.022,238.148 L158.756,235.169 L159.014,232.112 L158.792,229.053 L158.093,226.065 L156.935,223.224 L155.348,220.599 L153.369,218.255 L151.048,216.249 L148.441,214.631 L145.614,213.441 L142.635,212.707 Z" fill="#FF5E63"/><circle cx="61.98" cy="91.247" r="32.45" fill="none" stroke="#F44352" stroke-width="3.5"/><circle cx="61.98" cy="91.247" r="26.45" fill="#FF5E63"/></svg>