<svg xmlns="http://www.w3.org/2000/svg" viewBox="0 0 280 280"><path d="M92.405,72.027 L94.633,70.567 L96.907,69.18 L99.222,67.867 L101.578,66.63 L103.971,65.47 L106.398,64.388 L108.858,63.384 L111.348,62.461 L113.865,61.619 L116.407,60.858 L118.97,60.179 L121.553,59.584 L124.152,59.072 L126.765,58.644 L129.389,58.3 L132.022,58.041 L134.66,57.867 L137.301,57.777 L139.943,57.772 L142.582,57.853 L145.215,58.017 L147.841,58.266 L150.457,58.6 L153.058,59.016 L155.644,59.516 L158.212,60.099 L160.758,60.763 L163.28,61.508 L165.776,62.334 L168.243,63.239 L170.678,64.222 L173.079,65.282 L175.444,66.419 L177.77,67.63 L180.055,68.914 L182.296,70.271 L184.492,71.698 L186.639,73.194 L188.736,74.758 L190.781,76.387 L192.772,78.081 L194.706,79.836 L196.582,81.652 L198.398,83.527 L200.152,85.458 L201.842,87.443 L203.467,89.48 L205.024,91.568 L206.513,93.703 L207.932,95.884 L227.207,85.419 L227.783,87.046 L228.097,88.743 L228.143,90.469 L227.917,92.18 L227.427,93.835 L226.684,95.393 L225.706,96.816 L224.518,98.068 L223.149,99.119 L221.632,99.942 L220.005,100.518 L218.308,100.833 L216.582,100.878 L214.871,100.653 L213.216,100.163 L211.658,99.419 L210.235,98.442 L208.983,97.254 L226.383,83.902 L224.505,81.18 L222.541,78.521 L220.493,75.927 L218.364,73.401 L216.156,70.946 L213.871,68.564 L211.512,66.257 L209.081,64.028 L206.58,61.879 L204.013,59.813 L201.381,57.831 L198.688,55.935 L195.937,54.127 L193.131,52.409 L190.271,50.782 L187.363,49.249 L184.407,47.811 L181.408,46.469 L178.369,45.224 L175.292,44.079 L172.182,43.032 L169.04,42.087 L165.871,41.243 L162.678,40.502 L159.464,39.864 L156.233,39.33 L152.987,38.9 L149.73,38.574 L146.466,38.354 L143.198,38.238 L139.929,38.228 L136.663,38.322 L133.402,38.521 L130.151,38.825 L126.913,39.232 L123.69,39.744 L120.487,40.358 L117.307,41.074 L114.152,41.892 L111.027,42.811 L107.933,43.829 L104.876,44.945 L101.857,46.159 L98.879,47.468 L95.947,48.872 L93.062,50.368 L90.228,51.956 L87.447,53.633 L84.723,55.398 L82.057,57.249 L80.965,58.15 L80.027,59.21 L79.267,60.403 L78.702,61.701 L78.348,63.072 L78.212,64.481 L78.299,65.893 L78.605,67.275 L79.124,68.592 L79.842,69.812 L80.743,70.904 L81.803,71.842 L82.996,72.602 L84.294,73.167 L85.665,73.521 L87.074,73.657 L88.486,73.57 L89.868,73.264 L91.185,72.745 Z" fill="#C62F3B"/><path d="M214.974,117.078 L215.625,119.51 L216.198,121.96 L216.69,124.425 L217.104,126.904 L217.437,129.392 L217.69,131.889 L217.862,134.391 L217.954,136.896 L217.966,139.401 L217.897,141.904 L217.748,144.401 L217.518,146.891 L217.209,149.371 L216.821,151.838 L216.354,154.289 L215.809,156.723 L215.187,159.137 L214.487,161.528 L213.712,163.894 L212.862,166.232 L211.937,168.54 L210.94,170.816 L209.87,173.057 L208.73,175.262 L207.521,177.427 L206.243,179.551 L204.898,181.632 L203.489,183.667 L202.015,185.655 L200.48,187.593 L198.883,189.479 L197.229,191.312 L195.517,193.09 L193.75,194.811 L191.93,196.473 L190.059,198.075 L188.138,199.615 L186.17,201.092 L184.157,202.504 L182.101,203.849 L180.004,205.127 L177.868,206.336 L175.696,207.476 L173.49,208.544 L171.253,209.54 L168.985,210.463 L166.691,211.313 L164.372,212.087 L162.031,212.787 L159.67,213.41 L165.484,244.778 L162.974,244.843 L160.485,244.516 L158.077,243.802 L155.811,242.722 L153.742,241.3 L151.921,239.571 L150.393,237.579 L149.195,235.373 L148.357,233.006 L147.899,230.538 L147.833,228.028 L148.161,225.539 L148.874,223.131 L149.955,220.865 L151.377,218.796 L153.105,216.975 L155.097,215.446 L157.304,214.248 L167.952,244.32 L171.274,243.323 L174.56,242.22 L177.807,241.013 L181.013,239.702 L184.173,238.29 L187.285,236.778 L190.346,235.167 L193.352,233.46 L196.3,231.658 L199.188,229.763 L202.012,227.777 L204.769,225.702 L207.457,223.541 L210.074,221.296 L212.615,218.968 L215.08,216.562 L217.465,214.079 L219.768,211.521 L221.986,208.892 L224.118,206.194 L226.162,203.431 L228.114,200.605 L229.974,197.718 L231.74,194.775 L233.409,191.778 L234.981,188.73 L236.453,185.634 L237.825,182.495 L239.094,179.314 L240.26,176.096 L241.322,172.843 L242.278,169.56 L243.128,166.249 L243.871,162.913 L244.506,159.558 L245.032,156.185 L245.45,152.798 L245.759,149.402 L245.958,145.998 L246.048,142.592 L246.029,139.186 L245.9,135.784 L245.662,132.389 L245.316,129.005 L244.861,125.636 L244.298,122.284 L243.629,118.954 L242.853,115.649 L241.971,112.371 L240.986,109.126 L240.204,107.14 L239.121,105.301 L237.763,103.654 L236.165,102.24 L234.365,101.094 L232.408,100.243 L230.342,99.708 L228.217,99.504 L226.087,99.634 L224.004,100.096 L222.018,100.878 L220.179,101.961 L218.533,103.319 L217.119,104.917 L215.972,106.717 L215.121,108.674 L214.587,110.74 L214.382,112.864 L214.512,114.995 Z" fill="#F44352"/><path d="M138.721,213.289 L136.763,213.173 L134.81,213.006 L132.863,212.786 L130.925,212.514 L128.996,212.191 L127.078,211.817 L125.172,211.391 L123.28,210.916 L121.402,210.39 L119.541,209.814 L117.697,209.189 L115.872,208.516 L114.067,207.794 L112.283,207.025 L110.522,206.209 L108.784,205.347 L107.072,204.439 L105.386,203.487 L103.727,202.49 L102.097,201.451 L100.496,200.368 L98.926,199.244 L97.388,198.08 L95.883,196.875 L94.412,195.632 L92.975,194.351 L91.575,193.032 L90.211,191.678 L88.886,190.288 L87.599,188.865 L86.351,187.409 L85.144,185.921 L83.978,184.403 L82.854,182.855 L81.772,181.278 L80.734,179.675 L79.74,178.046 L78.791,176.391 L77.887,174.714 L77.029,173.014 L76.218,171.293 L75.453,169.552 L74.736,167.792 L74.067,166.016 L73.446,164.224 L72.874,162.417 L72.351,160.596 L71.877,158.764 L71.453,156.921 L71.078,155.069 L70.754,153.209 L70.479,151.343 L70.255,149.471 L70.081,147.596 L69.958,145.717 L69.885,143.838 L69.862,141.959 L69.89,140.082 L69.968,138.207 L70.096,136.336 L26.607,130.611 L27.587,127.301 L29.074,124.185 L31.029,121.34 L33.405,118.836 L36.144,116.734 L39.178,115.087 L42.432,113.935 L45.826,113.306 L49.277,113.215 L52.7,113.666 L56.01,114.646 L59.126,116.133 L61.971,118.088 L64.475,120.464 L66.577,123.203 L68.224,126.237 L69.376,129.491 L70.006,132.885 L26.156,134.034 L26.092,137.084 L26.11,140.133 L26.209,143.178 L26.39,146.219 L26.652,149.253 L26.995,152.276 L27.418,155.288 L27.922,158.287 L28.505,161.269 L29.168,164.233 L29.91,167.177 L30.729,170.098 L31.627,172.995 L32.6,175.866 L33.65,178.708 L34.775,181.52 L35.975,184.299 L37.247,187.044 L38.592,189.752 L40.009,192.423 L41.495,195.053 L43.051,197.641 L44.674,200.185 L46.365,202.683 L48.12,205.135 L49.94,207.537 L51.823,209.888 L53.767,212.188 L55.77,214.433 L57.832,216.623 L59.951,218.755 L62.126,220.829 L64.353,222.844 L66.633,224.797 L68.963,226.687 L71.342,228.513 L73.768,230.274 L76.238,231.969 L78.752,233.596 L81.308,235.155 L83.902,236.644 L86.535,238.062 L89.203,239.408 L91.905,240.683 L94.639,241.883 L97.402,243.01 L100.193,244.061 L103.011,245.037 L105.851,245.937 L108.714,246.76 L111.596,247.506 L114.495,248.174 L117.41,248.764 L120.338,249.275 L123.278,249.708 L126.226,250.061 L129.181,250.336 L132.142,250.531 L135.105,250.647 L138.068,250.683 L140.997,250.504 L143.862,249.869 L146.592,248.793 L149.12,247.304 L151.384,245.438 L153.329,243.24 L154.905,240.765 L156.076,238.074 L156.81,235.233 L157.092,232.312 L156.912,229.383 L156.277,226.519 L155.202,223.788 L153.713,221.26 L151.846,218.996 L149.648,217.052 L147.173,215.475 L144.483,214.305 L141.642,213.57 Z" fill="#FF5E63"/><circle cx="59.535" cy="95.398" r="31.3" fill="none" stroke="#F44352" stroke-width="3.5"/><circle cx="59.535" cy="95.398" r="25.3" fill="#FF5E63"/></svg>