<svg xmlns="http://www.w3.org/2000/svg" viewBox="0 0 280 280"><path d="M112.461,64.336 L115.169,63.457 L117.905,62.676 L120.666,61.991 L123.447,61.406 L126.246,60.919 L129.058,60.532 L131.88,60.245 L134.709,60.058 L137.541,59.971 L140.372,59.985 L143.2,60.098 L146.02,60.312 L148.829,60.625 L151.623,61.036 L154.399,61.546 L157.154,62.154 L159.883,62.858 L162.585,63.658 L165.254,64.552 L167.889,65.54 L170.485,66.619 L173.041,67.789 L175.551,69.047 L178.014,70.393 L180.426,71.825 L182.784,73.339 L185.086,74.935 L187.329,76.611 L189.51,78.364 L191.625,80.191 L193.674,82.091 L195.653,84.062 L197.559,86.099 L199.392,88.202 L201.147,90.366 L202.824,92.59 L204.42,94.87 L205.933,97.204 L207.362,99.589 L208.705,102.02 L209.961,104.497 L211.127,107.014 L212.202,109.57 L213.186,112.16 L214.077,114.782 L214.874,117.432 L215.577,120.107 L216.184,122.803 L216.695,125.518 L217.109,128.247 L244.949,126.218 L244.764,128.407 L244.239,130.541 L243.386,132.565 L242.228,134.432 L240.791,136.094 L239.112,137.511 L237.233,138.648 L235.198,139.477 L233.059,139.977 L230.868,140.137 L228.679,139.952 L226.546,139.426 L224.521,138.574 L222.655,137.415 L220.993,135.979 L219.576,134.3 L218.439,132.42 L217.61,130.386 L244.79,124.027 L244.11,120.341 L243.3,116.682 L242.362,113.057 L241.297,109.468 L240.106,105.921 L238.791,102.42 L237.354,98.969 L235.796,95.573 L234.12,92.236 L232.328,88.962 L230.422,85.755 L228.405,82.618 L226.279,79.557 L224.048,76.574 L221.713,73.673 L219.278,70.858 L216.747,68.132 L214.121,65.498 L211.406,62.96 L208.604,60.522 L205.719,58.184 L202.754,55.952 L199.714,53.827 L196.602,51.811 L193.422,49.908 L190.178,48.119 L186.875,46.447 L183.516,44.894 L180.106,43.461 L176.649,42.15 L173.15,40.963 L169.613,39.901 L166.042,38.965 L162.441,38.157 L158.817,37.476 L155.172,36.925 L151.512,36.503 L147.84,36.211 L144.163,36.049 L140.484,36.017 L136.808,36.115 L133.139,36.344 L129.483,36.701 L125.843,37.188 L122.225,37.802 L118.632,38.544 L115.07,39.412 L111.542,40.405 L108.053,41.522 L104.608,42.761 L102.969,43.508 L101.466,44.502 L100.138,45.719 L99.017,47.129 L98.13,48.697 L97.499,50.384 L97.14,52.149 L97.061,53.949 L97.265,55.739 L97.746,57.475 L98.494,59.114 L99.488,60.616 L100.705,61.944 L102.115,63.066 L103.682,63.953 L105.37,64.584 L107.135,64.943 L108.935,65.021 L110.725,64.817 Z" fill="#C62F3B"/><path d="M215.845,139.117 L215.772,141.799 L215.604,144.474 L215.341,147.14 L214.985,149.792 L214.536,152.428 L213.994,155.045 L213.36,157.639 L212.636,160.207 L211.821,162.746 L210.918,165.253 L209.928,167.724 L208.851,170.157 L207.69,172.548 L206.447,174.895 L205.121,177.195 L203.717,179.445 L202.235,181.641 L200.677,183.783 L199.046,185.866 L197.343,187.889 L195.571,189.849 L193.732,191.744 L191.829,193.571 L189.864,195.328 L187.839,197.013 L185.758,198.624 L183.623,200.159 L181.436,201.617 L179.201,202.996 L176.92,204.293 L174.597,205.508 L172.234,206.639 L169.834,207.686 L167.401,208.645 L164.937,209.518 L162.445,210.302 L159.93,210.997 L157.393,211.602 L154.838,212.116 L152.269,212.54 L149.689,212.872 L147.1,213.112 L144.506,213.261 L141.911,213.317 L139.318,213.282 L136.729,213.155 L134.149,212.937 L131.58,212.627 L129.025,212.228 L126.488,211.739 L116.577,248.302 L113.857,247.081 L111.361,245.45 L109.151,243.449 L107.282,241.126 L105.798,238.54 L104.738,235.754 L104.127,232.835 L103.979,229.858 L104.3,226.893 L105.08,224.016 L106.3,221.296 L107.931,218.8 L109.933,216.59 L112.255,214.721 L114.841,213.237 L117.628,212.177 L120.546,211.566 L123.524,211.418 L119.454,249.082 L123.334,249.684 L127.229,250.148 L131.137,250.474 L135.052,250.661 L138.969,250.71 L142.884,250.62 L146.791,250.392 L150.685,250.026 L154.562,249.523 L158.416,248.884 L162.244,248.108 L166.04,247.199 L169.799,246.156 L173.517,244.981 L177.19,243.677 L180.812,242.244 L184.379,240.684 L187.887,239.001 L191.332,237.195 L194.708,235.269 L198.013,233.226 L201.242,231.069 L204.391,228.8 L207.456,226.423 L210.433,223.939 L213.32,221.354 L216.111,218.669 L218.805,215.888 L221.397,213.016 L223.884,210.055 L226.264,207.01 L228.534,203.884 L230.69,200.681 L232.731,197.406 L234.654,194.063 L236.456,190.655 L238.136,187.187 L239.691,183.664 L241.12,180.091 L242.42,176.47 L243.592,172.808 L244.632,169.109 L245.541,165.377 L246.317,161.617 L246.958,157.835 L247.466,154.034 L247.838,150.219 L248.075,146.396 L248.177,142.568 L248.143,138.742 L247.914,136.218 L247.294,133.761 L246.297,131.431 L244.948,129.285 L243.28,127.378 L241.334,125.754 L239.158,124.455 L236.805,123.513 L234.334,122.95 L231.806,122.781 L229.282,123.009 L226.825,123.629 L224.495,124.626 L222.35,125.975 L220.442,127.643 L218.819,129.589 L217.52,131.766 L216.577,134.118 L216.014,136.589 Z" fill="#F44352"/><path d="M117.356,207.028 L115.412,206.273 L113.493,205.462 L111.6,204.595 L109.735,203.673 L107.9,202.698 L106.097,201.67 L104.325,200.59 L102.589,199.46 L100.887,198.279 L99.223,197.05 L97.597,195.774 L96.011,194.451 L94.466,193.084 L92.963,191.673 L91.504,190.219 L90.09,188.724 L88.722,187.19 L87.4,185.617 L86.127,184.007 L84.903,182.362 L83.729,180.684 L82.606,178.972 L81.535,177.23 L80.517,175.459 L79.552,173.66 L78.642,171.835 L77.787,169.986 L76.987,168.114 L76.244,166.221 L75.557,164.308 L74.928,162.378 L74.356,160.432 L73.843,158.471 L73.388,156.499 L72.992,154.515 L72.654,152.522 L72.376,150.522 L72.158,148.517 L71.998,146.508 L71.898,144.497 L71.858,142.485 L71.877,140.476 L71.955,138.469 L72.092,136.467 L72.288,134.473 L72.542,132.486 L72.855,130.51 L73.225,128.546 L73.653,126.595 L74.138,124.66 L74.679,122.741 L75.276,120.842 L75.928,118.962 L76.635,117.104 L77.395,115.269 L78.209,113.459 L79.074,111.676 L79.992,109.921 L80.959,108.195 L81.976,106.5 L40.897,78.267 L43.597,75.421 L46.71,73.033 L50.157,71.161 L53.855,69.852 L57.712,69.137 L61.634,69.034 L65.523,69.546 L69.285,70.66 L72.826,72.349 L76.059,74.571 L78.904,77.272 L81.292,80.384 L83.164,83.832 L84.474,87.53 L85.189,91.387 L85.291,95.308 L84.779,99.198 L83.665,102.959 L38.675,81.5 L37.05,84.541 L35.516,87.628 L34.075,90.756 L32.727,93.924 L31.473,97.129 L30.316,100.367 L29.255,103.636 L28.291,106.934 L27.426,110.257 L26.659,113.601 L25.991,116.966 L25.423,120.346 L24.956,123.741 L24.589,127.145 L24.322,130.557 L24.157,133.974 L24.092,137.392 L24.128,140.809 L24.264,144.221 L24.502,147.626 L24.839,151.021 L25.276,154.403 L25.812,157.768 L26.446,161.114 L27.179,164.439 L28.009,167.738 L28.935,171.01 L29.957,174.251 L31.074,177.459 L32.283,180.631 L33.585,183.764 L34.979,186.856 L36.461,189.904 L38.033,192.905 L39.691,195.857 L41.434,198.757 L43.262,201.603 L45.171,204.392 L47.161,207.122 L49.229,209.791 L51.373,212.397 L53.593,214.936 L55.885,217.408 L58.248,219.81 L60.679,222.14 L63.176,224.396 L65.737,226.576 L68.361,228.678 L71.043,230.701 L73.783,232.643 L76.577,234.503 L79.423,236.278 L82.318,237.968 L85.261,239.57 L88.248,241.085 L91.276,242.51 L94.344,243.844 L97.447,245.086 L100.585,246.236 L103.753,247.293 L106.986,248.109 L110.307,248.409 L113.634,248.186 L116.885,247.445 L119.981,246.205 L122.844,244.496 L125.404,242.36 L127.599,239.85 L129.375,237.027 L130.686,233.962 L131.503,230.729 L131.803,227.408 L131.58,224.081 L130.839,220.829 L129.599,217.734 L127.89,214.871 L125.754,212.31 L123.244,210.115 L120.421,208.34 Z" fill="#FF5E63"/><circle cx="80.864" cy="69.524" r="34.75" fill="none" stroke="#F44352" stroke-width="3.5"/><circle cx="80.864" cy="69.524" r="28.75" fill="#FF5E63"/></svg>