<svg xmlns="http://www.w3.org/2000/svg" viewBox="0 0 280 280"><path d="M95.697,76.729 L97.922,75.305 L100.193,73.959 L102.507,72.693 L104.86,71.507 L107.251,70.404 L109.676,69.384 L112.132,68.449 L114.617,67.599 L117.128,66.835 L119.661,66.158 L122.213,65.569 L124.782,65.067 L127.364,64.655 L129.957,64.331 L132.558,64.096 L135.162,63.951 L137.768,63.894 L140.372,63.927 L142.971,64.049 L145.562,64.26 L148.142,64.559 L150.709,64.946 L153.258,65.42 L155.787,65.98 L158.294,66.626 L160.775,67.357 L163.228,68.172 L165.649,69.069 L168.035,70.048 L170.385,71.107 L172.696,72.245 L174.964,73.46 L177.187,74.751 L179.363,76.117 L181.489,77.554 L183.563,79.062 L185.582,80.639 L187.544,82.283 L189.448,83.992 L191.29,85.763 L193.069,87.594 L194.782,89.484 L196.429,91.429 L198.007,93.428 L199.514,95.478 L200.948,97.577 L202.309,99.721 L203.595,101.909 L204.804,104.138 L205.934,106.405 L239.092,92.671 L239.751,95.417 L239.973,98.233 L239.751,101.049 L239.092,103.795 L238.011,106.405 L236.535,108.813 L234.701,110.961 L232.553,112.795 L230.144,114.271 L227.535,115.352 L224.788,116.011 L221.973,116.233 L219.157,116.011 L216.41,115.352 L213.801,114.271 L211.392,112.795 L209.245,110.961 L207.41,108.813 L238.011,90.061 L236.189,86.769 L234.256,83.544 L232.216,80.389 L230.07,77.307 L227.821,74.301 L225.472,71.377 L223.026,68.536 L220.486,65.782 L217.854,63.118 L215.134,60.548 L212.33,58.073 L209.445,55.697 L206.481,53.423 L203.443,51.252 L200.335,49.188 L197.16,47.233 L193.922,45.389 L190.624,43.657 L187.271,42.04 L183.867,40.54 L180.416,39.158 L176.921,37.896 L173.387,36.755 L169.819,35.735 L166.219,34.839 L162.594,34.067 L158.946,33.421 L155.281,32.899 L151.602,32.503 L147.914,32.234 L144.221,32.091 L140.527,32.075 L136.838,32.185 L133.156,32.421 L129.487,32.782 L125.835,33.269 L122.203,33.88 L118.597,34.614 L115.02,35.47 L111.477,36.448 L107.972,37.546 L104.508,38.763 L101.089,40.096 L97.721,41.545 L94.406,43.107 L91.148,44.781 L87.952,46.564 L84.82,48.455 L81.757,50.45 L78.765,52.547 L76.978,54.021 L75.443,55.755 L74.199,57.709 L73.275,59.833 L72.695,62.075 L72.473,64.38 L72.615,66.692 L73.116,68.953 L73.965,71.108 L75.14,73.104 L76.614,74.891 L78.348,76.426 L80.302,77.67 L82.426,78.594 L84.668,79.174 L86.973,79.396 L89.285,79.254 L91.546,78.753 L93.701,77.904 Z" fill="#C62F3B"/><path d="M213.349,117.575 L214.02,120.111 L214.605,122.666 L215.101,125.239 L215.509,127.824 L215.827,130.421 L216.057,133.025 L216.197,135.633 L216.248,138.243 L216.209,140.851 L216.082,143.455 L215.865,146.051 L215.56,148.636 L215.167,151.207 L214.687,153.761 L214.12,156.296 L213.467,158.808 L212.729,161.295 L211.906,163.753 L211.001,166.18 L210.014,168.572 L208.947,170.928 L207.8,173.244 L206.576,175.518 L205.275,177.748 L203.9,179.929 L202.453,182.061 L200.934,184.141 L199.346,186.166 L197.691,188.134 L195.97,190.043 L194.187,191.891 L192.343,193.675 L190.44,195.394 L188.481,197.046 L186.468,198.628 L184.404,200.14 L182.29,201.579 L180.13,202.943 L177.927,204.233 L175.682,205.445 L173.398,206.579 L171.079,207.633 L168.727,208.607 L166.344,209.498 L163.935,210.308 L161.5,211.033 L159.044,211.675 L156.57,212.232 L154.079,212.703 L151.576,213.089 L154.392,248.867 L151.576,248.646 L148.83,247.986 L146.22,246.905 L143.812,245.43 L141.664,243.595 L139.83,241.447 L138.354,239.039 L137.273,236.43 L136.614,233.683 L136.392,230.867 L136.614,228.052 L137.273,225.305 L138.354,222.695 L139.83,220.287 L141.664,218.139 L143.812,216.305 L146.22,214.829 L148.83,213.748 L157.208,248.646 L160.903,247.941 L164.571,247.11 L168.206,246.155 L171.804,245.076 L175.362,243.876 L178.875,242.555 L182.339,241.116 L185.75,239.559 L189.104,237.888 L192.398,236.104 L195.626,234.209 L198.787,232.206 L201.876,230.097 L204.889,227.885 L207.823,225.571 L210.675,223.161 L213.442,220.655 L216.12,218.057 L218.706,215.371 L221.197,212.599 L223.591,209.745 L225.885,206.812 L228.076,203.803 L230.162,200.724 L232.14,197.576 L234.009,194.364 L235.766,191.091 L237.409,187.762 L238.936,184.381 L240.346,180.95 L241.637,177.476 L242.808,173.961 L243.858,170.409 L244.785,166.826 L245.588,163.215 L246.267,159.58 L246.821,155.926 L247.25,152.257 L247.552,148.578 L247.729,144.892 L247.779,141.204 L247.703,137.518 L247.502,133.839 L247.174,130.171 L246.722,126.518 L246.145,122.884 L245.444,119.274 L244.621,115.692 L243.677,112.142 L242.612,108.629 L241.732,106.395 L240.513,104.326 L238.986,102.474 L237.188,100.883 L235.163,99.593 L232.961,98.635 L230.637,98.034 L228.247,97.804 L225.851,97.951 L223.507,98.47 L221.273,99.35 L219.204,100.569 L217.352,102.096 L215.761,103.894 L214.471,105.919 L213.514,108.121 L212.912,110.445 L212.682,112.835 L212.829,115.231 Z" fill="#F44352"/><path d="M138.661,216.688 L136.478,216.574 L134.3,216.398 L132.13,216.159 L129.968,215.86 L127.817,215.498 L125.678,215.076 L123.554,214.594 L121.446,214.051 L119.355,213.449 L117.283,212.787 L115.232,212.068 L113.204,211.29 L111.2,210.456 L109.221,209.565 L107.27,208.619 L105.348,207.618 L103.457,206.564 L101.597,205.456 L99.771,204.297 L97.979,203.087 L96.224,201.827 L94.507,200.518 L92.829,199.161 L91.19,197.758 L89.594,196.31 L88.04,194.818 L86.531,193.283 L85.067,191.706 L83.649,190.09 L82.279,188.434 L80.957,186.741 L79.685,185.012 L78.463,183.249 L77.293,181.453 L76.175,179.625 L75.11,177.767 L74.1,175.88 L73.144,173.967 L72.244,172.028 L71.399,170.066 L70.612,168.082 L69.882,166.077 L69.21,164.053 L68.596,162.012 L68.041,159.956 L67.545,157.886 L67.109,155.804 L66.732,153.712 L66.415,151.611 L66.159,149.503 L65.963,147.39 L65.827,145.273 L65.752,143.155 L65.737,141.037 L65.783,138.92 L65.889,136.807 L66.055,134.7 L66.281,132.599 L66.566,130.506 L66.911,128.424 L32.014,120.046 L33.095,117.436 L34.57,115.028 L36.405,112.88 L38.553,111.046 L40.961,109.57 L43.57,108.489 L46.317,107.83 L49.133,107.608 L51.948,107.83 L54.695,108.489 L57.305,109.57 L59.713,111.046 L61.861,112.88 L63.695,115.028 L65.171,117.436 L66.252,120.046 L66.911,122.792 L67.133,125.608 L31.354,122.792 L30.953,125.902 L30.64,129.02 L30.416,132.145 L30.282,135.274 L30.237,138.403 L30.281,141.532 L30.414,144.657 L30.636,147.775 L30.947,150.885 L31.346,153.983 L31.833,157.067 L32.408,160.135 L33.07,163.184 L33.817,166.212 L34.651,169.216 L35.57,172.193 L36.572,175.143 L37.658,178.061 L38.826,180.945 L40.076,183.794 L41.405,186.606 L42.814,189.376 L44.3,192.105 L45.863,194.789 L47.501,197.426 L49.213,200.014 L50.998,202.552 L52.853,205.036 L54.777,207.466 L56.769,209.839 L58.827,212.153 L60.95,214.406 L63.135,216.598 L65.38,218.725 L67.684,220.786 L70.045,222.78 L72.461,224.705 L74.93,226.56 L77.45,228.343 L80.018,230.052 L82.633,231.687 L85.293,233.246 L87.994,234.728 L90.736,236.132 L93.516,237.457 L96.33,238.701 L99.179,239.864 L102.057,240.945 L104.965,241.943 L107.898,242.857 L110.855,243.687 L113.833,244.432 L116.83,245.091 L119.843,245.665 L122.871,246.152 L125.909,246.552 L128.956,246.866 L132.01,247.092 L135.068,247.232 L138.127,247.284 L140.524,247.137 L142.868,246.617 L145.101,245.738 L147.17,244.519 L149.023,242.992 L150.614,241.194 L151.903,239.169 L152.861,236.967 L153.462,234.643 L153.692,232.253 L153.545,229.857 L153.026,227.513 L152.146,225.279 L150.927,223.21 L149.4,221.358 L147.602,219.767 L145.577,218.477 L143.376,217.52 L141.051,216.918 Z" fill="#FF5E63"/><circle cx="61.98" cy="91.247" r="26.7" fill="none" stroke="#F44352" stroke-width="3.5"/><circle cx="61.98" cy="91.247" r="20.7" fill="#FF5E63"/></svg>