<svg xmlns="http://www.w3.org/2000/svg" viewBox="0 0 280 280"><path d="M62.795,111.9 L63.841,109.292 L64.975,106.722 L66.196,104.195 L67.502,101.712 L68.892,99.276 L70.363,96.891 L71.914,94.558 L73.543,92.281 L75.248,90.062 L77.027,87.905 L78.878,85.81 L80.799,83.781 L82.787,81.82 L84.839,79.929 L86.954,78.11 L89.129,76.366 L91.361,74.698 L93.647,73.108 L95.986,71.598 L98.373,70.17 L100.806,68.825 L103.283,67.565 L105.8,66.39 L108.355,65.304 L110.944,64.305 L113.564,63.397 L116.212,62.579 L118.885,61.852 L121.58,61.218 L124.293,60.676 L127.023,60.228 L129.764,59.874 L132.514,59.613 L135.271,59.448 L138.03,59.376 L140.788,59.399 L143.542,59.516 L146.289,59.728 L149.026,60.033 L151.75,60.431 L154.457,60.922 L157.143,61.505 L159.807,62.179 L162.445,62.943 L165.054,63.797 L167.631,64.739 L170.173,65.768 L172.676,66.883 L175.139,68.082 L177.558,69.364 L190.413,49.185 L191.823,50.433 L193.021,51.886 L193.977,53.508 L194.667,55.26 L195.075,57.099 L195.19,58.978 L195.009,60.853 L194.538,62.676 L193.787,64.402 L192.775,65.991 L191.527,67.401 L190.074,68.599 L188.452,69.554 L186.7,70.244 L184.861,70.652 L182.982,70.767 L181.108,70.587 L179.285,70.115 L188.825,48.173 L185.637,46.596 L182.398,45.129 L179.112,43.775 L175.783,42.534 L172.415,41.408 L169.012,40.399 L165.578,39.506 L162.117,38.733 L158.633,38.078 L155.13,37.543 L151.612,37.128 L148.083,36.835 L144.548,36.662 L141.011,36.61 L137.475,36.679 L133.945,36.869 L130.425,37.179 L126.92,37.61 L123.432,38.16 L119.967,38.828 L116.529,39.615 L113.12,40.518 L109.746,41.537 L106.411,42.67 L103.117,43.916 L99.869,45.273 L96.671,46.741 L93.526,48.316 L90.438,49.997 L87.411,51.781 L84.448,53.668 L81.552,55.654 L78.728,57.737 L75.977,59.914 L73.303,62.184 L70.71,64.542 L68.2,66.987 L65.776,69.515 L63.441,72.124 L61.198,74.809 L59.049,77.569 L56.996,80.399 L55.042,83.297 L53.189,86.259 L51.439,89.281 L49.795,92.36 L48.257,95.492 L46.828,98.673 L45.509,101.9 L44.302,105.169 L43.889,106.657 L43.714,108.191 L43.782,109.733 L44.089,111.246 L44.63,112.693 L45.391,114.037 L46.352,115.245 L47.49,116.288 L48.778,117.14 L50.183,117.781 L51.671,118.193 L53.205,118.368 L54.747,118.301 L56.261,117.993 L57.707,117.452 L59.051,116.692 L60.259,115.731 L61.302,114.592 L62.155,113.305 Z" fill="#C62F3B"/><path d="M187.745,78.89 L189.774,80.598 L191.742,82.373 L193.648,84.213 L195.488,86.116 L197.26,88.079 L198.964,90.101 L200.596,92.179 L202.155,94.309 L203.639,96.491 L205.047,98.72 L206.377,100.995 L207.627,103.312 L208.797,105.669 L209.884,108.063 L210.889,110.492 L211.809,112.952 L212.644,115.44 L213.392,117.953 L214.054,120.489 L214.628,123.045 L215.114,125.617 L215.512,128.202 L215.821,130.798 L216.04,133.401 L216.17,136.008 L216.211,138.617 L216.163,141.223 L216.026,143.825 L215.8,146.418 L215.485,149.001 L215.083,151.57 L214.593,154.121 L214.017,156.653 L213.354,159.162 L212.607,161.645 L211.776,164.1 L210.862,166.522 L209.866,168.911 L208.79,171.263 L207.635,173.574 L206.402,175.844 L205.094,178.068 L203.71,180.245 L202.255,182.372 L200.728,184.446 L199.132,186.466 L197.469,188.428 L195.741,190.331 L193.951,192.172 L192.099,193.95 L213.659,220.105 L211.361,221.459 L208.879,222.436 L206.275,223.014 L203.612,223.177 L200.957,222.921 L198.374,222.253 L195.928,221.189 L193.678,219.756 L191.68,217.988 L189.983,215.93 L188.629,213.632 L187.651,211.15 L187.074,208.545 L186.911,205.883 L187.167,203.227 L187.835,200.645 L188.898,198.198 L190.332,195.948 L215.718,218.408 L218.318,215.737 L220.825,212.98 L223.235,210.14 L225.545,207.221 L227.753,204.225 L229.856,201.158 L231.852,198.022 L233.739,194.82 L235.514,191.558 L237.176,188.238 L238.722,184.866 L240.152,181.443 L241.463,177.976 L242.654,174.467 L243.724,170.921 L244.672,167.343 L245.496,163.736 L246.196,160.104 L246.771,156.453 L247.22,152.785 L247.544,149.106 L247.742,145.42 L247.813,141.731 L247.758,138.044 L247.577,134.362 L247.271,130.69 L246.839,127.033 L246.283,123.395 L245.602,119.779 L244.799,116.19 L243.874,112.633 L242.829,109.111 L241.664,105.628 L240.381,102.189 L238.982,98.798 L237.468,95.458 L235.842,92.173 L234.106,88.947 L232.261,85.784 L230.309,82.688 L228.254,79.662 L226.098,76.709 L223.843,73.833 L221.492,71.037 L219.048,68.324 L216.513,65.698 L213.892,63.161 L211.187,60.717 L208.401,58.368 L205.537,56.116 L203.646,54.865 L201.583,53.924 L199.398,53.318 L197.145,53.062 L194.88,53.161 L192.658,53.613 L190.534,54.407 L188.561,55.523 L186.786,56.935 L185.254,58.607 L184.003,60.498 L183.062,62.561 L182.456,64.746 L182.2,66.999 L182.299,69.264 L182.751,71.486 L183.545,73.61 L184.661,75.583 L186.073,77.358 Z" fill="#F44352"/><path d="M180.514,200.064 L178.754,201.146 L176.966,202.176 L175.151,203.154 L173.31,204.079 L171.445,204.951 L169.558,205.768 L167.649,206.531 L165.721,207.238 L163.775,207.89 L161.813,208.485 L159.836,209.024 L157.846,209.506 L155.845,209.93 L153.834,210.297 L151.815,210.606 L149.79,210.857 L147.76,211.05 L145.727,211.185 L143.693,211.262 L141.659,211.281 L139.627,211.242 L137.598,211.144 L135.575,210.99 L133.559,210.778 L131.551,210.508 L129.553,210.182 L127.567,209.799 L125.594,209.36 L123.636,208.865 L121.695,208.315 L119.772,207.711 L117.868,207.052 L115.985,206.34 L114.125,205.575 L112.289,204.758 L110.479,203.889 L108.696,202.97 L106.94,202.002 L105.215,200.984 L103.521,199.919 L101.859,198.807 L100.231,197.648 L98.638,196.445 L97.081,195.198 L95.562,193.908 L94.081,192.576 L92.64,191.203 L91.24,189.792 L89.882,188.342 L88.567,186.855 L87.296,185.332 L86.07,183.775 L84.89,182.185 L83.757,180.564 L82.671,178.912 L81.634,177.231 L80.646,175.523 L79.707,173.789 L78.82,172.03 L77.983,170.248 L35.316,187.055 L34.535,183.531 L34.314,179.929 L34.66,176.336 L35.564,172.842 L37.003,169.532 L38.942,166.488 L41.334,163.785 L44.119,161.49 L47.228,159.658 L50.586,158.335 L54.11,157.554 L57.712,157.334 L61.305,157.68 L64.799,158.583 L68.109,160.022 L71.153,161.962 L73.856,164.353 L76.151,167.138 L36.639,190.413 L38.169,193.312 L39.78,196.164 L41.471,198.969 L43.24,201.722 L45.086,204.423 L47.007,207.068 L49.003,209.657 L51.07,212.186 L53.207,214.654 L55.413,217.059 L57.685,219.398 L60.021,221.671 L62.421,223.876 L64.881,226.009 L67.4,228.071 L69.975,230.059 L72.604,231.972 L75.286,233.809 L78.017,235.567 L80.796,237.246 L83.621,238.844 L86.488,240.36 L89.396,241.793 L92.342,243.142 L95.324,244.405 L98.339,245.583 L101.385,246.673 L104.459,247.676 L107.559,248.59 L110.682,249.415 L113.826,250.15 L116.988,250.795 L120.166,251.35 L123.356,251.813 L126.557,252.185 L129.765,252.465 L132.978,252.654 L136.194,252.751 L139.41,252.756 L142.622,252.669 L145.83,252.492 L149.029,252.222 L152.218,251.862 L155.394,251.412 L158.553,250.871 L161.695,250.241 L164.816,249.521 L167.913,248.714 L170.984,247.819 L174.028,246.837 L177.04,245.769 L180.019,244.617 L182.963,243.381 L185.868,242.062 L188.734,240.661 L191.557,239.18 L194.335,237.62 L197.066,235.982 L199.747,234.268 L202.378,232.479 L204.779,230.569 L206.851,228.308 L208.545,225.749 L209.817,222.958 L210.637,220.002 L210.984,216.954 L210.85,213.889 L210.238,210.883 L209.164,208.009 L207.653,205.339 L205.744,202.938 L203.482,200.866 L200.924,199.173 L198.132,197.9 L195.176,197.081 L192.128,196.733 L189.063,196.867 L186.057,197.479 L183.184,198.553 Z" fill="#FF5E63"/><circle cx="48.126" cy="144.815" r="32.45" fill="none" stroke="#F44352" stroke-width="3.5"/><circle cx="48.126" cy="144.815" r="26.45" fill="#FF5E63"/></svg>