<svg xmlns="http://www.w3.org/2000/svg" viewBox="0 0 280 280"><path d="M91.464,70.683 L93.897,69.08 L96.383,67.563 L98.919,66.132 L101.502,64.79 L104.128,63.538 L106.795,62.378 L109.5,61.311 L112.238,60.338 L115.007,59.46 L117.804,58.679 L120.625,57.994 L123.466,57.407 L126.325,56.919 L129.199,56.53 L132.082,56.239 L134.973,56.049 L137.868,55.958 L140.763,55.967 L143.654,56.075 L146.54,56.283 L149.415,56.59 L152.277,56.996 L155.122,57.5 L157.947,58.101 L160.748,58.799 L163.523,59.593 L166.268,60.481 L168.979,61.463 L171.654,62.538 L174.289,63.703 L176.882,64.958 L179.429,66.301 L181.927,67.731 L184.373,69.245 L186.765,70.841 L189.1,72.519 L191.375,74.275 L193.586,76.108 L195.733,78.015 L197.812,79.994 L199.821,82.043 L201.757,84.159 L203.618,86.34 L205.403,88.582 L207.108,90.884 L208.733,93.242 L210.275,95.654 L211.732,98.117 L213.104,100.627 L214.387,103.182 L231.044,96.508 L231.358,97.885 L231.452,99.294 L231.325,100.701 L230.98,102.07 L230.424,103.368 L229.672,104.564 L228.743,105.627 L227.658,106.532 L226.445,107.256 L225.134,107.781 L223.757,108.094 L222.348,108.189 L220.942,108.062 L219.572,107.716 L218.274,107.16 L217.079,106.409 L216.015,105.479 L215.111,104.394 L230.519,95.197 L228.894,92.122 L227.165,89.106 L225.333,86.152 L223.402,83.264 L221.372,80.445 L219.248,77.698 L217.031,75.027 L214.724,72.435 L212.33,69.924 L209.851,67.498 L207.291,65.16 L204.654,62.912 L201.941,60.757 L199.156,58.698 L196.304,56.736 L193.386,54.874 L190.407,53.114 L187.37,51.458 L184.278,49.909 L181.137,48.467 L177.948,47.135 L174.717,45.913 L171.446,44.805 L168.14,43.809 L164.803,42.929 L161.439,42.164 L158.052,41.516 L154.645,40.984 L151.223,40.571 L147.79,40.276 L144.35,40.099 L140.907,40.041 L137.465,40.101 L134.029,40.28 L130.602,40.577 L127.188,40.992 L123.792,41.524 L120.417,42.172 L117.067,42.936 L113.747,43.814 L110.46,44.806 L107.21,45.911 L104.001,47.126 L100.837,48.45 L97.722,49.882 L94.659,51.421 L91.651,53.063 L88.703,54.807 L85.817,56.651 L82.998,58.593 L82.104,59.329 L81.337,60.197 L80.715,61.173 L80.253,62.235 L79.963,63.356 L79.852,64.509 L79.923,65.665 L80.173,66.796 L80.598,67.873 L81.186,68.871 L81.922,69.765 L82.79,70.532 L83.766,71.154 L84.828,71.616 L85.949,71.906 L87.102,72.017 L88.258,71.946 L89.389,71.696 L90.466,71.271 Z" fill="#C62F3B"/><path d="M217.274,115.883 L218.021,118.568 L218.675,121.276 L219.235,124.004 L219.7,126.749 L220.07,129.506 L220.345,132.273 L220.525,135.047 L220.609,137.823 L220.597,140.6 L220.489,143.374 L220.287,146.14 L219.989,148.897 L219.596,151.64 L219.11,154.367 L218.53,157.075 L217.858,159.759 L217.094,162.417 L216.239,165.047 L215.295,167.643 L214.262,170.205 L213.143,172.728 L211.937,175.21 L210.648,177.648 L209.276,180.039 L207.823,182.38 L206.291,184.669 L204.682,186.902 L202.998,189.078 L201.24,191.193 L199.412,193.245 L197.515,195.232 L195.552,197.152 L193.525,199.002 L191.436,200.781 L189.289,202.485 L187.085,204.114 L184.827,205.665 L182.519,207.137 L180.162,208.527 L177.76,209.835 L175.315,211.059 L172.831,212.198 L170.311,213.249 L167.757,214.213 L165.173,215.088 L162.561,215.873 L159.925,216.567 L157.268,217.17 L154.594,217.68 L151.904,218.098 L153.787,243.949 L151.755,243.777 L149.774,243.29 L147.894,242.498 L146.161,241.422 L144.617,240.088 L143.302,238.529 L142.246,236.784 L141.476,234.895 L141.012,232.908 L140.863,230.874 L141.035,228.841 L141.523,226.86 L142.315,224.98 L143.39,223.247 L144.724,221.704 L146.283,220.388 L148.029,219.332 L149.918,218.563 L155.822,243.801 L159.38,243.156 L162.912,242.39 L166.414,241.502 L169.883,240.495 L173.313,239.37 L176.701,238.127 L180.044,236.769 L183.336,235.297 L186.574,233.714 L189.755,232.02 L192.874,230.219 L195.929,228.311 L198.915,226.301 L201.828,224.19 L204.667,221.98 L207.426,219.675 L210.103,217.277 L212.696,214.789 L215.2,212.215 L217.613,209.556 L219.932,206.818 L222.154,204.002 L224.278,201.112 L226.3,198.152 L228.218,195.125 L230.03,192.035 L231.734,188.886 L233.328,185.681 L234.81,182.424 L236.179,179.119 L237.432,175.771 L238.569,172.382 L239.588,168.958 L240.488,165.502 L241.269,162.018 L241.929,158.511 L242.467,154.985 L242.884,151.443 L243.178,147.891 L243.349,144.332 L243.398,140.77 L243.324,137.21 L243.128,133.656 L242.81,130.113 L242.37,126.583 L241.808,123.073 L241.127,119.585 L240.326,116.124 L239.407,112.693 L238.37,109.298 L237.725,107.689 L236.837,106.2 L235.726,104.868 L234.421,103.727 L232.953,102.804 L231.359,102.122 L229.678,101.697 L227.951,101.541 L226.221,101.657 L224.53,102.042 L222.92,102.687 L221.431,103.576 L220.1,104.687 L218.959,105.992 L218.035,107.46 L217.353,109.054 L216.929,110.735 L216.773,112.462 L216.889,114.192 Z" fill="#F44352"/><path d="M139.554,216.699 L137.354,216.609 L135.16,216.457 L132.972,216.242 L130.792,215.964 L128.623,215.624 L126.465,215.222 L124.322,214.759 L122.193,214.234 L120.082,213.649 L117.99,213.004 L115.918,212.3 L113.868,211.537 L111.843,210.715 L109.843,209.837 L107.87,208.902 L105.927,207.911 L104.013,206.866 L102.131,205.767 L100.283,204.615 L98.47,203.411 L96.693,202.156 L94.954,200.851 L93.254,199.498 L91.595,198.098 L89.977,196.651 L88.403,195.159 L86.873,193.624 L85.389,192.046 L83.951,190.427 L82.561,188.769 L81.221,187.073 L79.93,185.339 L78.69,183.571 L77.502,181.768 L76.368,179.934 L75.287,178.068 L74.26,176.174 L73.289,174.252 L72.375,172.304 L71.516,170.332 L70.716,168.337 L69.973,166.321 L69.289,164.286 L68.665,162.234 L68.099,160.165 L67.594,158.083 L67.149,155.988 L66.764,153.882 L66.44,151.768 L66.178,149.646 L65.976,147.519 L65.835,145.388 L65.756,143.256 L65.738,141.123 L65.782,138.992 L65.886,136.865 L66.052,134.743 L66.278,132.627 L66.564,130.52 L66.911,128.424 L32.014,120.046 L33.095,117.436 L34.57,115.028 L36.405,112.88 L38.553,111.046 L40.961,109.57 L43.57,108.489 L46.317,107.83 L49.133,107.608 L51.948,107.83 L54.695,108.489 L57.305,109.57 L59.713,111.046 L61.861,112.88 L63.695,115.028 L65.171,117.436 L66.252,120.046 L66.911,122.792 L67.133,125.608 L31.354,122.792 L30.95,125.923 L30.636,129.063 L30.412,132.209 L30.278,135.359 L30.235,138.51 L30.283,141.66 L30.42,144.806 L30.648,147.945 L30.966,151.075 L31.373,154.194 L31.87,157.298 L32.455,160.386 L33.128,163.454 L33.889,166.5 L34.737,169.522 L35.67,172.517 L36.689,175.483 L37.792,178.418 L38.978,181.318 L40.246,184.182 L41.596,187.007 L43.025,189.791 L44.534,192.531 L46.119,195.226 L47.781,197.874 L49.517,200.471 L51.326,203.017 L53.207,205.509 L55.158,207.944 L57.177,210.322 L59.263,212.64 L61.413,214.896 L63.626,217.088 L65.901,219.215 L68.234,221.275 L70.625,223.267 L73.071,225.188 L75.57,227.037 L78.12,228.813 L80.719,230.515 L83.364,232.14 L86.054,233.689 L88.786,235.159 L91.558,236.549 L94.368,237.859 L97.213,239.086 L100.09,240.232 L102.999,241.293 L105.935,242.271 L108.897,243.163 L111.882,243.97 L114.888,244.69 L117.911,245.324 L120.951,245.87 L124.004,246.328 L127.067,246.699 L130.138,246.981 L133.215,247.175 L136.295,247.281 L139.376,247.298 L141.77,247.124 L144.108,246.577 L146.331,245.671 L148.386,244.429 L150.22,242.88 L151.79,241.063 L153.057,239.024 L153.988,236.811 L154.562,234.48 L154.765,232.087 L154.59,229.693 L154.043,227.355 L153.137,225.132 L151.895,223.077 L150.346,221.243 L148.53,219.673 L146.49,218.407 L144.277,217.475 L141.946,216.901 Z" fill="#FF5E63"/><circle cx="61.98" cy="91.247" r="26.7" fill="none" stroke="#F44352" stroke-width="3.5"/><circle cx="61.98" cy="91.247" r="20.7" fill="#FF5E63"/></svg>