<svg xmlns="http://www.w3.org/2000/svg" viewBox="0 0 280 280"><path d="M96.896,71.02 L99.239,69.664 L101.624,68.388 L104.048,67.193 L106.51,66.08 L109.006,65.05 L111.533,64.104 L114.089,63.243 L116.671,62.468 L119.275,61.78 L121.899,61.18 L124.541,60.667 L127.196,60.243 L129.863,59.907 L132.538,59.661 L135.218,59.504 L137.9,59.436 L140.581,59.458 L143.259,59.568 L145.929,59.768 L148.591,60.056 L151.239,60.433 L153.872,60.897 L156.487,61.448 L159.08,62.085 L161.649,62.808 L164.191,63.616 L166.704,64.507 L169.184,65.481 L171.628,66.536 L174.035,67.672 L176.401,68.886 L178.725,70.177 L181.002,71.545 L183.232,72.986 L185.411,74.5 L187.537,76.085 L189.608,77.738 L191.622,79.459 L193.576,81.244 L195.469,83.093 L197.297,85.002 L199.061,86.971 L200.757,88.995 L202.383,91.074 L203.939,93.204 L205.422,95.384 L206.83,97.61 L208.163,99.881 L209.419,102.193 L210.597,104.545 L234.601,94.765 L235.066,96.752 L235.214,98.786 L235.042,100.819 L234.554,102.8 L233.763,104.68 L232.687,106.413 L231.353,107.956 L229.794,109.272 L228.049,110.328 L226.159,111.097 L224.173,111.562 L222.139,111.71 L220.106,111.538 L218.125,111.051 L216.245,110.259 L214.512,109.183 L212.968,107.849 L211.653,106.29 L233.831,92.876 L232.17,89.803 L230.409,86.788 L228.549,83.834 L226.593,80.945 L224.542,78.125 L222.4,75.375 L220.168,72.699 L217.85,70.1 L215.447,67.581 L212.963,65.145 L210.401,62.793 L207.763,60.529 L205.052,58.355 L202.271,56.274 L199.425,54.287 L196.515,52.396 L193.544,50.605 L190.518,48.913 L187.438,47.325 L184.308,45.84 L181.132,44.461 L177.914,43.189 L174.656,42.025 L171.363,40.971 L168.038,40.027 L164.685,39.195 L161.308,38.476 L157.91,37.869 L154.496,37.376 L151.068,36.997 L147.632,36.732 L144.19,36.582 L140.746,36.547 L137.305,36.626 L133.87,36.82 L130.445,37.128 L127.033,37.549 L123.639,38.083 L120.266,38.73 L116.918,39.488 L113.599,40.357 L110.312,41.335 L107.06,42.422 L103.848,43.616 L100.679,44.915 L97.557,46.319 L94.484,47.825 L91.465,49.432 L88.502,51.137 L85.598,52.939 L84.254,53.934 L83.081,55.127 L82.11,56.489 L81.364,57.986 L80.861,59.582 L80.613,61.236 L80.628,62.909 L80.904,64.558 L81.435,66.145 L82.207,67.629 L83.202,68.973 L84.395,70.146 L85.757,71.117 L87.254,71.863 L88.849,72.366 L90.504,72.614 L92.177,72.599 L93.826,72.323 L95.413,71.792 Z" fill="#C62F3B"/><path d="M214.201,120.58 L214.753,123.071 L215.222,125.578 L215.607,128.097 L215.907,130.626 L216.123,133.162 L216.255,135.701 L216.302,138.242 L216.264,140.781 L216.142,143.316 L215.936,145.843 L215.645,148.36 L215.272,150.865 L214.816,153.354 L214.277,155.824 L213.657,158.274 L212.956,160.7 L212.176,163.099 L211.316,165.469 L210.379,167.808 L209.366,170.113 L208.277,172.381 L207.113,174.61 L205.878,176.798 L204.57,178.941 L203.194,181.039 L201.749,183.087 L200.238,185.086 L198.663,187.031 L197.024,188.922 L195.325,190.756 L193.567,192.53 L191.753,194.244 L189.883,195.896 L187.961,197.483 L185.989,199.005 L183.969,200.458 L181.902,201.843 L179.793,203.157 L177.642,204.4 L175.453,205.569 L173.228,206.664 L170.969,207.683 L168.679,208.627 L166.361,209.492 L164.016,210.28 L161.649,210.988 L159.261,211.617 L156.855,212.166 L154.435,212.634 L152.001,213.02 L155.025,248.782 L152.208,248.577 L149.458,247.933 L146.842,246.867 L144.425,245.406 L142.267,243.584 L140.42,241.447 L138.93,239.047 L137.834,236.444 L137.159,233.701 L136.921,230.887 L137.126,228.07 L137.769,225.319 L138.835,222.704 L140.297,220.287 L142.119,218.128 L144.256,216.282 L146.655,214.792 L149.259,213.696 L157.84,248.544 L161.431,247.837 L164.994,247.012 L168.527,246.069 L172.024,245.009 L175.483,243.835 L178.899,242.546 L182.268,241.145 L185.588,239.634 L188.854,238.014 L192.062,236.286 L195.209,234.454 L198.293,232.519 L201.308,230.484 L204.253,228.35 L207.124,226.121 L209.918,223.799 L212.631,221.386 L215.261,218.885 L217.806,216.299 L220.261,213.632 L222.626,210.886 L224.896,208.064 L227.071,205.169 L229.147,202.205 L231.122,199.175 L232.994,196.083 L234.761,192.931 L236.422,189.724 L237.974,186.466 L239.416,183.159 L240.747,179.807 L241.965,176.415 L243.068,172.986 L244.057,169.524 L244.929,166.032 L245.684,162.515 L246.322,158.977 L246.841,155.421 L247.241,151.852 L247.522,148.273 L247.684,144.689 L247.726,141.103 L247.649,137.519 L247.453,133.942 L247.139,130.375 L246.705,126.823 L246.155,123.288 L245.487,119.776 L244.703,116.289 L243.804,112.832 L243.015,110.564 L241.882,108.448 L240.432,106.535 L238.7,104.872 L236.729,103.501 L234.568,102.454 L232.27,101.759 L229.892,101.432 L227.491,101.481 L225.128,101.905 L222.861,102.693 L220.744,103.826 L218.831,105.277 L217.168,107.008 L215.797,108.979 L214.751,111.14 L214.055,113.438 L213.728,115.816 L213.777,118.217 Z" fill="#F44352"/><path d="M136.669,211.522 L134.691,211.343 L132.721,211.108 L130.76,210.82 L128.81,210.477 L126.871,210.081 L124.945,209.631 L123.035,209.129 L121.14,208.574 L119.264,207.967 L117.406,207.309 L115.569,206.6 L113.754,205.842 L111.962,205.034 L110.195,204.177 L108.454,203.272 L106.74,202.32 L105.054,201.322 L103.399,200.278 L101.774,199.189 L100.181,198.057 L98.622,196.882 L97.097,195.665 L95.608,194.408 L94.156,193.111 L92.741,191.775 L91.366,190.401 L90.03,188.992 L88.734,187.546 L87.481,186.067 L86.27,184.555 L85.102,183.011 L83.979,181.436 L82.901,179.833 L81.869,178.201 L80.883,176.543 L79.944,174.86 L79.053,173.153 L78.211,171.423 L77.418,169.672 L76.674,167.901 L75.98,166.111 L75.337,164.305 L74.745,162.483 L74.204,160.647 L73.714,158.799 L73.277,156.939 L72.891,155.069 L72.558,153.191 L72.277,151.306 L72.049,149.416 L71.874,147.521 L71.751,145.624 L71.682,143.727 L71.664,141.829 L71.7,139.934 L71.788,138.042 L71.929,136.154 L72.121,134.274 L72.366,132.4 L72.662,130.536 L25.944,120.179 L27.324,116.675 L29.236,113.43 L31.631,110.524 L34.452,108.029 L37.628,106.005 L41.082,104.504 L44.728,103.561 L48.476,103.2 L52.235,103.43 L55.912,104.245 L59.416,105.625 L62.661,107.536 L65.567,109.932 L68.063,112.753 L70.086,115.929 L71.588,119.382 L72.531,123.029 L72.892,126.777 L25.129,123.856 L24.785,127.054 L24.53,130.259 L24.364,133.467 L24.288,136.678 L24.3,139.888 L24.401,143.094 L24.592,146.295 L24.87,149.488 L25.237,152.67 L25.692,155.839 L26.234,158.992 L26.864,162.128 L27.579,165.243 L28.381,168.336 L29.267,171.404 L30.238,174.444 L31.292,177.455 L32.428,180.434 L33.646,183.378 L34.945,186.286 L36.323,189.156 L37.779,191.984 L39.312,194.77 L40.922,197.511 L42.605,200.204 L44.362,202.849 L46.191,205.442 L48.09,207.982 L50.057,210.468 L52.092,212.896 L54.192,215.266 L56.356,217.576 L58.582,219.823 L60.869,222.007 L63.213,224.125 L65.615,226.176 L68.071,228.159 L70.579,230.072 L73.139,231.914 L75.747,233.683 L78.402,235.378 L81.101,236.998 L83.843,238.542 L86.625,240.008 L89.446,241.396 L92.302,242.704 L95.192,243.932 L98.113,245.079 L101.063,246.144 L104.041,247.126 L107.042,248.024 L110.066,248.839 L113.11,249.569 L116.171,250.213 L119.247,250.773 L122.336,251.246 L125.435,251.634 L128.542,251.935 L131.655,252.15 L134.771,252.278 L137.97,252.176 L141.114,251.574 L144.125,250.488 L146.93,248.944 L149.458,246.981 L151.648,244.646 L153.446,241.997 L154.807,239.1 L155.698,236.026 L156.098,232.849 L155.995,229.65 L155.394,226.506 L154.307,223.495 L152.764,220.69 L150.8,218.162 L148.465,215.972 L145.817,214.174 L142.919,212.813 L139.845,211.922 Z" fill="#FF5E63"/><circle cx="62.842" cy="89.893" r="31.7" fill="none" stroke="#F44352" stroke-width="4"/><circle cx="62.842" cy="89.893" r="25.2" fill="#FF5E63"/></svg>